<svg width="251" height="187" viewBox="0 0 251 187" fill="none" xmlns="http://www.w3.org/2000/svg">
<path d="M248.134 0.576806L116.226 9.12028e-05C114.965 -0.0111162 113.938 1.01203 113.945 2.2738L114.227 48.4455C114.234 49.7152 115.283 50.7304 116.553 50.6926C128.184 50.3461 247.401 48.8158 249.681 48.9111C251.933 49.0054 250.709 12.5431 250.373 2.75898C250.332 1.54858 249.344 0.588013 248.134 0.576806Z" fill="#7D97F4"/>
<path d="M116.496 48.926C116.215 48.926 115.996 48.7061 115.995 48.4357L115.713 2.26397C115.712 2.12949 115.761 2.00854 115.857 1.91327C115.95 1.81941 116.075 1.76758 116.209 1.76758L248.117 2.34429C248.383 2.34663 248.598 2.55537 248.607 2.81968C249.443 27.1271 249.456 42.3888 248.647 46.9549L248.613 47.145L248.42 47.1478C246.523 47.1744 239.396 47.2636 229.359 47.3887C195.142 47.816 123.947 48.7042 116.502 48.926H116.496ZM116.464 48.4324L116.486 48.459C123.92 48.2372 195.131 47.3486 229.353 46.9213C239.074 46.7999 246.065 46.7125 248.219 46.6831C248.99 41.9251 248.963 26.782 248.14 2.83555L116.207 2.23455L116.461 48.4329L116.464 48.4324Z" fill="white"/>
<path d="M242.492 12.5006C242.492 13.7493 242.075 14.7612 241.561 14.7612H191.034C190.52 14.7612 190.104 13.7493 190.104 12.5006C190.104 11.2519 190.52 10.24 191.034 10.24H241.561C242.075 10.24 242.492 11.2524 242.492 12.5006Z" fill="#BDD0FB"/>
<path d="M242.492 20.2076C242.492 21.4563 242.075 22.4683 241.561 22.4683H191.034C190.52 22.4683 190.104 21.4563 190.104 20.2076C190.104 18.959 190.52 17.947 191.034 17.947H241.561C242.075 17.947 242.492 18.9594 242.492 20.2076Z" fill="#BDD0FB"/>
<path d="M242.492 27.9144C242.492 29.1631 242.075 30.1751 241.561 30.1751H191.034C190.52 30.1751 190.104 29.1627 190.104 27.9144C190.104 26.6657 190.52 25.6538 191.034 25.6538H241.561C242.075 25.6538 242.492 26.6662 242.492 27.9144Z" fill="#BDD0FB"/>
<path d="M242.492 35.622C242.492 36.8706 242.075 37.8826 241.561 37.8826H191.034C190.52 37.8826 190.104 36.8706 190.104 35.622C190.104 34.3733 190.52 33.3613 191.034 33.3613H241.561C242.075 33.3609 242.492 34.3733 242.492 35.622Z" fill="#BDD0FB"/>
<path d="M177.303 22.883C182.157 22.883 186.092 18.9479 186.092 14.0936C186.092 9.23935 182.157 5.3042 177.303 5.3042C172.449 5.3042 168.514 9.23935 168.514 14.0936C168.514 18.9479 172.449 22.883 177.303 22.883Z" fill="url(#paint0_linear_641_4269)"/>
<path d="M155.457 22.883C160.312 22.883 164.247 18.9479 164.247 14.0936C164.247 9.23935 160.312 5.3042 155.457 5.3042C150.603 5.3042 146.668 9.23935 146.668 14.0936C146.668 18.9479 150.603 22.883 155.457 22.883Z" fill="url(#paint1_linear_641_4269)"/>
<path d="M133.614 23.1706C138.468 23.1706 142.403 19.2355 142.403 14.3812C142.403 9.52695 138.468 5.5918 133.614 5.5918C128.759 5.5918 124.824 9.52695 124.824 14.3812C124.824 19.2355 128.759 23.1706 133.614 23.1706Z" fill="url(#paint2_linear_641_4269)"/>
<path d="M172.08 12.236C171.807 12.8977 171.656 13.6215 171.656 14.3813C171.656 17.4992 174.184 20.027 177.302 20.027C180.42 20.027 182.948 17.4992 182.948 14.3813C182.948 11.2633 180.42 8.73552 177.302 8.73552C177.207 8.73552 177.112 8.73786 177.017 8.74253V7.31125C177.112 7.30751 177.206 7.30518 177.302 7.30518C181.21 7.30518 184.378 10.4731 184.378 14.3808C184.378 18.2884 181.21 21.4564 177.302 21.4564C173.395 21.4564 170.227 18.2884 170.227 14.3808C170.227 13.4183 170.419 12.5012 170.767 11.6653L172.08 12.236Z" fill="url(#paint3_linear_641_4269)"/>
<path d="M152.545 19.1579C153.416 19.7076 154.447 20.027 155.554 20.027C158.672 20.027 161.199 17.4992 161.199 14.3813C161.199 11.2633 158.672 8.73552 155.554 8.73552C155.458 8.73552 155.363 8.73786 155.269 8.74253V7.31125C155.363 7.30751 155.458 7.30518 155.554 7.30518C159.461 7.30518 162.629 10.4731 162.629 14.3808C162.629 18.2884 159.461 21.4564 155.554 21.4564C154.189 21.4564 152.916 21.0702 151.836 20.4015L152.545 19.1579Z" fill="url(#paint4_linear_641_4269)"/>
<path d="M128.903 17.5558C129.919 19.0473 131.631 20.027 133.572 20.027C136.69 20.027 139.218 17.4992 139.218 14.3813C139.218 11.2633 136.69 8.73552 133.572 8.73552C133.476 8.73552 133.381 8.73786 133.287 8.74253V7.31125C133.381 7.30751 133.477 7.30518 133.572 7.30518C137.48 7.30518 140.648 10.4731 140.648 14.3808C140.648 18.2884 137.48 21.4564 133.572 21.4564C131.154 21.4564 129.02 20.2437 127.744 18.394L128.903 17.5558Z" fill="url(#paint5_linear_641_4269)"/>
<path d="M170.14 26.6062H184.463C185.362 26.6062 186.091 27.3351 186.091 28.2341C186.091 29.133 185.362 29.8619 184.463 29.8619H170.14C169.241 29.8619 168.512 29.133 168.512 28.2341C168.512 27.3351 169.241 26.6062 170.14 26.6062Z" fill="url(#paint6_linear_641_4269)"/>
<path d="M148.296 26.6062H162.619C163.518 26.6062 164.247 27.3351 164.247 28.2341C164.247 29.133 163.518 29.8619 162.619 29.8619H148.296C147.397 29.8619 146.668 29.133 146.668 28.2341C146.668 27.3351 147.397 26.6062 148.296 26.6062Z" fill="url(#paint7_linear_641_4269)"/>
<path d="M140.775 29.8615H126.452C125.553 29.8615 124.824 29.1325 124.824 28.2336C124.824 27.3347 125.553 26.6057 126.452 26.6057H140.775C141.674 26.6057 142.403 27.3347 142.403 28.2336C142.403 29.1325 141.674 29.8615 140.775 29.8615Z" fill="url(#paint8_linear_641_4269)"/>
<path d="M170.14 31.6707H184.463C185.362 31.6707 186.091 32.3996 186.091 33.2985V42.8846C186.091 43.7835 185.362 44.5125 184.463 44.5125H170.14C169.241 44.5125 168.512 43.7835 168.512 42.8846V33.2985C168.512 32.3991 169.241 31.6707 170.14 31.6707Z" fill="url(#paint9_linear_641_4269)"/>
<path d="M148.296 31.6707H162.619C163.518 31.6707 164.247 32.3996 164.247 33.2985V42.8846C164.247 43.7835 163.518 44.5125 162.619 44.5125H148.296C147.397 44.5125 146.668 43.7835 146.668 42.8846V33.2985C146.668 32.3991 147.397 31.6707 148.296 31.6707Z" fill="url(#paint10_linear_641_4269)"/>
<path d="M126.452 31.6707H140.775C141.674 31.6707 142.403 32.3996 142.403 33.2985V42.8846C142.403 43.7835 141.674 44.5125 140.775 44.5125H126.452C125.553 44.5125 124.824 43.7835 124.824 42.8846V33.2985C124.825 32.3991 125.553 31.6707 126.452 31.6707Z" fill="url(#paint11_linear_641_4269)"/>
<path d="M63.1712 135.688H59.2715V177.861H63.1712V135.688Z" fill="#7D97F4"/>
<path d="M44.1426 178.673H78.2976V177.687C78.2976 176.83 77.6028 176.135 76.7459 176.135H45.6943C44.8374 176.135 44.1426 176.83 44.1426 177.687V178.673Z" fill="#7D97F4"/>
<path d="M39.0742 134.225C39.0742 136.531 40.9613 138.418 43.2676 138.418H77.8234C80.1298 138.418 82.0173 136.531 82.0173 134.225V130.433C82.0173 128.127 80.1302 126.239 77.8234 126.239H43.2676C40.9613 126.239 39.0742 128.127 39.0742 130.433V134.225Z" fill="#7D97F4"/>
<path d="M90.0086 107.569C90.0086 107.569 95.8033 108.468 102.318 112.823C103.344 113.508 103.906 114.703 103.751 115.927C102.971 122.106 99.7632 142.107 89.1862 161.642C88.6287 162.672 88.4685 163.872 88.7141 165.017L90.5517 173.568L93.9597 176.764H85.182L79.3377 160.948L81.837 160.158C83.7745 159.545 85.1039 157.763 85.139 155.731L85.4322 138.765C85.1819 131.206 90.067 125.991 90.067 125.991L76.0488 125.308L90.0086 107.569Z" fill="url(#paint12_linear_641_4269)"/>
<path d="M97.3876 178.307C98.1871 179.353 88.784 180.734 84.033 178.445C84.033 178.445 77.4473 166.987 77.4473 161.088C77.4473 161.088 77.9698 159.885 81.8368 160.158C81.8368 160.158 84.048 173.724 86.3828 175.244C88.7177 176.764 92.9154 175.398 92.9154 175.398C92.9154 175.398 96.208 176.763 97.3876 178.307Z" fill="url(#paint13_linear_641_4269)"/>
<path d="M77.8223 126.239C77.897 126.11 92.9149 124.433 92.9149 124.433C92.9149 124.433 92.4237 129 93.9595 135.286C95.4954 141.572 117.546 168.806 117.546 168.806L115.234 176.135C122.382 178.625 129.414 179.023 136.333 177.404L122.005 168.806C122.005 168.806 108.595 123.108 100.381 114.956L85.327 109.748L77.8223 126.239Z" fill="url(#paint14_linear_641_4269)"/>
<path d="M44.1426 99.6492C44.1426 99.6492 35.49 112.519 34.7797 118.39C34.0694 124.261 37.1501 126.646 46.2286 127.039C55.3075 127.432 79.5444 127.426 79.5444 127.426L100.23 109.748C100.23 109.748 85.1556 104.368 81.2363 102.847C77.317 101.326 44.1426 99.6492 44.1426 99.6492Z" fill="url(#paint15_linear_641_4269)"/>
<path d="M116.108 173.667C116.108 173.667 113.619 176.077 115.3 178.76C115.3 178.76 135.018 182.255 140.372 180.669C140.372 180.669 139.26 178.132 133.232 175.244L133.676 175.585C134.239 176.017 133.909 176.918 133.2 176.877C129.228 176.651 121.008 175.923 116.108 173.667Z" fill="url(#paint16_linear_641_4269)"/>
<path d="M67.5432 97.9455C67.5432 97.9455 77.6192 88.351 82.5794 81.9959C85.2603 78.5608 86.1022 74.0387 84.8624 69.8611C82.5981 62.2321 78.5737 54.3304 78.2066 53.1009C77.6439 51.2157 66.3459 51.2942 66.3459 51.2942C66.3459 51.2942 44.1137 65.7228 35.3789 90.1642L45.1891 93.2183C45.1891 93.2183 50.9941 83.4795 56.7295 77.2879C56.7295 77.2879 46.8049 90.3982 46.4556 95.7656L67.5432 97.9455Z" fill="url(#paint17_linear_641_4269)"/>
<path d="M79.5724 42.5658C79.4543 42.9576 76.5053 52.7333 76.2751 52.9364C76.0444 53.1391 69.808 53.4748 66.873 51.4687L71.8529 41.0439L79.5724 42.5658Z" fill="url(#paint18_linear_641_4269)"/>
<path d="M74.7296 22.0336C74.7296 22.0336 80.0531 24.2816 83.6726 31.9741C87.2921 39.6666 84.5893 43.2184 81.1939 43.7059C77.7985 44.1935 72.7211 44.1192 67.35 39.1501C61.9793 34.1806 67.8094 19.369 74.7296 22.0336Z" fill="url(#paint19_linear_641_4269)"/>
<path d="M70.9594 35.0429C70.9594 35.0429 66.9429 23.7884 76.9213 23.6553L79.2692 25.2962C79.2692 25.2962 82.9303 19.0565 76.9213 16.0777C70.9122 13.0988 61.9458 15.7512 59.3886 23.8467C56.8315 31.9422 58.3282 37.17 62.5828 41.0436C66.8369 44.9171 68.5904 40.5252 68.5904 40.5252C68.5904 40.5252 66.2737 36.9024 67.2166 34.9645C68.1598 33.0261 70.335 35.3656 70.335 35.3656L70.9594 35.0429Z" fill="url(#paint20_linear_641_4269)"/>
<path d="M69.8414 36.2962C69.8414 36.2962 67.8105 30.4987 65.1015 32.8074C62.3926 35.1161 67.3033 38.1627 69.2259 39.1494L69.8414 36.2962Z" fill="url(#paint21_linear_641_4269)"/>
<path d="M88.0711 98.6574L80.6682 91.5221L70.427 95.8486C70.427 95.8486 60.2329 97.4279 54.3985 95.8486C48.5641 94.2693 48.5641 94.2693 48.5641 94.2693L35.3795 90.1646L33.309 96.0167C32.7832 97.5026 33.3118 99.152 34.5964 100.065C35.7372 100.876 37.0742 101.766 37.9264 102.139C39.6626 102.899 80.7275 101.614 80.7275 101.614L88.0711 98.6574Z" fill="url(#paint22_linear_641_4269)"/>
<path d="M60.172 25.1154C61.4548 23.8046 60.6212 21.5907 58.8089 21.3082C52.9591 20.3957 44.0408 21.3269 40.2947 33.8488C36.0751 47.9543 33.3279 55.006 30.5088 56.244C28.6577 57.057 28.5386 59.6268 30.3832 60.4547C31.7467 61.0669 33.6992 61.2841 36.4936 60.6695C58.0491 55.9274 52.6467 32.8032 60.172 25.1154Z" fill="url(#paint23_linear_641_4269)"/>
<path d="M60.0525 102.022C60.0851 102.023 60.1183 102.024 60.151 102.024L103.095 101.977C104.156 101.976 105.016 101.115 105.015 100.053C105.014 98.9914 104.149 98.114 103.091 98.1331L60.1468 98.1798C59.0853 98.1808 58.2256 99.0423 58.2266 100.104C58.228 101.133 59.0368 101.972 60.0525 102.022Z" fill="url(#paint24_linear_641_4269)"/>
<path d="M141.701 63.031H105.937C103.299 63.031 100.897 64.5534 99.772 66.9396L83.2383 101.998H127.684C129.384 101.998 130.911 100.959 131.536 99.378L144.357 66.9363C145.098 65.0624 143.717 63.031 141.701 63.031Z" fill="url(#paint25_linear_641_4269)"/>
<path d="M116.504 81.0066C115.729 83.4144 116.301 85.753 117.783 86.2297C119.264 86.7065 121.093 85.1412 121.868 82.733C122.643 80.3253 122.071 77.9867 120.59 77.5099C119.108 77.0336 117.279 78.5989 116.504 81.0066Z" fill="#BDD0FB"/>
<path d="M0.0322315 103.591C-0.0681682 103.104 0.0686609 102.6 0.40535 102.218C0.742039 101.835 1.24357 101.614 1.77219 101.614H180.976C181.672 101.614 182.319 101.947 182.694 102.496C183.069 103.045 183.119 103.735 182.827 104.328L180.885 108.267C180.441 109.17 179.477 109.747 178.417 109.747H3.00173C2.01548 109.747 1.16792 109.092 0.980661 108.184L0.0322315 103.591Z" fill="#91B3FA"/>
<path d="M170.932 186.628C171.139 186.628 171.35 186.586 171.552 186.496C172.35 186.145 172.719 185.199 172.375 184.382L139.393 105.934C139.05 105.118 138.126 104.741 137.327 105.092C136.529 105.443 136.16 106.39 136.503 107.206L169.486 185.654C169.742 186.263 170.322 186.628 170.932 186.628Z" fill="#91B3FA"/>
<path d="M133.777 186.628C134.387 186.628 134.967 186.264 135.223 185.654L168.205 107.206C168.548 106.39 168.18 105.444 167.382 105.092C166.585 104.741 165.659 105.118 165.316 105.934L132.333 184.382C131.99 185.199 132.359 186.145 133.157 186.496C133.359 186.586 133.57 186.628 133.777 186.628Z" fill="#91B3FA"/>
<path d="M41.0542 186.628C41.2616 186.628 41.4722 186.586 41.6748 186.496C42.4729 186.145 42.8413 185.199 42.4981 184.382L9.51565 105.934C9.17242 105.118 8.24827 104.741 7.44974 105.092C6.65168 105.443 6.28324 106.39 6.62647 107.206L39.6089 185.654C39.8648 186.263 40.4448 186.628 41.0542 186.628Z" fill="#91B3FA"/>
<path d="M3.897 186.628C4.5064 186.628 5.08637 186.264 5.34227 185.654L38.3247 107.206C38.668 106.39 38.2995 105.444 37.5015 105.092C36.7043 104.741 35.7788 105.118 35.4351 105.934L2.45264 184.382C2.10941 185.199 2.47785 186.145 3.27591 186.496C3.47858 186.586 3.68966 186.628 3.897 186.628Z" fill="#91B3FA"/>
<defs>
<linearGradient id="paint0_linear_641_4269" x1="168.514" y1="14.0937" x2="186.092" y2="14.0937" gradientUnits="userSpaceOnUse">
<stop stop-color="#DAE3FE"/>
<stop offset="1" stop-color="#E9EFFD"/>
</linearGradient>
<linearGradient id="paint1_linear_641_4269" x1="146.668" y1="14.0937" x2="164.246" y2="14.0937" gradientUnits="userSpaceOnUse">
<stop stop-color="#DAE3FE"/>
<stop offset="1" stop-color="#E9EFFD"/>
</linearGradient>
<linearGradient id="paint2_linear_641_4269" x1="124.824" y1="14.3813" x2="142.403" y2="14.3813" gradientUnits="userSpaceOnUse">
<stop stop-color="#DAE3FE"/>
<stop offset="1" stop-color="#E9EFFD"/>
</linearGradient>
<linearGradient id="paint3_linear_641_4269" x1="165.332" y1="3.02189" x2="195.976" y2="32.1035" gradientUnits="userSpaceOnUse">
<stop stop-color="#D74763"/>
<stop offset="1" stop-color="#FA7790"/>
</linearGradient>
<linearGradient id="paint4_linear_641_4269" x1="145.556" y1="4.79028" x2="172.758" y2="30.6062" gradientUnits="userSpaceOnUse">
<stop stop-color="#D74763"/>
<stop offset="1" stop-color="#FA7790"/>
</linearGradient>
<linearGradient id="paint5_linear_641_4269" x1="123.523" y1="4.84421" x2="150.726" y2="30.6603" gradientUnits="userSpaceOnUse">
<stop stop-color="#D74763"/>
<stop offset="1" stop-color="#FA7790"/>
</linearGradient>
<linearGradient id="paint6_linear_641_4269" x1="168.512" y1="28.2338" x2="186.091" y2="28.2338" gradientUnits="userSpaceOnUse">
<stop stop-color="#DAE3FE"/>
<stop offset="1" stop-color="#E9EFFD"/>
</linearGradient>
<linearGradient id="paint7_linear_641_4269" x1="146.668" y1="28.2338" x2="164.246" y2="28.2338" gradientUnits="userSpaceOnUse">
<stop stop-color="#DAE3FE"/>
<stop offset="1" stop-color="#E9EFFD"/>
</linearGradient>
<linearGradient id="paint8_linear_641_4269" x1="124.824" y1="28.2338" x2="142.403" y2="28.2338" gradientUnits="userSpaceOnUse">
<stop stop-color="#DAE3FE"/>
<stop offset="1" stop-color="#E9EFFD"/>
</linearGradient>
<linearGradient id="paint9_linear_641_4269" x1="168.512" y1="38.0912" x2="186.091" y2="38.0912" gradientUnits="userSpaceOnUse">
<stop stop-color="#DAE3FE"/>
<stop offset="1" stop-color="#E9EFFD"/>
</linearGradient>
<linearGradient id="paint10_linear_641_4269" x1="146.668" y1="38.0912" x2="164.246" y2="38.0912" gradientUnits="userSpaceOnUse">
<stop stop-color="#DAE3FE"/>
<stop offset="1" stop-color="#E9EFFD"/>
</linearGradient>
<linearGradient id="paint11_linear_641_4269" x1="124.824" y1="38.0912" x2="142.403" y2="38.0912" gradientUnits="userSpaceOnUse">
<stop stop-color="#DAE3FE"/>
<stop offset="1" stop-color="#E9EFFD"/>
</linearGradient>
<linearGradient id="paint12_linear_641_4269" x1="102.832" y1="135.669" x2="55.6674" y2="163.921" gradientUnits="userSpaceOnUse">
<stop stop-color="#FF928E"/>
<stop offset="1" stop-color="#FEB3B1"/>
</linearGradient>
<linearGradient id="paint13_linear_641_4269" x1="86.8112" y1="160.234" x2="90.8894" y2="222.768" gradientUnits="userSpaceOnUse">
<stop stop-color="#09005D"/>
<stop offset="1" stop-color="#1A0F91"/>
</linearGradient>
<linearGradient id="paint14_linear_641_4269" x1="136.333" y1="144.061" x2="77.8221" y2="144.061" gradientUnits="userSpaceOnUse">
<stop stop-color="#FF928E"/>
<stop offset="1" stop-color="#FEB3B1"/>
</linearGradient>
<linearGradient id="paint15_linear_641_4269" x1="79.8562" y1="161.116" x2="69.3447" y2="122.355" gradientUnits="userSpaceOnUse">
<stop stop-color="#4042E2"/>
<stop offset="1" stop-color="#4F52FF"/>
</linearGradient>
<linearGradient id="paint16_linear_641_4269" x1="126.166" y1="157.667" x2="130.244" y2="220.201" gradientUnits="userSpaceOnUse">
<stop stop-color="#09005D"/>
<stop offset="1" stop-color="#1A0F91"/>
</linearGradient>
<linearGradient id="paint17_linear_641_4269" x1="71.3637" y1="59.2621" x2="40.2733" y2="126.929" gradientUnits="userSpaceOnUse">
<stop stop-color="#D74763"/>
<stop offset="1" stop-color="#FA7790"/>
</linearGradient>
<linearGradient id="paint18_linear_641_4269" x1="72.3112" y1="52.8648" x2="75.2377" y2="34.0857" gradientUnits="userSpaceOnUse">
<stop stop-color="#FF928E"/>
<stop offset="1" stop-color="#FEB3B1"/>
</linearGradient>
<linearGradient id="paint19_linear_641_4269" x1="-188.71" y1="374.531" x2="-173.3" y2="354.684" gradientUnits="userSpaceOnUse">
<stop stop-color="#FF928E"/>
<stop offset="1" stop-color="#FEB3B1"/>
</linearGradient>
<linearGradient id="paint20_linear_641_4269" x1="38.1468" y1="-4.62215" x2="81.5066" y2="40.4896" gradientUnits="userSpaceOnUse">
<stop stop-color="#09005D"/>
<stop offset="1" stop-color="#1A0F91"/>
</linearGradient>
<linearGradient id="paint21_linear_641_4269" x1="-193.103" y1="371.12" x2="-177.693" y2="351.273" gradientUnits="userSpaceOnUse">
<stop stop-color="#FF928E"/>
<stop offset="1" stop-color="#FEB3B1"/>
</linearGradient>
<linearGradient id="paint22_linear_641_4269" x1="74.8355" y1="49.3346" x2="61.7602" y2="93.6972" gradientUnits="userSpaceOnUse">
<stop stop-color="#FF928E"/>
<stop offset="1" stop-color="#FEB3B1"/>
</linearGradient>
<linearGradient id="paint23_linear_641_4269" x1="18.8761" y1="13.9012" x2="62.2357" y2="59.0129" gradientUnits="userSpaceOnUse">
<stop stop-color="#09005D"/>
<stop offset="1" stop-color="#1A0F91"/>
</linearGradient>
<linearGradient id="paint24_linear_641_4269" x1="52.7665" y1="90.6115" x2="86.8567" y2="101.792" gradientUnits="userSpaceOnUse">
<stop stop-color="#09005D"/>
<stop offset="1" stop-color="#1A0F91"/>
</linearGradient>
<linearGradient id="paint25_linear_641_4269" x1="99.5974" y1="68.2595" x2="124.148" y2="94.2077" gradientUnits="userSpaceOnUse">
<stop stop-color="#09005D"/>
<stop offset="1" stop-color="#1A0F91"/>
</linearGradient>
</defs>
</svg>
