<svg width="605" height="600" viewBox="0 0 605 600" fill="none" xmlns="http://www.w3.org/2000/svg">
<path d="M551.69 392.685C495.822 524.23 347.005 597.923 217.95 578.045C196.95 574.81 139.378 565.175 88.4062 519.718C-9.71786 432.212 -30.7026 258.937 48.4513 136.826C106.061 47.9505 209.333 -2.42981 307.462 0.090232C328.599 0.632977 409.604 3.97848 480.794 62.6799C491.25 71.302 514.313 91.7906 535.098 124.294C583.904 200.619 588.099 306.955 551.69 392.685Z" fill="url(#paint0_linear_649_185)"/>
<path d="M183.331 569.011C183.331 569.011 143.708 612.694 110.616 594.232C84.0214 579.394 121.806 583.271 153.856 576.261C156.372 575.71 155.713 571.951 153.161 572.289C128.084 575.614 89.821 578.331 83.1749 565.256C73.1421 545.517 82.8714 551.919 113.406 554.77C143.941 557.621 149.825 550.082 129.893 545.385C109.962 540.69 78.2543 551.076 70.8681 541.418C63.482 531.76 59.4446 512.587 56.5006 504.342C53.5566 496.097 94.5101 483.725 105.582 494.549C116.654 505.373 125.645 529.533 138.784 533.944C151.923 538.355 137.789 516.984 129.075 505.953C120.361 494.922 116.906 486.724 134.316 489.355C151.727 491.986 160.93 513.235 162.765 529.096C164.6 544.957 170.732 553.828 170.455 545.981C170.177 538.134 167.33 514.07 161.765 506.835C156.2 499.6 195.924 508.429 183.331 569.011Z" fill="#91B3FA"/>
<path d="M180.106 569.427C179.932 569.493 179.728 569.464 179.577 569.332C145.568 539.579 88.5272 517.953 87.9551 517.738C87.6856 517.637 87.5495 517.337 87.6505 517.067C87.7513 516.799 88.0518 516.662 88.3213 516.763C88.8953 516.978 146.11 538.669 180.264 568.549C180.48 568.738 180.502 569.067 180.312 569.283C180.254 569.35 180.183 569.398 180.106 569.427Z" fill="url(#paint1_linear_649_185)"/>
<path d="M207.251 596.91C207.251 596.91 134.89 599.298 122.896 554.352C113.257 518.23 142.118 554.853 175.679 577.119C178.313 578.867 181.065 575.074 178.586 573.113C154.232 553.846 119.148 522.435 124.998 505.406C133.828 479.698 136.496 493.744 160.069 523.099C183.641 552.455 195.314 551.2 182.427 529.617C169.539 508.033 133.295 488.954 135.499 474.191C137.704 459.428 151.157 439.49 155.911 429.851C160.665 420.211 206.558 445.747 206.475 464.754C206.391 483.762 192.773 512.329 200.109 527.681C207.445 543.033 214.211 512.315 216.491 495.208C218.771 478.102 223.048 468.053 235.602 485.65C248.156 503.246 237.285 529.512 224.87 544.68C212.455 559.848 209.873 572.833 216.554 565.884C223.234 558.936 242.016 535.868 243.641 524.781C245.266 513.694 271.418 556.257 207.251 596.91Z" fill="#BDD0FB"/>
<path d="M204.129 594.423C203.922 594.326 203.774 594.121 203.762 593.876C200.938 538.475 171.273 469.713 170.973 469.025C170.832 468.701 170.981 468.325 171.305 468.183C171.627 468.043 172.005 468.191 172.146 468.515C172.447 469.205 202.203 538.175 205.038 593.812C205.057 594.163 204.785 594.464 204.433 594.482C204.324 594.488 204.221 594.466 204.129 594.423Z" fill="url(#paint2_linear_649_185)"/>
<path d="M530.807 376.731L24.7146 362.926C14.0722 362.636 5.5957 353.925 5.5957 343.279V133.102C5.5957 122.484 14.2833 113.919 24.9002 114.07L525.263 121.192C539.283 121.392 550.543 132.813 550.543 146.834V357.526C550.543 368.342 541.619 377.026 530.807 376.731Z" fill="#91B3FA"/>
<path opacity="0.14" d="M518.76 363.335L36.8292 350.86C26.6949 350.598 18.623 342.726 18.623 333.106V143.18C18.623 133.585 26.8958 125.846 37.006 125.982L513.481 132.418C526.831 132.598 537.554 142.919 537.554 155.589V345.98C537.554 355.754 529.056 363.601 518.76 363.335Z" fill="white"/>
<path d="M74.9082 361.883L107.338 419.44C109.531 423.333 115.294 422.814 116.756 418.591L136.392 361.883H74.9082Z" fill="#91B3FA"/>
<path d="M273.408 130.265C273.403 130.265 273.398 130.265 273.393 130.265L212.632 129.445C212.03 129.436 211.549 128.941 211.557 128.339C211.564 127.737 212.052 127.284 212.662 127.264L273.423 128.084C274.025 128.093 274.507 128.588 274.499 129.19C274.491 129.787 274.004 130.265 273.408 130.265Z" fill="white"/>
<path d="M489.162 220.953L67.8961 211.63C66.4521 211.599 65.2969 210.391 65.3288 208.947L65.7386 190.428C65.7705 188.984 66.9782 187.829 68.4222 187.861L489.688 197.183C491.132 197.215 492.287 198.423 492.256 199.867L491.846 218.386C491.814 219.83 490.606 220.985 489.162 220.953Z" fill="white"/>
<path d="M487.412 300.007L66.1461 290.684C64.7021 290.652 63.5469 289.445 63.5788 288.001L63.9886 269.482C64.0205 268.038 65.2282 266.882 66.6722 266.914L487.938 276.237C489.382 276.269 490.537 277.477 490.505 278.921L490.096 297.44C490.064 298.884 488.856 300.039 487.412 300.007Z" fill="white"/>
<path d="M220.723 255.366L66.1937 251.946C65.1951 251.924 64.3962 251.089 64.4184 250.09L64.864 229.952C64.8861 228.953 65.7211 228.154 66.7197 228.176L221.249 231.596C222.248 231.618 223.047 232.453 223.025 233.452L222.579 253.59C222.557 254.589 221.722 255.388 220.723 255.366Z" fill="white"/>
<path d="M489.079 261.305L238.758 255.765C237.76 255.743 236.961 254.908 236.983 253.909L237.429 233.771C237.451 232.772 238.286 231.973 239.284 231.995L489.605 237.535C490.603 237.557 491.402 238.392 491.38 239.391L490.934 259.529C490.912 260.528 490.077 261.327 489.079 261.305Z" fill="white"/>
<path d="M172.957 224.454L585.453 221.404C594.127 221.34 601.174 214.381 601.346 205.708L604.749 34.4949C604.921 25.8452 597.983 18.7275 589.332 18.6787L181.611 16.3778C170.187 16.3134 160.83 25.4354 160.602 36.857L157.191 208.49C157.016 217.301 164.145 224.52 172.957 224.454Z" fill="url(#paint3_linear_649_185)"/>
<path d="M453.72 219.536L426.371 265.898C424.521 269.034 419.835 268.518 418.712 265.054L403.635 218.541L453.72 219.536Z" fill="url(#paint4_linear_649_185)"/>
<g opacity="0.63">
<path d="M288.997 214.191C288.398 214.191 287.91 213.706 287.906 213.106C287.903 212.504 288.388 212.013 288.99 212.01L322.237 211.81C322.239 211.81 322.241 211.81 322.243 211.81C322.843 211.81 323.33 212.294 323.334 212.894C323.338 213.496 322.853 213.988 322.25 213.991L289.003 214.191C289.001 214.191 288.999 214.191 288.997 214.191Z" fill="white"/>
</g>
<g opacity="0.63">
<path d="M182.894 214.827C178.486 214.828 174.234 213.075 171.211 210.01C168.331 207.09 166.789 203.276 166.868 199.273C166.88 198.671 167.376 198.196 167.981 198.204C168.583 198.216 169.061 198.714 169.049 199.317C168.981 202.727 170.3 205.981 172.764 208.478C175.379 211.13 179.066 212.646 182.893 212.646C182.922 212.646 182.951 212.646 182.981 212.646L277.271 212.079C277.274 212.079 277.276 212.079 277.278 212.079C277.877 212.079 278.365 212.563 278.368 213.164C278.372 213.766 277.887 214.257 277.284 214.26L182.993 214.827C182.961 214.827 182.927 214.827 182.894 214.827Z" fill="white"/>
</g>
<g opacity="0.63">
<path d="M168.285 184.099C168.277 184.099 168.27 184.099 168.262 184.099C167.66 184.087 167.182 183.589 167.194 182.987L168.1 137.398C168.112 136.803 168.598 136.329 169.19 136.329C169.198 136.329 169.205 136.329 169.213 136.329C169.815 136.341 170.293 136.839 170.281 137.442L169.375 183.031C169.363 183.625 168.877 184.099 168.285 184.099Z" fill="white"/>
</g>
<g opacity="0.63">
<path d="M436.159 28.3644C436.157 28.3644 436.155 28.3644 436.152 28.3644L386.642 28.0492C386.04 28.0456 385.555 27.5544 385.559 26.9515C385.562 26.3516 386.05 25.8682 386.649 25.8682C386.651 25.8682 386.653 25.8682 386.656 25.8682L436.166 26.1834C436.768 26.1871 437.253 26.6782 437.25 27.2811C437.246 27.8808 436.759 28.3644 436.159 28.3644Z" fill="white"/>
</g>
<g opacity="0.63">
<path d="M593.052 90.0371C593.044 90.0371 593.037 90.0371 593.029 90.0371C592.427 90.0251 591.948 89.5273 591.96 88.9247L592.884 42.4716C592.951 39.1255 591.665 35.9255 589.264 33.4605C586.696 30.8257 583.054 29.3006 579.271 29.2773L471.827 28.5929C471.225 28.5892 470.741 28.0981 470.744 27.4952C470.748 26.8953 471.236 26.4116 471.835 26.4116C471.837 26.4116 471.839 26.4116 471.842 26.4116L579.285 27.096C583.648 27.1237 587.854 28.8886 590.826 31.9388C593.637 34.8242 595.142 38.5808 595.065 42.5148L594.141 88.9685C594.129 89.5629 593.644 90.0371 593.052 90.0371Z" fill="white"/>
</g>
<path d="M547.413 88.033H210.48C208.985 88.033 207.762 86.8099 207.762 85.3152V66.1441C207.762 64.6494 208.985 63.4263 210.48 63.4263H547.413C548.908 63.4263 550.131 64.6494 550.131 66.1441V85.3152C550.131 86.8099 548.908 88.033 547.413 88.033Z" fill="white"/>
<path d="M547.413 169.869H210.48C208.985 169.869 207.762 168.647 207.762 167.152V147.981C207.762 146.486 208.985 145.263 210.48 145.263H547.413C548.908 145.263 550.131 146.486 550.131 147.981V167.152C550.131 168.647 548.908 169.869 547.413 169.869Z" fill="white"/>
<path d="M369.611 129.786H209.641C208.608 129.786 207.762 128.941 207.762 127.907V107.059C207.762 106.025 208.608 105.18 209.641 105.18H369.611C370.644 105.18 371.49 106.025 371.49 107.059V127.907C371.49 128.941 370.644 129.786 369.611 129.786Z" fill="white"/>
<path d="M548.251 129.786H388.282C387.248 129.786 386.402 128.941 386.402 127.907V107.059C386.402 106.025 387.248 105.18 388.282 105.18H548.251C549.285 105.18 550.131 106.025 550.131 107.059V127.907C550.131 128.941 549.285 129.786 548.251 129.786Z" fill="white"/>
<path d="M571.332 383.14C575.017 387.073 580.443 390.472 584.261 392.591C578.559 399.639 570.843 406.697 560.629 413.606L557.706 420.166L548.34 408.94C548.34 408.94 565.146 400.577 571.332 383.14Z" fill="url(#paint5_linear_649_185)"/>
<path d="M521.207 596.049C521.204 595.849 521.218 595.646 521.269 595.441C524.303 583.414 539.36 575.922 539.36 575.922L545.326 576.39C548.757 586.991 548.316 593.492 547.765 596.388C547.75 596.469 547.726 596.546 547.704 596.625C542.782 597.065 532.652 597.352 521.207 596.049Z" fill="url(#paint6_linear_649_185)"/>
<path d="M547.703 596.625C547.438 597.592 546.724 598.345 545.81 598.537C538.809 600.01 527.681 598.825 523.008 598.214C521.977 598.079 521.224 597.126 521.207 596.05C532.651 597.352 542.782 597.065 547.703 596.625Z" fill="url(#paint7_linear_649_185)"/>
<path d="M547.724 567.503L545.197 579.669C545.012 580.56 544.327 581.228 543.498 581.306C542.482 581.401 541.036 581.457 539.583 581.243C538.279 581.051 537.371 579.727 537.602 578.305L539.359 567.503H547.724Z" fill="url(#paint8_linear_649_185)"/>
<path d="M495.366 596.503C501.955 596.318 505.364 595.543 507.126 594.822C507.13 595.477 507.126 596.144 507.105 596.835C507.082 597.573 506.536 598.162 505.863 598.158L469.682 597.924C468.527 597.917 467.852 596.578 468.353 595.519C473.097 595.911 485.179 596.788 495.366 596.503Z" fill="url(#paint9_linear_649_185)"/>
<path d="M468.354 595.519C468.397 595.427 468.435 595.333 468.497 595.246C471.692 590.782 479.83 581.891 495.912 578.035L503.626 577.792C503.626 577.792 507.062 583.762 507.126 594.822C505.364 595.542 501.956 596.318 495.366 596.503C485.18 596.788 473.098 595.911 468.354 595.519Z" fill="url(#paint10_linear_649_185)"/>
<path d="M505.058 566.1C504.972 566.675 503.915 575.415 503.505 578.804C503.408 579.609 502.825 580.232 502.089 580.32C500.776 580.477 498.65 580.619 496.79 580.238C495.787 580.032 495.061 579.069 495.061 577.948V564.229L505.058 566.1Z" fill="url(#paint11_linear_649_185)"/>
<path d="M511.246 406.602C511.246 406.602 492.639 477.316 492.975 566.303C492.981 567.925 494.12 569.325 495.708 569.66C498.047 570.152 501.487 570.737 504.334 570.658C505.853 570.615 507.124 569.488 507.38 567.989C509.989 552.689 524.961 466.495 533.492 452.501C533.492 452.501 539.105 529.27 537.311 569.098C537.266 570.088 537.991 570.947 538.976 571.061C540.47 571.233 542.859 571.365 545.901 571.042C547.055 570.919 547.987 570.046 548.152 568.897C550.01 555.948 560.706 478.871 560.252 423.347C560.226 420.216 551.971 406.602 551.971 406.602H511.246Z" fill="url(#paint12_linear_649_185)"/>
<path d="M485.367 321.02C488.387 317.235 491.033 313.177 493.246 308.996C496.337 303.157 493.494 312.776 494.339 306.182C517.484 289.48 552.337 297.934 565.818 299.632C570.239 300.189 574.281 302.368 577.194 305.739C588.747 319.108 614.097 355.709 584.259 392.591C580.441 390.472 575.015 387.073 571.33 383.14C574.631 373.834 574.901 361.942 567.983 347.36C567.747 348.516 567.455 349.661 567.1 350.787C557.564 380.994 557.056 406.132 557.077 411.926C557.08 412.712 556.608 413.42 555.877 413.713C543.328 418.742 519.171 415.749 511.062 414.541C509.575 414.319 508.575 412.935 508.781 411.446C512.76 382.613 492.335 335.181 486.941 323.301C486.553 322.446 486.016 321.677 485.367 321.02Z" fill="url(#paint13_linear_649_185)"/>
<path d="M544.128 275.353L546.547 300.063C546.547 300.063 532.646 304.251 522.535 297.117L529.642 274.659L544.128 275.353Z" fill="url(#paint14_linear_649_185)"/>
<path d="M527.999 247.19C527.664 247.505 513.879 274.576 513.879 274.576L529.503 282.118L546.381 258.402C546.381 258.402 533.599 241.917 527.999 247.19Z" fill="url(#paint15_linear_649_185)"/>
<path d="M539.468 259.058C539.747 259.779 539.678 260.584 539.281 261.247L531.488 274.237C531.37 274.434 531.229 274.612 531.061 274.769C530.133 275.633 526.959 278.144 524.506 274.725C522.414 271.811 520.452 269.161 518.35 268.068C517.122 267.43 515.611 267.94 514.987 269.175C513.704 271.72 511.217 276.907 509.654 281.826C509.263 283.059 509.899 284.382 511.098 284.868C514.262 286.15 520.515 288.468 526.063 289.234C526.975 289.36 527.877 288.975 528.42 288.232C530.807 284.962 537.535 275.822 539.832 273.535C541.965 271.409 545.903 272.211 547.677 272.721C548.35 272.914 549.067 272.821 549.668 272.459C551.468 271.375 554.609 268.675 551.735 264.104C551.021 262.967 551.385 261.453 552.507 260.715C554.517 259.393 556.698 256.912 554.62 252.893C552.516 248.825 548.76 248.459 546.202 248.772C545.07 248.91 543.921 248.317 543.486 247.262C543.293 246.793 542.912 246.394 542.2 246.25C540.86 245.978 539.98 244.751 540.243 243.409C540.694 241.107 540.354 238.116 536.679 236.095C529.937 232.389 524.032 238.428 522.53 243.526C521.029 248.625 528.566 252.228 533.308 252.829C536.79 253.27 538.7 257.071 539.468 259.058Z" fill="url(#paint16_linear_649_185)"/>
<path d="M536.904 278.305C536.904 278.305 539.902 269.534 543.739 269.856C547.576 270.178 550.597 274 545.841 278.298C539.926 283.643 536.904 278.305 536.904 278.305Z" fill="url(#paint17_linear_649_185)"/>
<path d="M569.25 345.101C574.308 331.259 572.473 314.544 572.454 314.377L571.06 314.536C571.079 314.7 572.875 331.094 567.932 344.619L569.25 345.101Z" fill="url(#paint18_linear_649_185)"/>
<path d="M534.177 450.698C534.489 450.698 534.774 450.489 534.855 450.173C536.398 444.222 547.953 437.682 548.069 437.616C548.407 437.427 548.528 436.999 548.338 436.661C548.148 436.323 547.723 436.202 547.383 436.392C546.886 436.671 535.19 443.292 533.497 449.821C533.4 450.196 533.625 450.579 534 450.676C534.059 450.691 534.119 450.698 534.177 450.698Z" fill="url(#paint19_linear_649_185)"/>
<path d="M438.386 328.791C464.564 332.719 481.626 316.201 494.34 306.182C511.126 292.953 524.188 299.389 524.188 299.389L506.287 333.554C479.554 358.759 452.144 353.162 434.865 344.994C434.599 338.395 436.362 332.872 438.386 328.791Z" fill="url(#paint20_linear_649_185)"/>
<path d="M401.593 313.173L410.274 317.845C420.686 324.184 430.002 327.533 438.386 328.791C436.362 332.872 434.598 338.395 434.864 344.993C423.865 339.794 416.968 333.553 416.968 333.553C397.302 321.827 401.593 313.173 401.593 313.173Z" fill="url(#paint21_linear_649_185)"/>
<path d="M376.019 325.406C376.58 323.543 377.957 322.036 379.762 321.31L397.381 314.225C397.381 314.225 397.647 311.966 393.658 310.43C389.669 308.895 390.602 304.428 390.602 304.428C390.602 304.428 396.051 306.913 404.028 310.856C408.59 313.11 411.15 317.091 412.508 320.088L407.972 326.052C397.114 329.314 386.126 329.938 375.045 328.644L376.019 325.406Z" fill="url(#paint22_linear_649_185)"/>
<path d="M299.76 318.639L310.695 353.319C310.695 353.319 323.385 362.67 339.567 353.745C342.054 352.383 344.625 350.593 347.232 348.26C366.871 330.733 353.841 305.234 353.841 305.234C353.841 305.234 368.83 299.187 362.17 286.463C361.71 285.594 360.433 285.731 360.16 286.684C359.189 290.193 356.822 296.325 351.865 298.506C351.609 298.608 351.371 298.727 351.15 298.829C350.928 298.165 350.928 297.382 351.456 296.546C353.007 294.196 350.213 290.977 350.213 290.977C350.213 290.977 350.026 293.821 347.879 295.593C346.023 297.143 345.137 300.55 346.397 303.36C349.088 313.785 353.108 327.565 337.454 337.648C335.853 338.67 334.184 339.301 332.481 339.573C317.526 342.077 299.76 318.639 299.76 318.639Z" fill="url(#paint23_linear_649_185)"/>
<path d="M299.76 318.639L310.695 353.319C310.695 353.319 323.385 362.67 339.567 353.745L332.481 339.573C317.526 342.077 299.76 318.639 299.76 318.639Z" fill="url(#paint24_linear_649_185)"/>
<path d="M296.481 276.107C296.481 276.107 302.673 254.541 279.505 260.472C279.505 260.472 268.155 258.89 267.831 269.576C267.831 269.576 262.925 276.97 262.718 286.081C262.718 286.081 240.413 291.847 236.894 300.784C233.292 309.932 235.29 324.462 244.449 326.969C244.449 326.969 237.168 330.842 240.852 339.113C244.536 347.384 262.336 352.857 272.531 342.454C272.531 342.454 302.311 345.679 301.223 324.723C301.223 324.723 314.821 315.482 299.911 298.492C285 281.504 296.481 276.107 296.481 276.107Z" fill="url(#paint25_linear_649_185)"/>
<path d="M298.295 314.824C293.613 313.42 279.98 310.828 267.013 322.795C264.813 324.825 263.915 327.908 264.699 330.796C268.182 343.618 277.371 381.501 269.314 397.893C269.314 397.893 283.513 413.545 299.004 400.93C299.004 400.93 305.954 370.638 315.057 357.34C321.342 348.16 305.035 322.865 300.91 316.754C300.285 315.829 299.364 315.144 298.295 314.824Z" fill="url(#paint26_linear_649_185)"/>
<path d="M285.367 289.349C285.367 289.349 278.443 308.935 277.922 317.576C277.922 317.576 285.575 321.056 292.786 315.182C292.786 315.182 293.543 295.619 294.636 292.116L285.367 289.349Z" fill="url(#paint27_linear_649_185)"/>
<path d="M296.471 270.001C296.471 270.001 315.173 294.914 304.523 302.529C293.873 310.143 280.559 292.439 280.559 292.439C280.559 292.439 276.032 278.669 280.314 273.861C284.597 269.053 296.471 270.001 296.471 270.001Z" fill="url(#paint28_linear_649_185)"/>
<path d="M287.946 264.143C287.946 264.143 296.31 265.918 297.565 269.655C298.819 273.391 285.939 277.186 282.312 277.442L279.743 292.698C279.743 292.698 270.756 278.614 273.989 270.283C277.221 261.951 287.946 264.143 287.946 264.143Z" fill="url(#paint29_linear_649_185)"/>
<path d="M284.026 290.492C284.026 290.492 276.786 282.496 274.108 287.883C271.43 293.27 280.67 297.049 283.775 294.363L284.026 290.492Z" fill="url(#paint30_linear_649_185)"/>
<path d="M317.086 464.53C317.033 465.905 319.448 476.813 320.762 482.631C321.291 484.972 320.922 487.422 319.73 489.505L274.224 566.094C273.673 567.021 273.273 568.024 273.029 569.074C272.195 572.668 270.466 581.477 271.368 589.49L273.723 594.379L263.541 592.068L261.326 564.726L264.209 562.968C266.698 561.45 268.637 559.181 269.747 556.484C273.862 546.489 284.081 521.046 286.714 508.646C289.708 494.554 305.357 483.108 305.357 483.108L302.608 476.608L317.086 464.53Z" fill="url(#paint31_linear_649_185)"/>
<path d="M252.227 582.659C252.227 582.659 257.725 573.942 258.372 570.55C259.018 567.156 260.819 561.165 264.209 562.968C264.209 562.968 265.806 579.451 265.256 585.892C264.705 592.332 272.536 592.125 272.536 592.125C272.536 592.125 274.694 592.428 276.275 594.008C277.367 595.099 276.586 596.992 275.046 597.091C272.483 597.257 268.413 597.3 264.138 596.474C262.645 596.185 261.537 594.914 261.447 593.396L260.319 574.426L253.383 583.183L252.227 582.659Z" fill="url(#paint32_linear_649_185)"/>
<path d="M289.9 476.729C289.9 476.729 288.296 545.238 288.078 554.968C287.861 564.698 289.615 586.261 299.369 592.706L295.124 595.848C295.124 595.848 289.82 591.34 284.638 582.664C278.817 572.917 277.056 571.136 277.056 571.136L278.988 567.18C279.834 565.448 280.082 563.489 279.693 561.601C277.588 551.4 270.556 517.467 268.638 510.159C266.374 501.533 266.213 490.014 274.09 480.372C281.968 470.729 289.9 476.729 289.9 476.729Z" fill="url(#paint33_linear_649_185)"/>
<path d="M280.893 598.936C280.591 598.939 280.334 598.722 280.291 598.423C279.966 596.139 278.615 586.982 277.509 584.611C276.242 581.896 272.105 570.467 277.511 569.497C277.511 569.497 290.952 589.133 293.532 591.781C296.112 594.429 299.369 592.706 299.369 592.706C299.369 592.706 301.883 593.449 303.778 595.872C304.68 597.024 303.84 598.717 302.376 598.731L293.323 598.818C290.694 598.843 288.329 597.245 287.351 594.804C285.758 590.824 283.02 584.986 279.83 582.396L281.488 598.27C281.525 598.624 281.249 598.933 280.893 598.936Z" fill="url(#paint34_linear_649_185)"/>
<path d="M301.145 393.543C301.145 393.543 299.105 400.046 302.239 410.756L321.681 478.65C321.987 479.717 321.411 480.834 320.367 481.208C314.551 483.296 295.433 489.195 269.336 487.396C268.022 487.306 266.92 486.375 266.635 485.089C264.915 477.349 259.048 450.941 257.84 445.515C253.237 424.839 248.097 402.541 270.707 389.059C281.127 393.522 290.846 396.153 301.145 393.543Z" fill="url(#paint35_linear_649_185)"/>
<path d="M238.293 367.294C238.293 367.294 238.145 367.304 238.145 367.286C240.594 365.362 253.601 365.292 253.601 365.292C253.601 365.292 263.048 351.614 266.249 348.22C266.353 348.115 266.459 348.011 266.546 347.923C266.616 347.853 266.686 347.783 266.79 347.696C267.962 346.611 269.205 345.527 270.552 344.407C272.037 343.166 273.227 341.573 273.945 339.772C278.947 327.178 274.994 318.939 265.898 324.222C265.898 324.222 246.674 340.191 239.207 362.825C239.119 363.106 239.049 363.368 238.96 363.631C238.663 364.68 238.366 365.677 238.105 366.604C238.086 366.674 238.162 366.774 238.145 366.844C238.092 367.001 238.346 367.137 238.293 367.294Z" fill="url(#paint36_linear_649_185)"/>
<path d="M285.835 375.514C285.835 375.514 263.494 388.141 255.955 377.36C254.39 375.121 253.214 367.413 253.6 365.292C246.903 361.911 241.863 366.881 238.103 366.604C237.117 371.772 236.638 376.803 239.675 382.358C252.88 406.513 288.792 381.023 288.792 381.023L285.835 375.514Z" fill="url(#paint37_linear_649_185)"/>
<path d="M283.152 391.488L295.346 348.906C295.484 348.423 295.896 348.071 296.396 348.012C298.605 347.755 305.006 347.031 312.398 346.406C321.3 345.653 331.639 345.043 337.817 345.562C338.696 345.635 339.226 346.565 338.836 347.355C335.322 354.462 320.871 383.375 313.634 392.847C313.395 393.16 313.024 393.344 312.629 393.34L284.338 393.077C283.516 393.069 282.926 392.28 283.152 391.488Z" fill="url(#paint38_linear_649_185)"/>
<path d="M313.662 342.714L322.502 341.241C322.973 341.163 323.359 341.613 323.209 342.066L322.334 344.718C322.258 344.949 322.057 345.116 321.816 345.148L313.308 346.284C312.869 346.343 312.506 345.943 312.607 345.511L313.149 343.196C313.207 342.946 313.409 342.757 313.662 342.714Z" fill="#91B3FA"/>
<path d="M307.043 350.198L307.772 346.405C307.845 346.025 308.159 345.737 308.544 345.698L326.4 343.886C327.001 343.825 327.482 344.376 327.341 344.963L326.205 349.69C326.115 350.068 325.786 350.342 325.397 350.361L307.949 351.239C307.381 351.268 306.936 350.757 307.043 350.198Z" fill="#91B3FA"/>
<path d="M286.098 381.201C286.098 381.201 284.399 374.216 285.085 371.738C285.77 369.26 287.097 366.074 291.522 366.782C295.947 367.49 301.167 369.354 301.167 369.354C301.167 369.354 300.903 372.582 297.54 371.541L299.625 373.154C299.625 373.154 299.327 375.738 296.487 374.358L298.427 376.498C298.427 376.498 297.206 378.62 295.117 377.259C293.027 375.898 292.025 382.041 286.098 381.201Z" fill="url(#paint39_linear_649_185)"/>
<defs>
<linearGradient id="paint0_linear_649_185" x1="625.154" y1="589.122" x2="192.879" y2="210.882" gradientUnits="userSpaceOnUse">
<stop stop-color="#DAE3FE"/>
<stop offset="1" stop-color="#E9EFFD"/>
</linearGradient>
<linearGradient id="paint1_linear_649_185" x1="87.6172" y1="543.096" x2="180.441" y2="543.096" gradientUnits="userSpaceOnUse">
<stop stop-color="#DAE3FE"/>
<stop offset="1" stop-color="#E9EFFD"/>
</linearGradient>
<linearGradient id="paint2_linear_649_185" x1="170.92" y1="531.307" x2="205.039" y2="531.307" gradientUnits="userSpaceOnUse">
<stop stop-color="#DAE3FE"/>
<stop offset="1" stop-color="#E9EFFD"/>
</linearGradient>
<linearGradient id="paint3_linear_649_185" x1="601.937" y1="-148.987" x2="287.434" y2="234.522" gradientUnits="userSpaceOnUse">
<stop stop-color="#E1473D"/>
<stop offset="1" stop-color="#FA7790"/>
</linearGradient>
<linearGradient id="paint4_linear_649_185" x1="682.004" y1="-83.3236" x2="367.506" y2="300.18" gradientUnits="userSpaceOnUse">
<stop stop-color="#E1473D"/>
<stop offset="1" stop-color="#FA7790"/>
</linearGradient>
<linearGradient id="paint5_linear_649_185" x1="584.261" y1="401.653" x2="548.34" y2="401.653" gradientUnits="userSpaceOnUse">
<stop stop-color="#FEBBBA"/>
<stop offset="1" stop-color="#FF928E"/>
</linearGradient>
<linearGradient id="paint6_linear_649_185" x1="535.4" y1="514.251" x2="534.499" y2="613.349" gradientUnits="userSpaceOnUse">
<stop stop-color="#4F52FF"/>
<stop offset="1" stop-color="#4042E2"/>
</linearGradient>
<linearGradient id="paint7_linear_649_185" x1="480.711" y1="554.684" x2="578.701" y2="631.627" gradientUnits="userSpaceOnUse">
<stop stop-color="#09005D"/>
<stop offset="1" stop-color="#1A0F91"/>
</linearGradient>
<linearGradient id="paint8_linear_649_185" x1="540.651" y1="555.794" x2="545.796" y2="600.698" gradientUnits="userSpaceOnUse">
<stop stop-color="#FEBBBA"/>
<stop offset="1" stop-color="#FF928E"/>
</linearGradient>
<linearGradient id="paint9_linear_649_185" x1="463.302" y1="576.853" x2="561.293" y2="653.796" gradientUnits="userSpaceOnUse">
<stop stop-color="#09005D"/>
<stop offset="1" stop-color="#1A0F91"/>
</linearGradient>
<linearGradient id="paint10_linear_649_185" x1="488.479" y1="513.825" x2="487.579" y2="612.922" gradientUnits="userSpaceOnUse">
<stop stop-color="#4F52FF"/>
<stop offset="1" stop-color="#4042E2"/>
</linearGradient>
<linearGradient id="paint11_linear_649_185" x1="498.741" y1="560.596" x2="503.886" y2="605.499" gradientUnits="userSpaceOnUse">
<stop stop-color="#FEBBBA"/>
<stop offset="1" stop-color="#FF928E"/>
</linearGradient>
<linearGradient id="paint12_linear_649_185" x1="480.491" y1="542.74" x2="643.198" y2="361.954" gradientUnits="userSpaceOnUse">
<stop stop-color="#09005D"/>
<stop offset="1" stop-color="#1A0F91"/>
</linearGradient>
<linearGradient id="paint13_linear_649_185" x1="1501.77" y1="-431.75" x2="1709.67" y2="-600.484" gradientUnits="userSpaceOnUse">
<stop stop-color="#4F52FF"/>
<stop offset="1" stop-color="#4042E2"/>
</linearGradient>
<linearGradient id="paint14_linear_649_185" x1="529.284" y1="268.742" x2="548.929" y2="353.637" gradientUnits="userSpaceOnUse">
<stop stop-color="#FEBBBA"/>
<stop offset="1" stop-color="#FF928E"/>
</linearGradient>
<linearGradient id="paint15_linear_649_185" x1="532.54" y1="252.308" x2="522.857" y2="309.286" gradientUnits="userSpaceOnUse">
<stop stop-color="#FEBBBA"/>
<stop offset="1" stop-color="#FF928E"/>
</linearGradient>
<linearGradient id="paint16_linear_649_185" x1="542.722" y1="279.277" x2="514.187" y2="248.965" gradientUnits="userSpaceOnUse">
<stop stop-color="#09005D"/>
<stop offset="1" stop-color="#1A0F91"/>
</linearGradient>
<linearGradient id="paint17_linear_649_185" x1="540.941" y1="314.5" x2="542.663" y2="274.489" gradientUnits="userSpaceOnUse">
<stop stop-color="#FEBBBA"/>
<stop offset="1" stop-color="#FF928E"/>
</linearGradient>
<linearGradient id="paint18_linear_649_185" x1="770.602" y1="114.337" x2="589.816" y2="308.681" gradientUnits="userSpaceOnUse">
<stop stop-color="#4F52FF"/>
<stop offset="1" stop-color="#4042E2"/>
</linearGradient>
<linearGradient id="paint19_linear_649_185" x1="540.5" y1="442.106" x2="484.005" y2="267.347" gradientUnits="userSpaceOnUse">
<stop stop-color="#09005D"/>
<stop offset="1" stop-color="#1A0F91"/>
</linearGradient>
<linearGradient id="paint20_linear_649_185" x1="1466.34" y1="-475.406" x2="1674.25" y2="-644.14" gradientUnits="userSpaceOnUse">
<stop stop-color="#4F52FF"/>
<stop offset="1" stop-color="#4042E2"/>
</linearGradient>
<linearGradient id="paint21_linear_649_185" x1="374.996" y1="266.668" x2="495.213" y2="420.475" gradientUnits="userSpaceOnUse">
<stop stop-color="#FEBBBA"/>
<stop offset="1" stop-color="#FF928E"/>
</linearGradient>
<linearGradient id="paint22_linear_649_185" x1="358.908" y1="279.243" x2="479.124" y2="433.049" gradientUnits="userSpaceOnUse">
<stop stop-color="#FEBBBA"/>
<stop offset="1" stop-color="#FF928E"/>
</linearGradient>
<linearGradient id="paint23_linear_649_185" x1="311.648" y1="289.404" x2="355.822" y2="343.71" gradientUnits="userSpaceOnUse">
<stop stop-color="#FEBBBA"/>
<stop offset="1" stop-color="#FF928E"/>
</linearGradient>
<linearGradient id="paint24_linear_649_185" x1="348.259" y1="256.177" x2="308.636" y2="367.049" gradientUnits="userSpaceOnUse">
<stop stop-color="#4F52FF"/>
<stop offset="1" stop-color="#4042E2"/>
</linearGradient>
<linearGradient id="paint25_linear_649_185" x1="292.577" y1="260.478" x2="253.802" y2="350.63" gradientUnits="userSpaceOnUse">
<stop stop-color="#09005D"/>
<stop offset="1" stop-color="#1A0F91"/>
</linearGradient>
<linearGradient id="paint26_linear_649_185" x1="301.502" y1="333.714" x2="233.162" y2="436.952" gradientUnits="userSpaceOnUse">
<stop stop-color="#4F52FF"/>
<stop offset="1" stop-color="#4042E2"/>
</linearGradient>
<linearGradient id="paint27_linear_649_185" x1="296.383" y1="327.285" x2="285.35" y2="302.783" gradientUnits="userSpaceOnUse">
<stop stop-color="#FEBBBA"/>
<stop offset="1" stop-color="#FF928E"/>
</linearGradient>
<linearGradient id="paint28_linear_649_185" x1="298.555" y1="275.051" x2="277.311" y2="324.038" gradientUnits="userSpaceOnUse">
<stop stop-color="#FEBBBA"/>
<stop offset="1" stop-color="#FF928E"/>
</linearGradient>
<linearGradient id="paint29_linear_649_185" x1="290.474" y1="259.574" x2="251.699" y2="349.726" gradientUnits="userSpaceOnUse">
<stop stop-color="#09005D"/>
<stop offset="1" stop-color="#1A0F91"/>
</linearGradient>
<linearGradient id="paint30_linear_649_185" x1="287.909" y1="270.435" x2="266.666" y2="319.42" gradientUnits="userSpaceOnUse">
<stop stop-color="#FEBBBA"/>
<stop offset="1" stop-color="#FF928E"/>
</linearGradient>
<linearGradient id="paint31_linear_649_185" x1="234.474" y1="632.406" x2="316.67" y2="484.043" gradientUnits="userSpaceOnUse">
<stop stop-color="#FEBBBA"/>
<stop offset="1" stop-color="#FF928E"/>
</linearGradient>
<linearGradient id="paint32_linear_649_185" x1="833.334" y1="-437.287" x2="814.721" y2="-403.754" gradientUnits="userSpaceOnUse">
<stop stop-color="#09005D"/>
<stop offset="1" stop-color="#1A0F91"/>
</linearGradient>
<linearGradient id="paint33_linear_649_185" x1="250.003" y1="548.156" x2="125.359" y2="589.322" gradientUnits="userSpaceOnUse">
<stop stop-color="#FEBBBA"/>
<stop offset="1" stop-color="#FF928E"/>
</linearGradient>
<linearGradient id="paint34_linear_649_185" x1="274.898" y1="584.257" x2="304.028" y2="583.98" gradientUnits="userSpaceOnUse">
<stop stop-color="#09005D"/>
<stop offset="1" stop-color="#1A0F91"/>
</linearGradient>
<linearGradient id="paint35_linear_649_185" x1="273.45" y1="488.873" x2="304.893" y2="394.796" gradientUnits="userSpaceOnUse">
<stop stop-color="#09005D"/>
<stop offset="1" stop-color="#1A0F91"/>
</linearGradient>
<linearGradient id="paint36_linear_649_185" x1="277.389" y1="317.752" x2="209.049" y2="420.99" gradientUnits="userSpaceOnUse">
<stop stop-color="#4F52FF"/>
<stop offset="1" stop-color="#4042E2"/>
</linearGradient>
<linearGradient id="paint37_linear_649_185" x1="298.422" y1="378.434" x2="349.863" y2="378.434" gradientUnits="userSpaceOnUse">
<stop stop-color="#FEBBBA"/>
<stop offset="1" stop-color="#FF928E"/>
</linearGradient>
<linearGradient id="paint38_linear_649_185" x1="362.756" y1="272.255" x2="242.232" y2="477.147" gradientUnits="userSpaceOnUse">
<stop stop-color="#09005D"/>
<stop offset="1" stop-color="#1A0F91"/>
</linearGradient>
<linearGradient id="paint39_linear_649_185" x1="284.922" y1="373.981" x2="301.166" y2="373.981" gradientUnits="userSpaceOnUse">
<stop stop-color="#FEBBBA"/>
<stop offset="1" stop-color="#FF928E"/>
</linearGradient>
</defs>
</svg>
