<svg id="Capa_1" data-name="Capa 1" xmlns="http://www.w3.org/2000/svg" viewBox="0 0 1055.81 192"><defs><style>.cls-1{fill:#5b21b6;}.cls-2{fill:#1d1035;}</style></defs><path class="cls-1" d="M204.22,153.87c-.73-6.66-4-12.37-7.65-17.68a130.73,130.73,0,0,0-18.21-21.84c-5.61-5.21-11.74-9.73-18.85-12.64-10-4.1-20.26-3.78-30.49-.81-8.82,2.56-16.75,6.81-23,13.63-9.44,10.3-16.74,21.87-20.21,35.62a13.72,13.72,0,0,0,1.32,10.73C91,167.51,98.68,170.93,107,169.4a155.18,155.18,0,0,0,16.61-4c7.86-2.38,15.71-4.62,24.07-4.93a85.55,85.55,0,0,1,9.9,1.66c5.83,1.64,11.57,3.64,17.31,5.59,6.61,2.24,13.22,3.38,20.05.93S205,161.18,204.22,153.87Z"/><path class="cls-1" d="M193.65,46.52c-.6,11.44-5.05,21-15.15,27.57-14.33,9.37-28.08-.25-31.39-12.82-3.2-12.17,1.9-28.14,13.22-35.6,3.7-2.44,7.73-4.29,12.19-4.27,8.89,0,14.92,4.67,18.78,12.43C193.26,37.75,193.33,42,193.65,46.52Z"/><path class="cls-1" d="M88.13,44.45c0-7.18,2.24-13.43,7.92-18.14,5.91-4.9,12.49-5.54,19.4-2.64,11,4.61,16.89,13.34,19.24,24.7a28.25,28.25,0,0,1-1,16.35c-2.67,6.82-7.37,11.39-14.69,13-5,1.07-9.5-.38-13.71-2.77C95.17,69.19,89.82,60.27,88.4,48.85c-.09-.76-.22-1.51-.26-2.28S88.13,45.16,88.13,44.45Z"/><path class="cls-1" d="M231.5,85c.15,14.63-11.07,28.83-25.13,31.67-12.35,2.5-21.55-6.45-21.82-17.29-.37-14.62,9.5-28.59,24-32.47C222.47,63.16,231.65,74.24,231.5,85Z"/><path class="cls-1" d="M51,87.46c.74-3,1.19-6.22,2.34-9.18,2.72-7,11.71-9.87,18-8.92,12.79,1.91,29,16.36,26.83,35-1.13,9.73-9.82,17.54-21.36,14.46-11.7-3.13-19.74-10.49-23.8-21.92C52,94,51.72,90.83,51,87.46Z"/><path class="cls-2" d="M260.22,65h31.51a44.35,44.35,0,0,1,20,4.31,32.21,32.21,0,0,1,13.47,12.14A34.08,34.08,0,0,1,330,99.64a34.1,34.1,0,0,1-4.81,18.23A32.27,32.27,0,0,1,311.7,130a44.35,44.35,0,0,1-20,4.31H260.22Zm30.72,56.18q10.41,0,16.6-5.8t6.19-15.7q0-9.92-6.19-15.71t-16.6-5.79H276.28v43Z"/><path class="cls-2" d="M351.23,131.59a26.11,26.11,0,0,1-10.45-9.76,28.51,28.51,0,0,1,0-28.34,26.18,26.18,0,0,1,10.45-9.76,32,32,0,0,1,15.11-3.51,31.69,31.69,0,0,1,15.06,3.51,26.26,26.26,0,0,1,10.41,9.76,28.58,28.58,0,0,1,0,28.34,26.19,26.19,0,0,1-10.41,9.76,31.58,31.58,0,0,1-15.06,3.52A31.92,31.92,0,0,1,351.23,131.59Zm24.87-13.18q3.81-4,3.82-10.75T376.1,96.91a12.88,12.88,0,0,0-9.76-4,13.06,13.06,0,0,0-9.81,4q-3.86,4-3.86,10.75t3.86,10.75a13,13,0,0,0,9.81,4A12.85,12.85,0,0,0,376.1,118.41Z"/><path class="cls-2" d="M460.87,81V125.4q0,14.65-7.63,21.8t-22.3,7.13a55.93,55.93,0,0,1-14.66-1.88A32,32,0,0,1,404.79,147l6.14-11.1a25.26,25.26,0,0,0,8.52,4.41,33.88,33.88,0,0,0,10.3,1.64q8,0,11.85-3.62t3.81-11V125.1q-6,6.65-16.84,6.64a28.25,28.25,0,0,1-13.43-3.22,24.58,24.58,0,0,1-9.66-9.07,27.22,27.22,0,0,1,0-26.95,24.56,24.56,0,0,1,9.66-9.06,28.25,28.25,0,0,1,13.43-3.22q11.58,0,17.63,7.63V81Zm-19.18,34.43a13.37,13.37,0,0,0,0-18.92,14.23,14.23,0,0,0-10.05-3.62,14.42,14.42,0,0,0-10.11,3.62,13.28,13.28,0,0,0,0,18.92,14.42,14.42,0,0,0,10.11,3.62A14.23,14.23,0,0,0,441.69,115.44Z"/><path class="cls-2" d="M530.23,81V125.4q0,14.65-7.63,21.8t-22.3,7.13a55.93,55.93,0,0,1-14.66-1.88,32.1,32.1,0,0,1-11.5-5.45l6.15-11.1a25.17,25.17,0,0,0,8.52,4.41,33.88,33.88,0,0,0,10.3,1.64q8,0,11.84-3.62t3.82-11V125.1q-6,6.65-16.85,6.64a28.21,28.21,0,0,1-13.42-3.22,24.58,24.58,0,0,1-9.66-9.07,27.22,27.22,0,0,1,0-26.95,24.56,24.56,0,0,1,9.66-9.06,28.21,28.21,0,0,1,13.42-3.22q11.59,0,17.64,7.63V81Zm-19.18,34.43a13.37,13.37,0,0,0,0-18.92A14.23,14.23,0,0,0,501,92.9a14.42,14.42,0,0,0-10.11,3.62,13.28,13.28,0,0,0,0,18.92A14.42,14.42,0,0,0,501,119.06,14.23,14.23,0,0,0,511.05,115.44Z"/><path class="cls-2" d="M597.5,81l-24.07,56.58q-3.67,9.21-9.07,13a22.2,22.2,0,0,1-13,3.76,27,27,0,0,1-8.22-1.29,18.17,18.17,0,0,1-6.64-3.56l5.65-11a13.31,13.31,0,0,0,4.11,2.48,12.86,12.86,0,0,0,4.6.89,8.23,8.23,0,0,0,5.16-1.54,12.92,12.92,0,0,0,3.56-5.1l.2-.5L536.67,81h16l15,36.17L582.64,81Z"/><path class="cls-2" d="M639.86,133.28a37.4,37.4,0,0,1-12.34-5.8L633,115.39a37,37,0,0,0,10.6,5.25,39.59,39.59,0,0,0,12.29,2q6.84,0,10.11-2a6.13,6.13,0,0,0,3.27-5.4,5.18,5.18,0,0,0-1.93-4.11,14.72,14.72,0,0,0-5-2.62c-2-.66-4.74-1.39-8.17-2.18a112,112,0,0,1-13-3.77,21.06,21.06,0,0,1-8.67-6q-3.63-4.17-3.62-11.1a19.31,19.31,0,0,1,3.27-11A22,22,0,0,1,642,66.64a40.32,40.32,0,0,1,16.1-2.87,53.22,53.22,0,0,1,13,1.59,38.17,38.17,0,0,1,11.1,4.55l-5,12.19A38.7,38.7,0,0,0,658,76.65q-6.74,0-10,2.18a6.67,6.67,0,0,0-3.22,5.75q0,3.56,3.72,5.3a59.39,59.39,0,0,0,11.34,3.42,112.86,112.86,0,0,1,13,3.76,21.52,21.52,0,0,1,8.67,6q3.61,4.06,3.62,11a19,19,0,0,1-3.32,10.85,22.23,22.23,0,0,1-10,7.78,40.5,40.5,0,0,1-16.15,2.88A57,57,0,0,1,639.86,133.28Z"/><path class="cls-2" d="M729.48,131.74a16,16,0,0,1-5.6,2.53,28.36,28.36,0,0,1-7,.84q-9.51,0-14.71-4.86T697,116V94.09h-8.22V82.2H697v-13h15.46v13h13.27V94.09H712.44v21.7a7.26,7.26,0,0,0,1.73,5.2,6.42,6.42,0,0,0,4.9,1.83,10,10,0,0,0,6.25-2Z"/><path class="cls-2" d="M739,71.1a8.38,8.38,0,0,1,0-12.29,9.81,9.81,0,0,1,6.94-2.47,10,10,0,0,1,6.93,2.38,7.59,7.59,0,0,1,2.68,5.94,8.38,8.38,0,0,1-2.68,6.39,9.65,9.65,0,0,1-6.93,2.53A9.82,9.82,0,0,1,739,71.1ZM738.2,81h15.45v53.31H738.2Z"/><path class="cls-2" d="M778.47,131.59a26.32,26.32,0,0,1-10.6-9.76,26.88,26.88,0,0,1,10.6-38.1,32.86,32.86,0,0,1,15.31-3.51,29.74,29.74,0,0,1,14.72,3.51,20.87,20.87,0,0,1,9.16,10.06l-12,6.44q-4.15-7.33-12-7.33a13.55,13.55,0,0,0-10,4q-4,4-4,10.8t4,10.8a13.52,13.52,0,0,0,10,4q7.94,0,12-7.34l12,6.54a21.27,21.27,0,0,1-9.16,9.91,29.33,29.33,0,0,1-14.72,3.57A32.74,32.74,0,0,1,778.47,131.59Z"/><path class="cls-2" d="M849.07,113.41l-7.43,7.33v13.58H826.18V60.8h15.46v41.61L864.23,81h18.43L860.47,103.6l24.17,30.72H865.91Z"/><path class="cls-2" d="M941.22,112H900.89a12.53,12.53,0,0,0,5.15,7.83,17,17,0,0,0,10.11,2.87,20.61,20.61,0,0,0,7.38-1.23,17.86,17.86,0,0,0,6-3.92l8.22,8.92q-7.53,8.63-22,8.62a34.71,34.71,0,0,1-16-3.52,25.78,25.78,0,0,1-10.7-9.76,26.88,26.88,0,0,1-3.77-14.17,27.25,27.25,0,0,1,3.72-14.12,26.11,26.11,0,0,1,10.21-9.81,31.61,31.61,0,0,1,28.68-.14,24.5,24.5,0,0,1,10,9.66,28.78,28.78,0,0,1,3.61,14.61C941.51,108.06,941.42,109.45,941.22,112ZM905.05,94.88a12.65,12.65,0,0,0-4.36,8.13H927a12.8,12.8,0,0,0-4.36-8.08,13.07,13.07,0,0,0-8.72-3A13.33,13.33,0,0,0,905.05,94.88Z"/><path class="cls-2" d="M974.06,82.2a27.81,27.81,0,0,1,10.85-2V94.48c-1.72-.13-2.87-.19-3.47-.19q-6.63,0-10.4,3.71t-3.76,11.15v25.17H951.82V81h14.76v7A17.26,17.26,0,0,1,974.06,82.2Z"/><path class="cls-2" d="M999.28,133.48a33.94,33.94,0,0,1-10.11-4.12l5.16-11.09A32.34,32.34,0,0,0,1003,122a36,36,0,0,0,9.9,1.44q9.81,0,9.81-4.86,0-2.28-2.67-3.27a39.72,39.72,0,0,0-8.23-1.68,79,79,0,0,1-10.8-2.28,16.76,16.76,0,0,1-7.38-4.56q-3.12-3.27-3.12-9.31a14.65,14.65,0,0,1,2.92-9,18.77,18.77,0,0,1,8.53-6.09,36.22,36.22,0,0,1,13.22-2.18,51.64,51.64,0,0,1,11.25,1.24,31.32,31.32,0,0,1,9.26,3.41l-5.15,11a30.78,30.78,0,0,0-15.36-4q-4.95,0-7.43,1.39t-2.47,3.56a3.54,3.54,0,0,0,2.67,3.47,46.92,46.92,0,0,0,8.52,1.88,92.83,92.83,0,0,1,10.7,2.33,16.12,16.12,0,0,1,7.24,4.51q3.06,3.27,3.07,9.12a14,14,0,0,1-3,8.81,18.94,18.94,0,0,1-8.67,6,38.56,38.56,0,0,1-13.52,2.13A52.23,52.23,0,0,1,999.28,133.48Z"/></svg>