<svg width="1167" height="719" viewBox="0 0 1167 719" fill="none" xmlns="http://www.w3.org/2000/svg">
<path d="M1031.73 613.568C1007.77 628.931 985.091 638.839 967.177 646.666C756.599 738.678 507.428 711.857 454.472 705.307C376.273 695.635 225.116 676.939 115.833 598.676C-49.5048 480.27 -23.759 293.726 104.488 170.585C127.946 148.061 251.86 23.0444 503.714 2.99583C656.133 -9.13738 833.806 15.334 962.471 80.9792C1232.55 218.774 1213.32 497.145 1031.73 613.568Z" fill="url(#paint0_linear_608_4259)"/>
<g opacity="0.58">
<path d="M781.961 501.418C781.961 501.418 700.478 215.653 547.278 65.5109C536.979 55.418 518.943 60.4727 515.513 74.457C492.579 167.967 452.206 450.062 781.961 501.418Z" fill="#BDD0FB"/>
<path opacity="0.5" d="M751.342 484.335C752.101 484.987 751.167 486.132 750.323 485.585C719.183 465.447 597.984 364.809 547.095 154.155C546.932 153.478 547.968 153.162 548.191 153.822C564.681 202.403 631.392 381.227 751.342 484.335Z" fill="white"/>
</g>
<g opacity="0.79">
<path d="M799.079 410.368C799.079 410.368 763.007 154.429 659.468 8.44821C652.508 -1.36508 638.221 1.1314 634.302 12.8828C608.101 91.4618 551.137 331.518 799.079 410.368Z" fill="#91B3FA"/>
<path opacity="0.5" d="M777.193 392.384C777.714 393.027 776.893 393.921 776.297 393.36C754.293 372.675 670.708 272.896 651.15 85.1857C651.087 84.5826 651.91 84.4171 652.021 85.0115C660.173 128.797 694.793 290.596 777.193 392.384Z" fill="white"/>
</g>
<path d="M509.906 518.283C509.906 518.283 531.391 491.428 573.025 487.25C573.025 487.25 592.799 493.987 632.194 564.577C671.588 635.167 697.737 667.357 728.422 649.775L725.881 653.993C717.509 667.894 702.468 676.393 686.241 676.393H669.27C650.585 676.393 633.045 667.41 622.134 652.242C591.473 609.62 528.741 524.9 509.906 518.283Z" fill="url(#paint1_linear_608_4259)"/>
<path opacity="0.66" d="M1152.72 278.741C1152.68 278.741 1152.63 278.738 1152.58 278.732C1151.87 278.652 1151.36 278.012 1151.44 277.302L1152.31 269.632C1152.39 268.922 1153.03 268.411 1153.74 268.493C1154.45 268.574 1154.96 269.214 1154.88 269.924L1154.01 277.593C1153.93 278.253 1153.37 278.741 1152.72 278.741Z" fill="white"/>
<path opacity="0.66" d="M781.199 545.474C780.949 545.474 780.698 545.402 780.476 545.253C779.884 544.854 779.728 544.05 780.128 543.457L783.736 538.108C784.135 537.515 784.94 537.361 785.531 537.759C786.123 538.159 786.28 538.962 785.88 539.555L782.272 544.904C782.022 545.275 781.614 545.474 781.199 545.474Z" fill="white"/>
<path d="M664.899 174.414C667.088 160.662 709.929 150.944 708.804 121.413L685.855 102.403C685.855 102.403 676.595 138.48 663.194 148.143C649.794 157.805 646.943 147.507 651.76 138.671C656.577 129.836 679.364 111.81 677.399 99.5504C677.399 99.5504 675.771 89.8519 663.826 94.3818C651.882 98.9118 634.521 84.7732 630.714 75.764C630.714 75.764 629.016 81.2489 619.331 91.8388C609.645 102.429 599.14 112.395 607.989 121.86C616.839 131.326 632.774 138.791 629.888 146.231C627.002 153.671 595.159 146.137 593.747 120.39C593.747 120.39 577.059 136.059 576.783 143.203C576.506 150.347 585.585 161.144 605.059 163.349C624.532 165.553 632.792 172.395 630.628 177.975C628.463 183.555 572.955 168.706 573.161 147.576C573.161 147.576 556.045 186.648 556.611 192.033C557.177 197.417 580.84 205.549 596.887 204.914C612.934 204.28 625.307 214.53 626.666 220.571C628.024 226.611 610.062 216.648 600.208 216.677C590.353 216.706 553.409 200.03 553.409 200.03C553.409 200.03 556.908 204.567 553.096 218.613C549.284 232.659 551.217 258.018 560.266 258.961C569.316 259.903 612.949 255.905 626.236 259.537C639.522 263.17 649.419 268.911 641.862 271.662C634.305 274.413 617.08 269.976 603.796 270.442C590.513 270.907 556.521 276.339 551.329 268.761C551.329 268.761 551.036 307.842 584.645 322.573C584.645 322.573 603.921 318.879 617.566 306.425C631.212 293.971 637.499 289.348 643.163 292.401C648.826 295.454 639.319 303.963 630.618 311.501C621.916 319.039 602.035 336.978 593.419 335.576C593.419 335.576 645.299 354.793 664.259 322.165C682.041 291.565 680.005 286.34 679.684 285.809C681.021 287.698 721.955 344.499 766.323 279.729C766.323 279.729 752.066 291.676 740.773 286.418C729.481 281.161 707.641 284.369 710.301 275.923C712.962 267.477 753.933 286.669 767.363 273.217C780.793 259.765 780.633 230.74 764.233 217.675C764.233 217.675 758.949 234.298 740.486 239.484C722.023 244.671 695.727 246.647 705.167 234.805C714.608 222.964 764.794 218.358 770.679 206.999C776.565 195.64 748.038 160.848 748.038 160.848C748.038 160.848 745.397 167.004 729.564 183.151C713.73 199.298 692.399 214.398 691.759 208.133C691.12 201.869 705.739 192.996 718.505 184.57C731.272 176.144 742.016 159.444 737.891 152.443C733.766 145.441 715.927 127.314 715.927 127.314C715.927 127.314 699.774 152.009 693.551 163.899C687.327 175.789 662.711 188.166 664.899 174.414ZM687.496 258.633C671.29 267.292 676.429 252.64 682.034 243.496C686.289 236.554 703.701 249.975 687.496 258.633ZM677.673 225.138C667.084 231.112 661.658 227.916 664.461 221.769C670.902 207.645 688.263 219.163 677.673 225.138ZM663.169 191.003C657.635 194.613 654.587 194.545 654.435 187.047C654.284 179.548 668.702 187.395 663.169 191.003Z" fill="#BDD0FB"/>
<path d="M1133.36 94.6415L1098.13 92.8086C1095.25 92.6588 1092.96 94.9018 1093.04 97.8009L1093.95 130.2C1094.02 132.848 1096.32 134.87 1099.03 134.736L1132.49 133.084C1134.76 132.972 1136.63 130.961 1136.7 128.578L1137.51 99.5564C1137.58 96.9719 1135.74 94.7651 1133.36 94.6415Z" fill="#91B3FA"/>
<path d="M1127.02 123.68H1108.23C1107.74 123.68 1107.32 123.363 1107.18 122.902L1101.78 104.657L1096.09 103.907C1095.5 103.828 1095.08 103.282 1095.16 102.687C1095.23 102.093 1095.78 101.673 1096.38 101.752L1102.76 102.595C1103.19 102.651 1103.54 102.952 1103.66 103.363L1109.04 121.507H1126.12L1128.6 108.365C1128.71 107.775 1129.28 107.39 1129.87 107.499C1130.46 107.611 1130.85 108.179 1130.74 108.768L1128.08 122.795C1127.99 123.308 1127.54 123.68 1127.02 123.68Z" fill="white"/>
<path d="M1129.59 109.381H1104.48C1103.88 109.381 1103.39 108.894 1103.39 108.294C1103.39 107.694 1103.88 107.208 1104.48 107.208H1129.59C1130.18 107.208 1130.67 107.694 1130.67 108.294C1130.67 108.894 1130.18 109.381 1129.59 109.381Z" fill="white"/>
<path d="M1113.02 122.459C1112.42 122.459 1111.93 121.973 1111.93 121.373V108.469C1111.93 107.868 1112.42 107.382 1113.02 107.382C1113.62 107.382 1114.11 107.868 1114.11 108.469V121.373C1114.11 121.973 1113.62 122.459 1113.02 122.459Z" fill="white"/>
<path d="M1121.74 122.459C1121.14 122.459 1120.65 121.973 1120.65 121.373V108.469C1120.65 107.868 1121.14 107.382 1121.74 107.382C1122.34 107.382 1122.83 107.868 1122.83 108.469V121.373C1122.83 121.973 1122.34 122.459 1121.74 122.459Z" fill="white"/>
<path d="M1128.19 116.356H1106.57C1105.97 116.356 1105.48 115.869 1105.48 115.269C1105.48 114.669 1105.97 114.183 1106.57 114.183H1128.19C1128.79 114.183 1129.28 114.67 1129.28 115.269C1129.28 115.869 1128.79 116.356 1128.19 116.356Z" fill="white"/>
<path d="M1111.28 130.152C1112.5 130.152 1113.5 129.157 1113.5 127.93C1113.5 126.704 1112.5 125.709 1111.28 125.709C1110.05 125.709 1109.05 126.704 1109.05 127.93C1109.05 129.157 1110.05 130.152 1111.28 130.152Z" fill="white"/>
<path d="M1124.81 130.152C1126.04 130.152 1127.04 129.157 1127.04 127.93C1127.04 126.704 1126.04 125.709 1124.81 125.709C1123.59 125.709 1122.59 126.704 1122.59 127.93C1122.59 129.157 1123.59 130.152 1124.81 130.152Z" fill="white"/>
<path d="M892.091 262.208C891.116 262.208 890.312 261.434 890.282 260.453C890.272 260.16 889.473 230.84 897.988 200.478C903.013 182.559 910.254 167.761 919.509 156.496C931.168 142.304 946.041 133.721 963.714 130.986C979.251 128.583 993.06 132.255 1004.77 141.903C1020.82 155.134 1032.76 179.117 1040.24 213.185C1045.79 238.417 1046.68 260.111 1046.69 260.327C1046.73 261.326 1045.95 262.167 1044.95 262.206C1043.95 262.243 1043.11 261.467 1043.07 260.467C1043.04 259.617 1039.34 175.08 1002.46 144.695C991.587 135.734 978.735 132.324 964.269 134.565C933.724 139.292 912.597 161.797 901.475 201.457C893.108 231.289 893.892 260.054 893.902 260.341C893.933 261.341 893.147 262.176 892.147 262.207C892.128 262.207 892.109 262.208 892.091 262.208Z" fill="url(#paint2_linear_608_4259)"/>
<path d="M807.562 237.249C807.848 235.308 809.498 233.86 811.459 233.828L1025.56 230.289L1095.66 648.207H757.375C745.755 648.207 807.562 237.249 807.562 237.249Z" fill="#7D97F4"/>
<path d="M1062.99 233.476L1025.55 230.289L1095.66 648.207H1137.59C1146.09 648.207 1152.45 640.393 1150.72 632.069L1068.78 238.601C1068.2 235.802 1065.84 233.718 1062.99 233.476Z" fill="#91B3FA"/>
<path d="M845.356 261.309C844.382 261.309 843.578 260.535 843.547 259.555C843.538 259.262 842.739 229.941 851.253 199.58C856.279 181.66 863.52 166.862 872.774 155.597C884.434 141.405 899.307 132.822 916.98 130.087C932.519 127.682 946.327 131.356 958.034 141.004C974.088 154.235 986.024 178.218 993.509 212.286C999.053 237.518 999.945 259.212 999.954 259.428C999.993 260.428 999.214 261.269 998.215 261.308C997.251 261.353 996.374 260.568 996.335 259.568C996.302 258.718 992.603 174.182 955.727 143.796C944.852 134.835 931.999 131.425 917.535 133.666C886.99 138.393 865.863 160.899 854.741 200.558C846.374 230.39 847.158 259.156 847.167 259.442C847.198 260.442 846.413 261.278 845.413 261.309C845.394 261.309 845.375 261.309 845.356 261.309Z" fill="url(#paint3_linear_608_4259)"/>
<path d="M936.715 422.753C936.684 421.974 933.299 344.549 899.468 316.672C889.444 308.412 877.602 305.27 864.271 307.333C836.215 311.675 816.811 332.315 806.599 368.678C798.926 396 799.64 422.4 799.648 422.663L797.068 422.743C797.06 422.476 796.331 395.733 804.098 368.036C808.678 351.707 815.272 338.226 823.699 327.969C834.297 315.069 847.815 307.268 863.877 304.782C877.966 302.602 890.496 305.932 901.112 314.681C915.721 326.721 926.589 348.573 933.412 379.63C938.472 402.66 939.287 422.456 939.294 422.653L936.715 422.753Z" fill="url(#paint4_linear_608_4259)"/>
<path d="M691.129 637.855L725.421 411.813C725.749 409.654 727.587 408.047 729.77 408.011L927.916 404.736L970.777 659.921H707.997C696.851 659.921 689.503 648.882 691.129 637.855Z" fill="url(#paint5_linear_608_4259)"/>
<path d="M966.119 407.987L927.916 404.736L970.777 659.921L1013.09 658.828C1017.27 658.721 1020.32 654.854 1019.47 650.765L969.078 410.418C968.691 409.073 967.514 408.106 966.119 407.987Z" fill="url(#paint6_linear_608_4259)"/>
<path d="M894 421.932C893.97 421.153 890.584 343.728 856.753 315.85C846.73 307.591 834.888 304.449 821.557 306.512C793.5 310.854 774.096 331.493 763.884 367.857C756.211 395.179 756.925 421.579 756.934 421.842L754.354 421.922C754.345 421.655 753.616 394.912 761.383 367.215C765.963 350.886 772.557 337.405 780.984 327.148C791.582 314.248 805.1 306.447 821.162 303.961C835.252 301.78 847.781 305.111 858.397 313.86C873.007 325.9 883.874 347.752 890.698 378.809C895.758 401.839 896.572 421.635 896.58 421.832L894 421.932Z" fill="url(#paint7_linear_608_4259)"/>
<path d="M913.108 346.371C913.577 345.45 913.649 344.377 913.309 343.401C908.248 328.856 890.086 276.775 889.305 276.103C888.396 275.321 860.279 245.985 860.279 245.985C855.099 240.583 852.881 245.152 852.881 245.152L836.789 292.572L861.025 359.58C861.711 361.475 863.759 362.503 865.688 361.92L910.826 348.28C911.815 347.981 912.639 347.292 913.108 346.371ZM854.981 263.165C852.723 261.223 852.468 257.817 854.411 255.56C856.354 253.302 859.759 253.047 862.017 254.99C864.274 256.933 864.529 260.338 862.587 262.596C860.644 264.853 857.239 265.108 854.981 263.165Z" fill="url(#paint8_linear_608_4259)"/>
<path opacity="0.85" d="M867.07 307.744C870.538 315.283 869.043 320.57 865.437 322.23C861.749 323.927 856.978 321.455 853.773 314.596C850.659 307.828 851.486 302.048 855.538 300.183C859.712 298.263 864.108 301.307 867.07 307.744ZM872.428 337.213L870.695 293.21L873.531 291.905L875.265 335.908L872.428 337.213ZM857.481 312.623C859.339 316.768 861.826 319.291 863.811 318.377C865.798 317.463 865.453 314.155 863.453 309.809C861.63 305.847 859.352 303.029 857.204 304.017C855.178 304.949 855.633 308.606 857.481 312.623ZM892.06 314.247C895.503 321.73 894.073 327.055 890.426 328.733C886.779 330.411 881.968 327.957 878.778 321.025C875.69 314.312 876.491 308.477 880.503 306.631C884.677 304.711 889.099 307.81 892.06 314.247ZM882.471 319.126C884.304 323.216 886.815 325.794 888.801 324.88C890.827 323.948 890.443 320.658 888.443 316.311C886.595 312.295 884.342 309.531 882.194 310.519C880.168 311.452 880.623 315.109 882.471 319.126Z" fill="white"/>
<path d="M857.667 258.554C857.02 258.12 856.662 257.327 856.821 256.515C856.916 256.023 859.027 244.353 848.68 234.65C847.878 233.896 847.837 232.636 848.59 231.833C849.343 231.03 850.604 230.988 851.406 231.742C863.416 243.006 860.846 256.711 860.73 257.289C860.515 258.368 859.466 259.068 858.387 258.853C858.121 258.8 857.879 258.696 857.667 258.554Z" fill="url(#paint9_linear_608_4259)"/>
<path d="M1135.16 283.198C1135.08 283.165 1089.56 203.463 1083.41 195.963C1082.38 194.701 1080.78 194.059 1079.16 194.252L1066.45 195.766L1051.53 228.05L1076.39 213.571C1073.93 230.585 1105.87 255.871 1116.83 265.097C1117.94 266.033 1118.03 267.711 1117.02 268.761L1112.65 273.339C1119.83 280.616 1128.11 285.289 1137.47 287.45L1135.16 283.198Z" fill="url(#paint10_linear_608_4259)"/>
<path d="M1115.18 270.868C1115.18 270.868 1112.39 271.77 1111.44 274.256C1110.99 275.445 1111.48 276.792 1112.51 277.533C1117.11 280.825 1132.27 291.455 1139.26 293.537C1139.84 293.708 1140.38 293.189 1140.25 292.605C1139.9 290.98 1138.73 287.734 1134.99 282.984L1135.33 283.663C1135.75 284.522 1134.82 285.416 1133.98 284.945C1129.3 282.304 1119.77 276.523 1115.18 270.868Z" fill="url(#paint11_linear_608_4259)"/>
<path d="M1117.43 302.759C1117.36 302.71 1110.53 286.259 1110.45 286.21C1104.19 248.092 1088.91 215.447 1084.41 206.857C1083.65 205.412 1082.21 204.459 1080.59 204.32L1067.84 203.232L1046.69 231.828L1073.97 222.68C1068.12 238.845 1094.28 270.07 1103.14 281.323C1104.04 282.465 1103.79 284.126 1102.59 284.952L1097.38 288.55C1102.94 297.129 1110.11 303.382 1118.83 307.39L1117.43 302.759Z" fill="url(#paint12_linear_608_4259)"/>
<path d="M1100.36 286.642C1100.36 286.642 1097.45 286.96 1096.02 289.203C1095.33 290.276 1095.54 291.694 1096.4 292.629C1100.24 296.783 1112.93 310.261 1119.36 313.716C1119.89 313.999 1120.53 313.601 1120.52 313.003C1120.5 311.339 1120.02 307.926 1117.31 302.516L1117.5 303.249C1117.75 304.177 1116.65 304.863 1115.93 304.233C1111.88 300.699 1103.72 293.109 1100.36 286.642Z" fill="url(#paint13_linear_608_4259)"/>
<path d="M1008.18 197.209C1008.18 197.209 996.646 214.36 995.7 222.183C994.754 230.007 998.889 232.712 1010.96 233.71C1046.87 236.679 1064.58 225.915 1064.58 225.915C1067.03 210.25 1068.78 206.265 1089.3 197.748C1089.3 197.748 1063.35 199.808 1058.13 197.781C1052.9 195.754 1008.18 197.209 1008.18 197.209Z" fill="url(#paint14_linear_608_4259)"/>
<path d="M1054.16 101.119C1054.16 101.119 1046.13 91.6172 1037.59 103.276C1036.04 105.387 1030.1 103.645 1027.93 108.065C1026.8 110.347 1024.37 111.643 1021.87 111.182C1015.64 110.033 1005.46 109.936 1000.43 119.699C996.591 127.152 999.555 131.513 1003.39 134C1006.21 135.826 1007.21 139.534 1005.51 142.427C1003.88 145.202 1003.57 148.961 1007.79 153.484C1017.25 163.619 1035.97 147.051 1035.97 147.051L1050.83 111.928L1054.16 101.119Z" fill="url(#paint15_linear_608_4259)"/>
<path d="M1039.36 194.939C1039.36 194.939 1052.79 182.153 1059.4 173.684C1062.97 169.106 1064.1 163.079 1062.44 157.512C1059.43 147.346 1054.06 136.816 1053.57 135.177C1052.82 132.665 1037.77 132.769 1037.77 132.769C1037.77 132.769 1008.14 151.998 996.5 184.57L1009.57 188.64C1009.57 188.64 1017.31 175.662 1024.95 167.41C1024.95 167.41 1011.73 184.882 1011.26 192.034L1039.36 194.939Z" fill="url(#paint16_linear_608_4259)"/>
<path d="M1064.95 199.984L1054.86 189.007L1043.2 192.144C1043.2 192.144 1029.62 194.249 1021.84 192.144C1014.07 190.04 1014.07 190.04 1014.07 190.04L996.499 184.569L993.739 192.368C993.039 194.348 993.743 196.547 995.455 197.763C996.975 198.843 998.757 200.03 999.892 200.527C1002.21 201.539 1053.19 200.847 1053.19 200.847L1064.95 199.984Z" fill="url(#paint17_linear_608_4259)"/>
<path d="M1048.11 114.666L1037.99 133.484C1038.66 137.591 1049.01 137.707 1050.61 135.254C1050.77 135.005 1050.86 134.716 1050.92 134.424L1056.98 121.851C1057.24 120.625 1053.88 116.494 1052.77 115.905L1048.75 113.764C1047.2 112.94 1053.66 112.875 1048.11 114.666Z" fill="url(#paint18_linear_608_4259)"/>
<path d="M1068.6 110.25C1068.6 110.25 1069.74 116.608 1064.74 124.691C1059.74 132.774 1054.77 132.409 1052.24 129.526C1049.71 126.644 1046.68 121.843 1048.06 113.781C1049.44 105.719 1066.87 102.143 1068.6 110.25Z" fill="url(#paint19_linear_608_4259)"/>
<path d="M1054.11 114.657C1054.11 114.657 1062.2 104.029 1068.41 113.294L1068.31 116.494C1068.31 116.494 1076.39 116.116 1075.51 108.671C1074.63 101.226 1068.04 96.1396 1058.9 98.6834C1049.75 101.227 1044.41 104.124 1043.38 110.472C1042.35 116.819 1047.53 115.782 1047.53 115.782C1047.53 115.782 1049.51 111.402 1051.9 111.103C1054.29 110.804 1053.43 114.269 1053.43 114.269L1054.11 114.657Z" fill="url(#paint20_linear_608_4259)"/>
<path d="M1052.25 114.373C1052.25 114.373 1056.44 108.934 1052.63 107.806C1048.81 106.677 1048.96 113.135 1049.21 115.537L1052.25 114.373Z" fill="url(#paint21_linear_608_4259)"/>
<path d="M1031.55 204.329C1031.58 204.331 1031.62 204.332 1031.65 204.332L1078.06 204.281C1079.21 204.28 1080.14 203.349 1080.14 202.202C1080.14 201.054 1079.2 200.106 1078.06 200.127L1031.65 200.177C1030.5 200.178 1029.57 201.109 1029.57 202.256C1029.58 203.368 1030.45 204.275 1031.55 204.329Z" fill="url(#paint22_linear_608_4259)"/>
<path d="M1119.78 162.193H1081.13C1078.28 162.193 1075.69 163.839 1074.47 166.418L1056.6 204.304H1104.63C1106.47 204.304 1108.12 203.182 1108.8 201.473L1122.65 166.414C1123.45 164.389 1121.96 162.193 1119.78 162.193Z" fill="url(#paint23_linear_608_4259)"/>
<path d="M1092.55 181.619C1091.72 184.221 1092.33 186.748 1093.94 187.264C1095.54 187.779 1097.51 186.087 1098.35 183.485C1099.19 180.883 1098.57 178.356 1096.97 177.841C1095.37 177.325 1093.39 179.017 1092.55 181.619Z" fill="#91B3FA"/>
<path d="M986.245 422.062C986.245 422.062 977.184 468.821 952.154 481.385C947.247 483.541 941.12 484.461 938.802 486.743C936.168 489.338 941.049 493.63 943.416 497.185C945.783 500.739 945.952 498.787 946.334 497.397C946.717 496.006 943.047 492.716 946.34 490.35C949.634 487.984 949.065 490.606 947.815 493.033C946.564 495.46 947.329 498.593 947.476 498.734C947.624 498.875 950.072 496.873 952.392 495.075C954.383 493.531 954.985 490.387 955.116 489.523C960.228 487.728 991.924 475.155 998.106 437.451C998.106 437.451 991.719 402.841 986.245 422.062Z" fill="url(#paint24_linear_608_4259)"/>
<path d="M1069.87 526.011C1069.74 526.011 1069.62 525.915 1069.6 525.782C1069.58 525.638 1067.29 511.401 1062.87 508.885C1062.12 508.46 1061.38 508.405 1060.59 508.718C1054.62 511.097 1057.63 524.57 1057.66 524.706C1057.69 524.852 1057.6 524.998 1057.46 525.032C1057.31 525.065 1057.16 524.973 1057.13 524.827C1057 524.254 1053.99 510.762 1060.39 508.213C1061.33 507.841 1062.25 507.907 1063.14 508.413C1067.78 511.058 1070.04 525.1 1070.14 525.697C1070.16 525.845 1070.06 525.984 1069.91 526.008C1069.9 526.01 1069.88 526.011 1069.87 526.011Z" fill="white"/>
<path d="M1075.9 524.742L1053.32 522.656L1048.3 525.443L1052.6 530.831L1073.22 528.73L1075.9 524.742Z" fill="#91B3FA"/>
<path d="M1072.63 662.191L1073.01 670.827C1073.08 672.465 1074.26 673.848 1075.87 674.16C1078.58 674.687 1082.96 675.352 1087.3 675.232C1089.21 675.18 1090.58 673.362 1090.15 671.505C1089.36 668.121 1087.82 663.014 1085.28 659.881L1075.79 659.141C1074.04 659.004 1072.56 660.433 1072.63 662.191Z" fill="url(#paint25_linear_608_4259)"/>
<path d="M1006.12 556.181L1003.78 565.479C1003.78 565.479 1004.91 620.23 1004.17 642.037C1004.05 645.456 1002.91 648.754 1000.89 651.519L990.387 665.938L1015.18 653.799L1015.88 650.943L1012.41 645.305L1022.24 584.835C1022.82 581.283 1022.36 577.64 1020.92 574.341L1016.74 564.747L1006.12 556.181Z" fill="url(#paint26_linear_608_4259)"/>
<path d="M988.656 668.01L996.22 668.6C997.636 668.711 999.022 668.165 999.973 667.11C1002.57 664.23 1007.92 658.632 1010.27 658.658C1013.43 658.694 1012.16 669.843 1012.16 669.843L1013.92 669.98L1017.24 656.261C1018.07 652.809 1016.6 649.211 1013.59 647.328C1013.59 647.328 1012.46 652.589 1008.38 654.637C1004.3 656.684 991.674 664.174 991.674 664.174C991.674 664.174 990.224 663.85 988.593 664.016C986.172 664.261 986.23 667.821 988.656 668.01Z" fill="url(#paint27_linear_608_4259)"/>
<path d="M1038.24 563.188C1038.24 563.188 1065.01 625.246 1068.95 639.245C1072.88 653.244 1073.75 664.734 1073.73 665.814C1073.7 667.502 1075.67 669.276 1081.43 669.726C1084.4 669.957 1085.95 668.879 1086.75 667.781C1087.44 666.845 1087.56 665.616 1087.13 664.539C1085.6 660.719 1080.75 648.513 1079.03 643.014C1076.97 636.449 1073.74 607.171 1071.51 596.905C1069.28 586.64 1066.73 575.493 1054.41 564.449C1054.41 564.449 1046.1 554.937 1038.24 563.188Z" fill="url(#paint28_linear_608_4259)"/>
<path d="M1026 463.97C1020.57 428.99 1042.62 411.164 1042.62 411.164C1036.04 403.774 1026.07 398.18 1018.43 394.64C1011.53 391.442 1003.38 392.583 997.624 397.555C991.292 403.026 984.403 410.775 985.326 418.028C986.303 425.706 997.631 464.517 997.631 464.517C997.631 464.517 1010.34 471.79 1026 463.97Z" fill="url(#paint29_linear_608_4259)"/>
<path d="M1042.65 482.376C1040.12 472.181 1026 463.97 1026 463.97C1010.34 471.79 997.632 464.517 997.632 464.517C997.632 464.517 993.791 475.596 995.014 486.265C996.236 496.935 1003.78 565.479 1003.78 565.479C1023.65 571.144 1055.34 565.359 1055.34 565.359C1044.26 541.526 1045.17 492.571 1042.65 482.376Z" fill="url(#paint30_linear_608_4259)"/>
<path d="M1017.27 373.023L1021.55 403.14C1021.98 405.796 1019.63 405.184 1017.04 404.482C1012.78 403.331 1007.35 401.221 1005.75 397.717C1005.59 397.36 1005.52 396.966 1005.5 396.575L1004.27 375.827C1004.17 374.181 1005.18 372.669 1006.73 372.12L1012.38 370.123C1014.56 369.355 1016.9 370.745 1017.27 373.023Z" fill="url(#paint31_linear_608_4259)"/>
<path d="M1086.79 578.723L1094.53 574.275L1075.89 524.742L1071.42 527.762L1086.79 578.723Z" fill="#7D97F4"/>
<path d="M1065.78 531.396C1065.77 531.396 1065.77 531.396 1065.76 531.396C1065.61 531.384 1065.5 531.253 1065.51 531.104C1065.52 530.96 1066.53 516.546 1062.41 511.826C1061.62 510.927 1060.69 510.442 1059.63 510.382C1058.6 510.322 1057.65 510.691 1056.82 511.473C1052.37 515.615 1052.11 529.898 1052.11 530.041C1052.11 530.19 1051.98 530.309 1051.84 530.309C1051.83 530.309 1051.83 530.309 1051.83 530.309C1051.68 530.307 1051.56 530.184 1051.56 530.034C1051.57 529.437 1051.83 515.374 1056.44 511.076C1057.4 510.189 1058.47 509.776 1059.66 509.84C1060.87 509.908 1061.93 510.456 1062.81 511.469C1067.15 516.435 1066.06 531 1066.05 531.146C1066.04 531.289 1065.92 531.396 1065.78 531.396Z" fill="white"/>
<path d="M1031.83 424.787C1032.93 426.255 1049.71 446.21 1054.51 468.477C1059.31 490.745 1057.7 505.613 1057.7 505.613C1057.7 505.613 1052.82 509.253 1054.57 511.834C1056.33 514.415 1055.86 516.172 1058.11 516.673C1060.35 517.174 1063.13 517.88 1062.79 513.453C1062.45 509.026 1067.74 508.134 1066.86 505.458C1065.98 502.794 1071.97 430.93 1043.03 411.437C1042.9 411.345 1042.76 411.254 1042.62 411.164C1030.39 415.583 1030.05 422.428 1031.83 424.787Z" fill="url(#paint32_linear_608_4259)"/>
<path d="M1048.29 525.604L1071.42 527.762L1086.79 578.723L1053.57 579.591L1048.29 525.604Z" fill="#BDD0FB"/>
<g opacity="0.66">
<path d="M1087.26 577.926C1087.23 577.926 1087.2 577.923 1087.18 577.917C1087.01 577.873 1086.92 577.705 1086.96 577.54L1088.44 571.877L1076.73 535.518C1076.67 535.355 1076.76 535.182 1076.92 535.129C1077.09 535.08 1077.26 535.167 1077.31 535.328L1089.06 571.774C1089.08 571.83 1089.08 571.89 1089.06 571.947L1087.55 577.696C1087.52 577.835 1087.39 577.926 1087.26 577.926Z" fill="url(#paint33_linear_608_4259)"/>
</g>
<g opacity="0.66">
<path d="M1093.97 574.375C1093.93 574.375 1093.88 574.366 1093.84 574.345L1089.83 572.43C1089.68 572.357 1089.62 572.173 1089.69 572.02C1089.76 571.868 1089.95 571.803 1090.1 571.875L1094.1 573.79C1094.26 573.864 1094.32 574.047 1094.25 574.2C1094.2 574.311 1094.09 574.375 1093.97 574.375Z" fill="url(#paint34_linear_608_4259)"/>
</g>
<path d="M1029.32 352.781C1029.32 352.781 1060.82 343.091 1066 375.945C1071.18 408.798 1074.77 419.33 1082.58 413.665C1082.58 413.665 1081.29 425.939 1066.29 420.453C1027.37 406.213 1051.06 360.618 1029.32 352.781Z" fill="url(#paint35_linear_608_4259)"/>
<path d="M1012.53 349.136C1012.53 349.136 1003.36 351.626 995.78 363.356C988.195 375.087 991.816 381.465 997.237 383.005C1002.66 384.545 1010.94 385.54 1020.78 378.629C1030.62 371.718 1024.38 346.318 1012.53 349.136Z" fill="url(#paint36_linear_608_4259)"/>
<path d="M1015.81 371.148C1015.81 371.148 1024.82 353.705 1008.6 351.295L1004.42 353.451C1004.42 353.451 999.827 342.486 1010.27 338.956C1020.71 335.427 1034.72 341.716 1037.11 355.461C1039.49 369.205 1035.91 377.389 1028.13 382.761C1020.35 388.132 1018.46 380.596 1018.46 380.596C1018.46 380.596 1023.03 375.206 1021.92 371.843C1020.81 368.479 1016.75 371.81 1016.75 371.81L1015.81 371.148Z" fill="url(#paint37_linear_608_4259)"/>
<path d="M1017.35 373.435C1017.35 373.435 1021.93 364.442 1025.84 368.796C1029.74 373.151 1021.07 377.032 1017.73 378.217L1017.35 373.435Z" fill="url(#paint38_linear_608_4259)"/>
<path d="M770.561 545.243V568.351C770.561 576.957 773.797 585.245 778.462 592.473L782.877 598.12C787.987 606.033 796.736 610.558 806.154 610.558H902.845L903.577 608.073L927.276 521.248L947.162 510.526L944.201 505.11L921.983 517.157L914.364 545.243H770.561ZM777.46 552.142H912.669L903.132 587.326L898.1 605.959H806.154C798.854 605.959 792.001 601.687 788.044 595.558L784.026 589.149C780.005 582.932 777.46 575.755 777.46 568.351L777.46 552.142Z" fill="#BDD0FB"/>
<path d="M783.914 642.07C783.914 643.782 785.307 645.516 787.026 645.516H900.475C902.194 645.516 903.493 643.087 903.493 641.375V587.879C903.493 587.29 903.377 587.35 903.09 586.88L898.102 605.959H896.594V638.617H787.026C785.307 638.616 783.914 640.351 783.914 642.07Z" fill="#BDD0FB"/>
<path d="M846.897 548.491H842.756V606.725H846.897V548.491Z" fill="#BDD0FB"/>
<path d="M883.475 548.491H879.334V606.726H883.475V548.491Z" fill="#BDD0FB"/>
<path d="M811.178 548.491H807.037V606.725H811.178V548.491Z" fill="#BDD0FB"/>
<path d="M911.097 565.621H776.402V569.325H911.097V565.621Z" fill="#BDD0FB"/>
<path d="M905.217 585.892H779.775V589.596H905.217V585.892Z" fill="#BDD0FB"/>
<path d="M872.568 663.145C872.568 670.532 878.557 676.521 885.945 676.521C893.332 676.521 899.321 670.532 899.321 663.145C899.321 655.757 893.332 649.768 885.945 649.768C878.557 649.768 872.568 655.757 872.568 663.145ZM877.871 663.145C877.871 658.686 881.486 655.071 885.945 655.071C890.403 655.071 894.018 658.686 894.018 663.145C894.018 667.604 890.403 671.218 885.945 671.218C881.486 671.218 877.871 667.604 877.871 663.145Z" fill="#BDD0FB"/>
<path d="M789.443 663.145C789.443 670.532 795.432 676.521 802.82 676.521C810.207 676.521 816.196 670.532 816.196 663.145C816.196 655.757 810.207 649.768 802.82 649.768C795.432 649.768 789.443 655.757 789.443 663.145ZM794.746 663.145C794.746 658.686 798.361 655.071 802.82 655.071C807.278 655.071 810.893 658.686 810.893 663.145C810.893 667.604 807.278 671.218 802.82 671.218C798.361 671.218 794.746 667.604 794.746 663.145Z" fill="#BDD0FB"/>
<path d="M930.424 510.522C930.424 513.993 933.238 516.806 936.708 516.806H957.62C961.09 516.806 963.904 513.993 963.904 510.522C963.904 507.051 961.09 504.237 957.62 504.237H936.708C933.238 504.237 930.424 507.051 930.424 510.522Z" fill="#BDD0FB"/>
<path d="M748.88 690.968C748.78 700.817 740.32 708.801 729.979 708.824L480.025 709.369C469.611 709.391 460.965 701.412 460.718 691.525L449.071 225.968C448.794 214.899 457.535 205.947 468.593 206L733.916 207.269C744.889 207.321 753.692 216.319 753.58 227.34L748.88 690.968Z" fill="url(#paint39_linear_608_4259)"/>
<path d="M726.35 254.209C726.425 243.572 717.698 234.891 706.855 234.843L496.27 233.917C485.36 233.869 476.703 242.504 476.936 253.179L485.593 649.013C485.805 658.708 494.38 666.538 504.743 666.522L704.807 666.204C715.11 666.188 723.515 658.357 723.583 648.693L726.35 254.209Z" fill="#91B3FA"/>
<path opacity="0.54" d="M633.29 219.781C633.296 221.844 631.636 223.509 629.583 223.5L574.778 223.252C572.721 223.242 571.033 221.561 571.008 219.494C570.983 217.427 572.633 215.757 574.692 215.767L629.559 216.023C631.615 216.032 633.285 217.715 633.29 219.781Z" fill="url(#paint40_linear_608_4259)"/>
<path d="M389.153 698.935C389.153 698.935 387.957 705.702 387.371 712.4C387.142 715.018 389.161 717.291 391.786 717.4C400.707 717.772 419.788 718.494 426.635 718.189C427.664 718.143 428.337 717.089 427.956 716.132C427.637 715.329 427.022 714.681 426.237 714.32L394.718 699.834L389.153 698.935Z" fill="url(#paint41_linear_608_4259)"/>
<path d="M388.174 694.959L389.134 703.053C389.134 703.053 394.655 705.623 398.426 702.729L396.14 693.709L388.174 694.959Z" fill="url(#paint42_linear_608_4259)"/>
<path d="M388.896 542.787C388.481 544.9 386.669 648.267 397.718 694.589C397.899 695.345 397.515 696.124 396.796 696.418C395.101 697.11 391.779 698.113 387.797 698.247C386.564 698.288 385.459 697.487 385.111 696.303C381.952 685.556 366.818 631.708 364.844 580.269C362.638 522.791 364.844 578.312 364.844 578.312L366.138 542.782L388.896 542.787Z" fill="url(#paint43_linear_608_4259)"/>
<path d="M352.896 702.465C352.896 702.465 350.993 705.881 349.151 714.959C348.819 716.598 349.964 718.167 351.629 718.331C354.574 718.621 359.109 718.993 362.742 718.968C364.416 718.957 365.723 717.499 365.521 715.836C365.118 712.523 363.865 707.086 359.993 702.85L352.896 702.465Z" fill="url(#paint44_linear_608_4259)"/>
<path d="M351.223 692.054L353.467 704.295C353.467 704.295 355.685 705.945 360.075 704.749L359.003 691.579L351.223 692.054Z" fill="url(#paint45_linear_608_4259)"/>
<path d="M345.162 545.958C336.126 600.496 347.123 680.751 350.831 696.459C351.059 697.421 351.835 698.158 352.809 698.319C354.465 698.594 357.19 698.818 359.878 698.037C360.803 697.768 361.454 696.933 361.492 695.97C361.989 683.27 361.094 605.308 369.513 574.497C369.94 572.936 370.894 571.574 372.213 570.636L388.556 559.018L389.809 540.237L345.162 545.958Z" fill="url(#paint46_linear_608_4259)"/>
<path d="M402.742 442.621C375.66 442.174 345.779 449.732 345.779 449.732C337.707 496.834 344.368 551.163 344.368 551.163C365.333 556.661 388.984 547.802 388.984 547.802C392.468 528.114 408.727 472.707 408.727 472.707C421.959 471.065 432.859 467.247 441.835 462.2C434.988 454.263 431.76 444.164 430.358 438.194C420.783 441.17 411.095 442.759 402.742 442.621Z" fill="#7D97F4"/>
<path d="M482.734 402.732C480.074 399.519 476.707 401.039 476.707 401.039C472.721 417.873 451.825 431.523 430.357 438.194C431.759 444.164 434.987 454.263 441.834 462.2C477.462 442.167 482.734 402.732 482.734 402.732Z" fill="url(#paint47_linear_608_4259)"/>
<path d="M482.09 403.549C482.369 404.434 479.145 405.781 477.247 402.162C477.181 400.427 476.126 392.996 477.162 391.583C482.683 384.057 493.386 374.622 493.386 374.622C495.195 376.407 493.704 378.16 493.704 378.16L488.512 383.569C489.598 385.532 490.923 387.188 491.544 389.562C492.014 391.36 491.726 393.281 490.818 394.917C489.907 396.559 488.663 398.693 487.488 400.364C485.263 403.525 482.09 403.549 482.09 403.549Z" fill="url(#paint48_linear_608_4259)"/>
<path d="M486.242 387.079L481.511 391.09L480.025 395.083L484.244 399.763C484.244 399.763 485.662 391.84 486.716 390.124C487.77 388.409 487.224 387.58 486.242 387.079Z" fill="url(#paint49_linear_608_4259)"/>
<path d="M356.169 475.955L345.782 449.732C345.782 449.732 320.486 466.919 316.326 488.711C321.106 489.063 329.119 490.385 337.632 494.684C341.474 486.039 356.169 475.955 356.169 475.955Z" fill="#7D97F4"/>
<path d="M375.312 420.635L366.695 445.555C366.552 445.968 366.721 446.425 367.104 446.636C369.453 447.935 377.915 451.689 388.113 445.223C389.176 444.549 389.899 443.45 390.06 442.203L392.851 420.635H375.312V420.635Z" fill="url(#paint50_linear_608_4259)"/>
<path d="M394.061 397.559C394.061 397.559 403.523 415.371 402.31 422.566C401.098 429.761 389.37 429.244 379.13 423.401L371.975 404.168L394.061 397.559Z" fill="url(#paint51_linear_608_4259)"/>
<path d="M379.583 413.956C380 413.771 380.153 413.262 379.904 412.881C379.146 411.723 377.725 409.36 377.271 407.292C377.271 407.292 375.57 406.202 381.601 404.759C387.631 403.316 396.624 401.075 398.514 395.942C400.357 390.938 395.515 378.352 387.79 388.38C387.496 388.762 386.92 388.77 386.627 388.388C385.36 386.74 382.031 383.319 377.408 385.393C373.082 387.334 372.595 390.504 372.655 392.101C372.672 392.571 372.252 392.937 371.79 392.849C369.603 392.432 364.354 392.073 361.905 397.457C359.887 401.892 361.198 404.402 362.393 405.63C362.78 406.028 362.61 406.683 362.079 406.846C360.642 407.285 358.786 408.504 358.972 411.872C359.229 416.527 364.434 416.117 365.916 415.905C366.159 415.871 366.403 415.954 366.568 416.136C367.838 417.542 373.564 423.513 379.76 424.232C380.297 424.295 380.712 423.765 380.537 423.254L377.855 415.459C377.731 415.097 377.904 414.7 378.254 414.545L379.583 413.956Z" fill="url(#paint52_linear_608_4259)"/>
<path d="M380.66 415.062C380.66 415.062 373.923 410.44 373.431 414.332C372.938 418.225 379.497 419.971 382.746 418.519L380.66 415.062Z" fill="url(#paint53_linear_608_4259)"/>
<path d="M316.501 488.921C316.501 488.921 299.212 528.301 341.474 534.064L347.237 529.262C347.237 529.262 326.106 517.735 337.632 494.684C337.632 494.684 325.145 484.118 316.501 488.921Z" fill="url(#paint54_linear_608_4259)"/>
<path d="M347.238 529.262H362.605C362.605 529.262 372.21 541.748 371.25 544.629C370.289 547.511 360.796 545.22 360.796 545.22L355.882 536.945C355.882 536.945 341.475 537.906 341.475 534.064C341.475 530.222 347.238 529.262 347.238 529.262Z" fill="url(#paint55_linear_608_4259)"/>
<path d="M469.189 233.91C467.82 233.91 466.545 234.418 465.812 235.575C450.402 259.893 434.99 285.078 419.58 308.336C434.725 308.336 449.87 308.336 465.015 308.336C476.868 285.078 488.721 259.161 500.574 233.91C490.111 233.91 479.65 233.91 469.189 233.91Z" fill="url(#paint56_linear_608_4259)"/>
<path d="M510.45 308.896C495.305 308.896 480.161 308.896 465.016 308.896C476.868 283.958 488.721 259.02 500.574 234.082C511.768 234.082 522.962 234.082 534.156 234.082C526.254 259.02 518.352 283.958 510.45 308.896Z" fill="url(#paint57_linear_608_4259)"/>
<path d="M555.884 308.896C540.739 308.896 525.594 308.896 510.449 308.896C518.351 283.958 526.253 259.02 534.155 234.082C545.349 234.082 556.543 234.082 567.738 234.082C563.787 259.02 559.835 283.958 555.884 308.896Z" fill="url(#paint58_linear_608_4259)"/>
<path d="M601.32 308.896C586.175 308.896 571.03 308.896 555.885 308.896C559.836 283.958 563.787 259.02 567.738 234.082C578.932 234.082 590.126 234.082 601.32 234.082C601.32 259.02 601.32 283.958 601.32 308.896Z" fill="url(#paint59_linear_608_4259)"/>
<path d="M646.756 308.896C631.611 308.896 616.466 308.896 601.32 308.896C601.32 283.958 601.32 259.02 601.32 234.082C612.515 234.082 623.708 234.082 634.903 234.082C638.853 259.02 642.804 283.958 646.756 308.896Z" fill="url(#paint60_linear_608_4259)"/>
<path d="M692.192 308.896C677.047 308.896 661.902 308.896 646.757 308.896C642.806 283.958 638.855 259.02 634.904 234.082C646.098 234.082 657.292 234.082 668.487 234.082C676.388 259.02 684.29 283.958 692.192 308.896Z" fill="url(#paint61_linear_608_4259)"/>
<path d="M737.625 308.896C722.48 308.896 707.335 308.896 692.19 308.896C684.288 283.958 676.386 259.02 668.484 234.082C679.679 234.082 690.872 234.082 702.067 234.082C713.919 259.02 725.772 283.958 737.625 308.896Z" fill="url(#paint62_linear_608_4259)"/>
<path d="M736.829 235.575C736.095 234.418 734.821 233.91 733.452 233.91C722.99 233.91 712.529 233.91 702.068 233.91C713.92 259.161 725.773 285.078 737.626 308.336C752.77 308.336 767.915 308.336 783.061 308.336C767.651 285.078 752.239 259.893 736.829 235.575Z" fill="url(#paint63_linear_608_4259)"/>
<path d="M418.926 308.336V321.295C418.926 332.089 429.892 340.232 442.406 340.232H442.893C455.406 340.232 465.442 332.089 465.442 321.295V308.336H418.926Z" fill="url(#paint64_linear_608_4259)"/>
<path d="M465.443 308.336V321.295C465.443 332.089 475.115 340.232 487.417 340.232H487.897C500.199 340.232 509.966 332.089 509.966 321.295V308.336H465.443Z" fill="url(#paint65_linear_608_4259)"/>
<path d="M509.967 308.336V321.295C509.967 332.089 520.68 340.232 533.194 340.232H533.681C546.194 340.232 555.818 332.089 555.818 321.295V308.336H509.967Z" fill="url(#paint66_linear_608_4259)"/>
<path d="M555.818 308.336V321.295C555.818 332.089 565.902 340.232 578.204 340.232H578.683C590.985 340.232 601.006 332.089 601.006 321.295V308.336H555.818Z" fill="url(#paint67_linear_608_4259)"/>
<path d="M601.002 308.336V321.295C601.002 332.089 611.462 340.232 623.976 340.232H624.463C636.977 340.232 646.189 332.089 646.189 321.295V308.336H601.002Z" fill="url(#paint68_linear_608_4259)"/>
<path d="M646.189 308.336V321.295C646.189 332.089 656.684 340.232 668.987 340.232H669.466C681.768 340.232 692.041 332.089 692.041 321.295V308.336H646.189Z" fill="url(#paint69_linear_608_4259)"/>
<path d="M692.041 308.336V321.295C692.041 332.089 702.249 340.232 714.762 340.232H715.249C727.762 340.232 737.893 332.089 737.893 321.295V308.336H692.041Z" fill="url(#paint70_linear_608_4259)"/>
<path d="M737.893 308.336V321.295C737.893 332.089 747.47 340.232 759.772 340.232H760.252C772.554 340.232 782.415 332.089 782.415 321.295V308.336H737.893Z" fill="url(#paint71_linear_608_4259)"/>
<path opacity="0.7" d="M672.869 397.854C672.024 396.815 670.698 396.384 669.293 396.413L541.307 399.098L538.074 388.828C537.625 387.398 536.28 386.482 534.758 386.522L517.186 386.983C515.301 387.033 513.775 388.343 513.775 390.224C513.775 392.104 515.301 393.339 517.186 393.294L532.202 392.939L559.374 479.765C559.832 481.227 561.204 482.232 562.759 482.253L652.591 483.459C654.699 483.487 656.411 482.164 656.411 480.171C656.411 478.178 654.699 476.813 652.591 476.79L565.38 475.85L558.381 453.306L654.218 453.452C656.18 453.455 657.91 452.17 658.46 450.39L673.586 401.483C673.981 400.207 673.715 398.893 672.869 397.854Z" fill="white"/>
<path opacity="0.7" d="M575.898 487.609C568.507 487.494 562.527 493.247 562.527 500.432C562.527 507.617 568.507 513.62 575.898 513.814C583.334 514.01 589.417 508.259 589.417 500.994C589.417 493.729 583.334 487.724 575.898 487.609ZM575.898 506.826C572.444 506.745 569.64 503.944 569.64 500.581C569.64 497.218 572.444 494.533 575.898 494.597C579.363 494.661 582.189 497.463 582.189 500.843C582.189 504.223 579.363 506.907 575.898 506.826Z" fill="white"/>
<path opacity="0.7" d="M635.785 488.54C628.027 488.419 621.752 494.309 621.752 501.67C621.752 509.031 628.027 515.184 635.785 515.387C643.59 515.593 649.977 509.704 649.977 502.26C649.977 494.816 643.59 488.661 635.785 488.54ZM635.785 508.228C632.159 508.143 629.217 505.271 629.217 501.826C629.217 498.381 632.159 495.632 635.785 495.699C639.421 495.766 642.388 498.638 642.388 502.101C642.388 505.565 639.421 508.313 635.785 508.228Z" fill="white"/>
<path opacity="0.7" d="M683.97 598.115H521.768C520.365 598.115 519.229 596.978 519.229 595.576V548.918C519.229 547.516 520.365 546.379 521.768 546.379H683.97C685.373 546.379 686.509 547.516 686.509 548.918V595.576C686.509 596.978 685.373 598.115 683.97 598.115Z" fill="white"/>
<path opacity="0.7" d="M675.346 636.054H526.94C525.537 636.054 524.4 634.917 524.4 633.515V614.45C524.4 613.047 525.537 611.91 526.94 611.91H675.346C676.748 611.91 677.885 613.047 677.885 614.45V633.515C677.885 634.917 676.748 636.054 675.346 636.054Z" fill="white"/>
<defs>
<linearGradient id="paint0_linear_608_4259" x1="1318.74" y1="924.735" x2="804.613" y2="-123.762" gradientUnits="userSpaceOnUse">
<stop stop-color="#DAE3FE"/>
<stop offset="1" stop-color="#E9EFFD"/>
</linearGradient>
<linearGradient id="paint1_linear_608_4259" x1="689.651" y1="681.412" x2="592.791" y2="547.593" gradientUnits="userSpaceOnUse">
<stop stop-color="#FF928E"/>
<stop offset="1" stop-color="#FE7062"/>
</linearGradient>
<linearGradient id="paint2_linear_608_4259" x1="890.258" y1="196.24" x2="1046.69" y2="196.24" gradientUnits="userSpaceOnUse">
<stop stop-color="#2B3582"/>
<stop offset="1" stop-color="#150E42"/>
</linearGradient>
<linearGradient id="paint3_linear_608_4259" x1="843.523" y1="195.341" x2="999.955" y2="195.341" gradientUnits="userSpaceOnUse">
<stop stop-color="#2B3582"/>
<stop offset="1" stop-color="#150E42"/>
</linearGradient>
<linearGradient id="paint4_linear_608_4259" x1="866.76" y1="426.842" x2="835.784" y2="673.362" gradientUnits="userSpaceOnUse">
<stop stop-color="#09005D"/>
<stop offset="1" stop-color="#1A0F91"/>
</linearGradient>
<linearGradient id="paint5_linear_608_4259" x1="995.204" y1="351.957" x2="1171.23" y2="132.472" gradientUnits="userSpaceOnUse">
<stop stop-color="#4F52FF"/>
<stop offset="1" stop-color="#4042E2"/>
</linearGradient>
<linearGradient id="paint6_linear_608_4259" x1="1296.21" y1="332.684" x2="1228.84" y2="373.973" gradientUnits="userSpaceOnUse">
<stop stop-color="#4F52FF"/>
<stop offset="1" stop-color="#4042E2"/>
</linearGradient>
<linearGradient id="paint7_linear_608_4259" x1="824.608" y1="421.545" x2="793.632" y2="668.065" gradientUnits="userSpaceOnUse">
<stop stop-color="#09005D"/>
<stop offset="1" stop-color="#1A0F91"/>
</linearGradient>
<linearGradient id="paint8_linear_608_4259" x1="863.764" y1="306.128" x2="714.802" y2="158.081" gradientUnits="userSpaceOnUse">
<stop stop-color="#D74763"/>
<stop offset="1" stop-color="#FA7790"/>
</linearGradient>
<linearGradient id="paint9_linear_608_4259" x1="844.261" y1="238.239" x2="864.56" y2="251.855" gradientUnits="userSpaceOnUse">
<stop stop-color="#09005D"/>
<stop offset="1" stop-color="#1A0F91"/>
</linearGradient>
<linearGradient id="paint10_linear_608_4259" x1="1098.55" y1="242.956" x2="1118.11" y2="171.613" gradientUnits="userSpaceOnUse">
<stop stop-color="#FEBBBA"/>
<stop offset="1" stop-color="#FF928E"/>
</linearGradient>
<linearGradient id="paint11_linear_608_4259" x1="1136.69" y1="257.381" x2="1104.37" y2="335.604" gradientUnits="userSpaceOnUse">
<stop stop-color="#09005D"/>
<stop offset="1" stop-color="#1A0F91"/>
</linearGradient>
<linearGradient id="paint12_linear_608_4259" x1="1075.29" y1="342.729" x2="1080.36" y2="293.115" gradientUnits="userSpaceOnUse">
<stop stop-color="#FEBBBA"/>
<stop offset="1" stop-color="#FF928E"/>
</linearGradient>
<linearGradient id="paint13_linear_608_4259" x1="1124.15" y1="277.789" x2="1076.67" y2="347.844" gradientUnits="userSpaceOnUse">
<stop stop-color="#09005D"/>
<stop offset="1" stop-color="#1A0F91"/>
</linearGradient>
<linearGradient id="paint14_linear_608_4259" x1="363.572" y1="2083.25" x2="354.518" y2="2108.24" gradientUnits="userSpaceOnUse">
<stop stop-color="#09005D"/>
<stop offset="1" stop-color="#1A0F91"/>
</linearGradient>
<linearGradient id="paint15_linear_608_4259" x1="1066.46" y1="77.272" x2="1035.26" y2="113.287" gradientUnits="userSpaceOnUse">
<stop stop-color="#09005D"/>
<stop offset="1" stop-color="#1A0F91"/>
</linearGradient>
<linearGradient id="paint16_linear_608_4259" x1="1064.09" y1="138.219" x2="894.938" y2="301.38" gradientUnits="userSpaceOnUse">
<stop stop-color="#D74763"/>
<stop offset="1" stop-color="#FA7790"/>
</linearGradient>
<linearGradient id="paint17_linear_608_4259" x1="1020.4" y1="192.824" x2="948.921" y2="192.824" gradientUnits="userSpaceOnUse">
<stop stop-color="#FEBBBA"/>
<stop offset="1" stop-color="#FF928E"/>
</linearGradient>
<linearGradient id="paint18_linear_608_4259" x1="1049.49" y1="158.662" x2="1047.84" y2="132.916" gradientUnits="userSpaceOnUse">
<stop stop-color="#FEBBBA"/>
<stop offset="1" stop-color="#FF928E"/>
</linearGradient>
<linearGradient id="paint19_linear_608_4259" x1="1047.06" y1="136.879" x2="1078.16" y2="77.3571" gradientUnits="userSpaceOnUse">
<stop stop-color="#FEBBBA"/>
<stop offset="1" stop-color="#FF928E"/>
</linearGradient>
<linearGradient id="paint20_linear_608_4259" x1="1085.92" y1="103.123" x2="1042.37" y2="111.861" gradientUnits="userSpaceOnUse">
<stop stop-color="#09005D"/>
<stop offset="1" stop-color="#1A0F91"/>
</linearGradient>
<linearGradient id="paint21_linear_608_4259" x1="1039.94" y1="133.158" x2="1071.04" y2="73.6372" gradientUnits="userSpaceOnUse">
<stop stop-color="#FEBBBA"/>
<stop offset="1" stop-color="#FF928E"/>
</linearGradient>
<linearGradient id="paint22_linear_608_4259" x1="1023.67" y1="191.999" x2="1060.51" y2="204.081" gradientUnits="userSpaceOnUse">
<stop stop-color="#4F52FF"/>
<stop offset="1" stop-color="#4042E2"/>
</linearGradient>
<linearGradient id="paint23_linear_608_4259" x1="1062.07" y1="223.525" x2="1106.98" y2="163.408" gradientUnits="userSpaceOnUse">
<stop stop-color="#4F52FF"/>
<stop offset="1" stop-color="#4042E2"/>
</linearGradient>
<linearGradient id="paint24_linear_608_4259" x1="968.986" y1="464.398" x2="949.849" y2="406.366" gradientUnits="userSpaceOnUse">
<stop stop-color="#FEBBBA"/>
<stop offset="1" stop-color="#FF928E"/>
</linearGradient>
<linearGradient id="paint25_linear_608_4259" x1="1072.27" y1="666.578" x2="1090.56" y2="668.003" gradientUnits="userSpaceOnUse">
<stop stop-color="#09005D"/>
<stop offset="1" stop-color="#1A0F91"/>
</linearGradient>
<linearGradient id="paint26_linear_608_4259" x1="989.341" y1="732.697" x2="1039.65" y2="427.034" gradientUnits="userSpaceOnUse">
<stop stop-color="#FEBBBA"/>
<stop offset="1" stop-color="#FF928E"/>
</linearGradient>
<linearGradient id="paint27_linear_608_4259" x1="987.532" y1="656.61" x2="1017.14" y2="658.917" gradientUnits="userSpaceOnUse">
<stop stop-color="#09005D"/>
<stop offset="1" stop-color="#1A0F91"/>
</linearGradient>
<linearGradient id="paint28_linear_608_4259" x1="1041.95" y1="741.408" x2="1092.27" y2="435.659" gradientUnits="userSpaceOnUse">
<stop stop-color="#FEBBBA"/>
<stop offset="1" stop-color="#FF928E"/>
</linearGradient>
<linearGradient id="paint29_linear_608_4259" x1="1007.54" y1="435.233" x2="1257.45" y2="133.171" gradientUnits="userSpaceOnUse">
<stop stop-color="#B53359"/>
<stop offset="1" stop-color="#D74763"/>
</linearGradient>
<linearGradient id="paint30_linear_608_4259" x1="1034.75" y1="573.111" x2="1009.91" y2="467.178" gradientUnits="userSpaceOnUse">
<stop stop-color="#09005D"/>
<stop offset="1" stop-color="#1A0F91"/>
</linearGradient>
<linearGradient id="paint31_linear_608_4259" x1="1021.22" y1="431.179" x2="1008.07" y2="369.29" gradientUnits="userSpaceOnUse">
<stop stop-color="#FEBBBA"/>
<stop offset="1" stop-color="#FF928E"/>
</linearGradient>
<linearGradient id="paint32_linear_608_4259" x1="1045.94" y1="417.008" x2="1056.56" y2="538.04" gradientUnits="userSpaceOnUse">
<stop stop-color="#FEBBBA"/>
<stop offset="1" stop-color="#FF928E"/>
</linearGradient>
<linearGradient id="paint33_linear_608_4259" x1="1076.71" y1="556.521" x2="1089.07" y2="556.521" gradientUnits="userSpaceOnUse">
<stop stop-color="#DAE3FE"/>
<stop offset="1" stop-color="#E9EFFD"/>
</linearGradient>
<linearGradient id="paint34_linear_608_4259" x1="1089.66" y1="573.11" x2="1094.28" y2="573.11" gradientUnits="userSpaceOnUse">
<stop stop-color="#DAE3FE"/>
<stop offset="1" stop-color="#E9EFFD"/>
</linearGradient>
<linearGradient id="paint35_linear_608_4259" x1="998.622" y1="329.335" x2="1077.72" y2="407.368" gradientUnits="userSpaceOnUse">
<stop stop-color="#09005D"/>
<stop offset="1" stop-color="#1A0F91"/>
</linearGradient>
<linearGradient id="paint36_linear_608_4259" x1="997.238" y1="357.57" x2="1035.47" y2="391.846" gradientUnits="userSpaceOnUse">
<stop stop-color="#FEBBBA"/>
<stop offset="1" stop-color="#FF928E"/>
</linearGradient>
<linearGradient id="paint37_linear_608_4259" x1="2015.2" y1="1644.07" x2="2083.14" y2="1731.98" gradientUnits="userSpaceOnUse">
<stop stop-color="#09005D"/>
<stop offset="1" stop-color="#1A0F91"/>
</linearGradient>
<linearGradient id="paint38_linear_608_4259" x1="1000.26" y1="354.196" x2="1038.5" y2="388.472" gradientUnits="userSpaceOnUse">
<stop stop-color="#FEBBBA"/>
<stop offset="1" stop-color="#FF928E"/>
</linearGradient>
<linearGradient id="paint39_linear_608_4259" x1="600.384" y1="42.2721" x2="602.971" y2="549.342" gradientUnits="userSpaceOnUse">
<stop stop-color="#09005D"/>
<stop offset="1" stop-color="#1A0F91"/>
</linearGradient>
<linearGradient id="paint40_linear_608_4259" x1="603.352" y1="146.251" x2="602.075" y2="224.166" gradientUnits="userSpaceOnUse">
<stop stop-color="#4042E2"/>
<stop offset="1" stop-color="#4F52FF"/>
</linearGradient>
<linearGradient id="paint41_linear_608_4259" x1="425.637" y1="689.582" x2="310.217" y2="815.128" gradientUnits="userSpaceOnUse">
<stop stop-color="#09005D"/>
<stop offset="1" stop-color="#1A0F91"/>
</linearGradient>
<linearGradient id="paint42_linear_608_4259" x1="388.174" y1="698.907" x2="398.426" y2="698.907" gradientUnits="userSpaceOnUse">
<stop stop-color="#A22B25"/>
<stop offset="1" stop-color="#C0423C"/>
</linearGradient>
<linearGradient id="paint43_linear_608_4259" x1="415.346" y1="468.06" x2="356.672" y2="733.179" gradientUnits="userSpaceOnUse">
<stop stop-color="#4F52FF"/>
<stop offset="1" stop-color="#4042E2"/>
</linearGradient>
<linearGradient id="paint44_linear_608_4259" x1="399.745" y1="665.778" x2="284.325" y2="791.322" gradientUnits="userSpaceOnUse">
<stop stop-color="#09005D"/>
<stop offset="1" stop-color="#1A0F91"/>
</linearGradient>
<linearGradient id="paint45_linear_608_4259" x1="351.223" y1="698.381" x2="360.074" y2="698.381" gradientUnits="userSpaceOnUse">
<stop stop-color="#A22B25"/>
<stop offset="1" stop-color="#C0423C"/>
</linearGradient>
<linearGradient id="paint46_linear_608_4259" x1="388.5" y1="462.119" x2="329.826" y2="727.238" gradientUnits="userSpaceOnUse">
<stop stop-color="#4F52FF"/>
<stop offset="1" stop-color="#4042E2"/>
</linearGradient>
<linearGradient id="paint47_linear_608_4259" x1="438.655" y1="461.468" x2="429.964" y2="479.575" gradientUnits="userSpaceOnUse">
<stop stop-color="#A22B25"/>
<stop offset="1" stop-color="#C0423C"/>
</linearGradient>
<linearGradient id="paint48_linear_608_4259" x1="471.068" y1="422.66" x2="435.922" y2="502.626" gradientUnits="userSpaceOnUse">
<stop stop-color="#A22B25"/>
<stop offset="1" stop-color="#C0423C"/>
</linearGradient>
<linearGradient id="paint49_linear_608_4259" x1="510.17" y1="336.292" x2="497.132" y2="364.54" gradientUnits="userSpaceOnUse">
<stop stop-color="#A22B25"/>
<stop offset="1" stop-color="#C0423C"/>
</linearGradient>
<linearGradient id="paint50_linear_608_4259" x1="390.715" y1="420.72" x2="466.763" y2="315.34" gradientUnits="userSpaceOnUse">
<stop stop-color="#A22B25"/>
<stop offset="1" stop-color="#C0423C"/>
</linearGradient>
<linearGradient id="paint51_linear_608_4259" x1="399.084" y1="418.097" x2="370.27" y2="400.523" gradientUnits="userSpaceOnUse">
<stop stop-color="#A22B25"/>
<stop offset="1" stop-color="#C0423C"/>
</linearGradient>
<linearGradient id="paint52_linear_608_4259" x1="355.019" y1="381.998" x2="392.243" y2="411.398" gradientUnits="userSpaceOnUse">
<stop stop-color="#09005D"/>
<stop offset="1" stop-color="#1A0F91"/>
</linearGradient>
<linearGradient id="paint53_linear_608_4259" x1="391.515" y1="424.651" x2="365.591" y2="408.839" gradientUnits="userSpaceOnUse">
<stop stop-color="#A22B25"/>
<stop offset="1" stop-color="#C0423C"/>
</linearGradient>
<linearGradient id="paint54_linear_608_4259" x1="330.452" y1="517.578" x2="348.559" y2="568.279" gradientUnits="userSpaceOnUse">
<stop stop-color="#A22B25"/>
<stop offset="1" stop-color="#C0423C"/>
</linearGradient>
<linearGradient id="paint55_linear_608_4259" x1="346.699" y1="511.776" x2="364.807" y2="562.477" gradientUnits="userSpaceOnUse">
<stop stop-color="#A22B25"/>
<stop offset="1" stop-color="#C0423C"/>
</linearGradient>
<linearGradient id="paint56_linear_608_4259" x1="460.077" y1="331.513" x2="460.077" y2="670.796" gradientUnits="userSpaceOnUse">
<stop stop-color="#4042E2"/>
<stop offset="1" stop-color="#4F52FF"/>
</linearGradient>
<linearGradient id="paint57_linear_608_4259" x1="499.645" y1="273.657" x2="502.032" y2="361.017" gradientUnits="userSpaceOnUse">
<stop stop-color="#D74763"/>
<stop offset="1" stop-color="#FA7790"/>
</linearGradient>
<linearGradient id="paint58_linear_608_4259" x1="539.094" y1="332.195" x2="539.094" y2="673.248" gradientUnits="userSpaceOnUse">
<stop stop-color="#4042E2"/>
<stop offset="1" stop-color="#4F52FF"/>
</linearGradient>
<linearGradient id="paint59_linear_608_4259" x1="578.662" y1="273.674" x2="581.07" y2="361.788" gradientUnits="userSpaceOnUse">
<stop stop-color="#D74763"/>
<stop offset="1" stop-color="#FA7790"/>
</linearGradient>
<linearGradient id="paint60_linear_608_4259" x1="624.038" y1="332.195" x2="624.038" y2="673.248" gradientUnits="userSpaceOnUse">
<stop stop-color="#4042E2"/>
<stop offset="1" stop-color="#4F52FF"/>
</linearGradient>
<linearGradient id="paint61_linear_608_4259" x1="663.604" y1="273.53" x2="666.032" y2="362.397" gradientUnits="userSpaceOnUse">
<stop stop-color="#D74763"/>
<stop offset="1" stop-color="#FA7790"/>
</linearGradient>
<linearGradient id="paint62_linear_608_4259" x1="703.055" y1="332.195" x2="703.055" y2="673.248" gradientUnits="userSpaceOnUse">
<stop stop-color="#4042E2"/>
<stop offset="1" stop-color="#4F52FF"/>
</linearGradient>
<linearGradient id="paint63_linear_608_4259" x1="742.621" y1="273.17" x2="745.057" y2="362.34" gradientUnits="userSpaceOnUse">
<stop stop-color="#D74763"/>
<stop offset="1" stop-color="#FA7790"/>
</linearGradient>
<linearGradient id="paint64_linear_608_4259" x1="442.3" y1="286.546" x2="441.881" y2="388.318" gradientUnits="userSpaceOnUse">
<stop stop-color="#4042E2"/>
<stop offset="1" stop-color="#4F52FF"/>
</linearGradient>
<linearGradient id="paint65_linear_608_4259" x1="485.938" y1="49.8716" x2="486.8" y2="179.213" gradientUnits="userSpaceOnUse">
<stop stop-color="#FA7790"/>
<stop offset="1" stop-color="#D74763"/>
</linearGradient>
<linearGradient id="paint66_linear_608_4259" x1="533.009" y1="286.549" x2="532.59" y2="388.315" gradientUnits="userSpaceOnUse">
<stop stop-color="#4042E2"/>
<stop offset="1" stop-color="#4F52FF"/>
</linearGradient>
<linearGradient id="paint67_linear_608_4259" x1="576.641" y1="49.2671" x2="577.504" y2="178.608" gradientUnits="userSpaceOnUse">
<stop stop-color="#FA7790"/>
<stop offset="1" stop-color="#D74763"/>
</linearGradient>
<linearGradient id="paint68_linear_608_4259" x1="623.712" y1="286.552" x2="623.293" y2="388.312" gradientUnits="userSpaceOnUse">
<stop stop-color="#4042E2"/>
<stop offset="1" stop-color="#4F52FF"/>
</linearGradient>
<linearGradient id="paint69_linear_608_4259" x1="667.341" y1="48.6623" x2="668.203" y2="178.003" gradientUnits="userSpaceOnUse">
<stop stop-color="#FA7790"/>
<stop offset="1" stop-color="#D74763"/>
</linearGradient>
<linearGradient id="paint70_linear_608_4259" x1="715.083" y1="286.548" x2="714.664" y2="388.321" gradientUnits="userSpaceOnUse">
<stop stop-color="#4042E2"/>
<stop offset="1" stop-color="#4F52FF"/>
</linearGradient>
<linearGradient id="paint71_linear_608_4259" x1="758.375" y1="48.0555" x2="759.237" y2="177.396" gradientUnits="userSpaceOnUse">
<stop stop-color="#FA7790"/>
<stop offset="1" stop-color="#D74763"/>
</linearGradient>
</defs>
</svg>
