<svg id="Capa_1" data-name="Capa 1" xmlns="http://www.w3.org/2000/svg" viewBox="0 0 1055.81 567.18"><defs><style>.cls-1{fill:#2a2c2d;}.cls-2{fill:#ffad80;}</style></defs><path class="cls-1" d="M179.89,432.76a5.08,5.08,0,0,0,2.49-2,8.3,8.3,0,0,0,1.11-3.45,40.2,40.2,0,0,0,.27-5V353.52l-3.93-9.33h14.75l33.3,78.92a27.59,27.59,0,0,1-.1-6.37A32.45,32.45,0,0,1,232,403.8q3.51-6,7.75-12.2,2.53-3.81,5.14-7.8a80.19,80.19,0,0,0,4.77-8.38A63.62,63.62,0,0,0,253.4,366a53,53,0,0,0,2.06-10.72,36.53,36.53,0,0,0-.21-4.08,8.43,8.43,0,0,0-.95-3.18,5.22,5.22,0,0,0-2.12-2.07,8,8,0,0,0-3.72-.74v-1.06q4.56.31,7.59.47c2,.11,3.94.16,5.78.16s4-.05,6.15-.16,4.81-.26,8.06-.47v1.06a8.38,8.38,0,0,0-3.71.69,4.91,4.91,0,0,0-2.12,2,7.85,7.85,0,0,0-1,3.13,36.53,36.53,0,0,0-.21,4.08v67.25a28.2,28.2,0,0,0,.37,4.94,8.64,8.64,0,0,0,1.28,3.39,5.6,5.6,0,0,0,2.54,2,11.29,11.29,0,0,0,4.3.68v1.07c-2.48-.15-4.95-.25-7.43-.32s-4.84-.11-7.1-.11-4.37,0-6.32.05-3.62.09-5,.16c-1.7.07-3.22.15-4.57.22v-1.07a10.51,10.51,0,0,0,4.51-.79,5.54,5.54,0,0,0,2.5-2.33,10.56,10.56,0,0,0,1.11-3.82,46.68,46.68,0,0,0,.26-5.15V362.54a56.62,56.62,0,0,1-4.88,13.57,121.32,121.32,0,0,1-6.78,11.57q-3.62,5.4-7.06,10.39a53.93,53.93,0,0,0-5.57,10.18,32.48,32.48,0,0,0-2.38,10.82,27.37,27.37,0,0,0,2.6,12.2l1.27,3.19H217.91l-33-78.18v66.08a54.68,54.68,0,0,0,.22,5.52,6.66,6.66,0,0,0,1.11,3.34,4.69,4.69,0,0,0,2.55,1.7,16.76,16.76,0,0,0,4.5.47v1.07c-1.84-.07-3.41-.13-4.72-.16s-2.58-.06-3.81-.06-2.59,0-4,.06-3.23.09-5.35.16v-1.07A13,13,0,0,0,179.89,432.76Z"/><path class="cls-1" d="M295.77,344.19q4.56.31,7.59.47c2,.11,3.94.16,5.78.16s3.67-.05,5.51-.16l6.58-.37h.85a3.58,3.58,0,0,0,.85-.1,41.78,41.78,0,0,1,10.44.58,14.38,14.38,0,0,1,7.48,3.82,16.71,16.71,0,0,1,4.25,8.27,50.74,50.74,0,0,1,.84,13.84,51,51,0,0,0,.75,12.47,24.27,24.27,0,0,0,3,8.11,11.9,11.9,0,0,0,4.56,4.4,11.58,11.58,0,0,0,5.36,1.33,14,14,0,0,0,3.92-.58,11.29,11.29,0,0,0,3.66-1.81A10.87,10.87,0,0,0,370,391.5a11.33,11.33,0,0,0,1.49-4.67v-31.4a37.69,37.69,0,0,0-.21-4.19,8.43,8.43,0,0,0-1-3.18,5.1,5.1,0,0,0-2.12-2.07,7.93,7.93,0,0,0-3.71-.74v-1.06q3.28.31,8.17.31,3.6,0,7-.31v1.06A8,8,0,0,0,376,346a5.16,5.16,0,0,0-2.12,2.07,8.43,8.43,0,0,0-.95,3.18,35.41,35.41,0,0,0-.21,4.19v49.64a30.92,30.92,0,0,1-1.81,11.14,24.58,24.58,0,0,1-4.77,7.9,25.2,25.2,0,0,1-6.74,5.25,38.47,38.47,0,0,1-7.63,3.13,42.55,42.55,0,0,1-7.59,1.49q-3.7.38-6.47.48a47.37,47.37,0,0,1-13.1-1.38,33.37,33.37,0,0,1-11.14-5,25.52,25.52,0,0,1-7.74-8.64,25,25,0,0,1-2.92-12.36V355.43a37.69,37.69,0,0,0-.21-4.19,8.43,8.43,0,0,0-.95-3.18,5.18,5.18,0,0,0-2.13-2.07,7.9,7.9,0,0,0-3.71-.74Zm20.58,62.9a28,28,0,0,0,1.86,10.34,24.25,24.25,0,0,0,5.14,8.12,23.94,23.94,0,0,0,7.9,5.35,25.63,25.63,0,0,0,10.13,2c.78,0,1.59,0,2.44-.1s1.7-.18,2.55-.32q11.36-1.9,18.14-8.27t7-18V391a11.16,11.16,0,0,1-4.83,5.31,15,15,0,0,1-6.95,1.91,11.42,11.42,0,0,1-7.63-2.5,17,17,0,0,1-4.67-6.41,30.69,30.69,0,0,1-2.23-8.86,64.76,64.76,0,0,1-.32-9.71q.44-10.92-1.69-16.33a12.83,12.83,0,0,0-8-7.85,21.54,21.54,0,0,0-5.83-1.17c-2.12-.14-4.32-.17-6.58-.1-2.83.14-4.61,1.08-5.36,2.81a18.31,18.31,0,0,0-1.11,7.05Z"/><path class="cls-1" d="M397.92,388.84a49.15,49.15,0,0,1,3.29-18.19,41,41,0,0,1,9.28-14.27,42.54,42.54,0,0,1,14.37-9.28,49.58,49.58,0,0,1,18.46-3.34A58.34,58.34,0,0,1,460,346.15a51.76,51.76,0,0,1,15.28,7.48L471,369.54l-1.06-.21a56.79,56.79,0,0,0-3.5-9.71,30.14,30.14,0,0,0-5.19-7.8,22.41,22.41,0,0,0-7.22-5.14,23.07,23.07,0,0,0-9.54-1.86,27.62,27.62,0,0,0-21.75,9.55,17,17,0,0,0,0,10.61,23.61,23.61,0,0,0,5.41,8.85,29.45,29.45,0,0,0,9,6.32,35,35,0,0,0,10.77,3.07q5.63.54,11.4.8t11.19.26c3.4,0,6.56-.07,9.5-.21s5.5-.28,7.69-.42v1.16c-3.4,0-5.64.85-6.74,2.55s-1.68,4.38-1.75,8.06v27.05a39.8,39.8,0,0,0-7.53,2c-2.12.82-4.07,1.66-5.83,2.55s-3.43,1.78-5,2.7a42.09,42.09,0,0,1-4.93,2.49,31.77,31.77,0,0,1-5.68,1.81,33.22,33.22,0,0,1-7.21.69,47.36,47.36,0,0,1-17.61-3.24,42.25,42.25,0,0,1-24-23.71A49.11,49.11,0,0,1,397.92,388.84ZM421,356.38a43.52,43.52,0,0,0-7,15.23,74.56,74.56,0,0,0-2.22,18.4,61.22,61.22,0,0,0,2.12,16.12,46,46,0,0,0,6.25,13.95,32.4,32.4,0,0,0,10.24,9.76,27,27,0,0,0,14.16,3.66,20.62,20.62,0,0,0,8.43-1.7,20.08,20.08,0,0,0,6.63-4.61A21.82,21.82,0,0,0,464,420.4a21.13,21.13,0,0,0,1.6-8.11V395.84a8.46,8.46,0,0,0-1.22-4.72,10.14,10.14,0,0,0-3.66-3.18,26.21,26.21,0,0,0-6.26-2.23c-2.55-.6-5.62-1.18-9.23-1.75a29.76,29.76,0,0,1-6.37-1.75,32.53,32.53,0,0,1-5.83-3,27.65,27.65,0,0,1-9.76-9.86A19.11,19.11,0,0,1,421,356.38Z"/><path class="cls-1" d="M510.41,432.76a5,5,0,0,0,2.49-2,8.3,8.3,0,0,0,1.12-3.45,42.44,42.44,0,0,0,.26-5V353.2l-2.07-3.76-1.53-2.81c-.5-.92-1-1.74-1.38-2.44h15.59c.57,1.06,1.75,3.21,3.55,6.47s4,7.18,6.53,11.77,5.34,9.64,8.38,15.12L552.47,394q4.56,8.22,8.75,15.86t7.37,13.26V356.28a42.44,42.44,0,0,0-.26-5,8.21,8.21,0,0,0-1.12-3.44,5,5,0,0,0-2.49-2,13,13,0,0,0-4.51-.63v-1.06c2.12.07,3.91.12,5.36.15s2.79.06,4,.06,2.51,0,3.82-.06,2.88-.08,4.72-.15v1.06a15.05,15.05,0,0,0-4.51.53,4.49,4.49,0,0,0-2.49,1.8A7.92,7.92,0,0,0,570,351a46.9,46.9,0,0,0-.26,5.35v68.85c.78,1.41,1.48,2.69,2.12,3.82s1.17,2.08,1.59,2.86l1.38,2.55H559.36q-1.26-2.34-4.19-7.59t-6.78-12.2q-3.89-6.94-8.33-15.06t-8.91-16.12q-4.46-8-8.54-15.38t-7.16-12.89v67.46a40.93,40.93,0,0,0,.27,5.15,7.21,7.21,0,0,0,1.11,3.28,4.57,4.57,0,0,0,2.49,1.75,15.05,15.05,0,0,0,4.51.53v1.07c-1.84-.07-3.41-.13-4.72-.16s-2.58-.06-3.82-.06-2.58,0-4,.06-3.24.09-5.36.16v-1.07A13,13,0,0,0,510.41,432.76Z"/><path class="cls-1" d="M596.38,433.39a10.83,10.83,0,0,0,4.35-.74,5.22,5.22,0,0,0,2.55-2.23,10.55,10.55,0,0,0,1.16-3.76,38.11,38.11,0,0,0,.32-5.36V355.43a37.69,37.69,0,0,0-.21-4.19,8.43,8.43,0,0,0-.95-3.18,5.22,5.22,0,0,0-2.12-2.07,8,8,0,0,0-3.72-.74v-1.06H668.3v.31L671.91,364l-.85.32a72.33,72.33,0,0,0-7.64-9.07,32.42,32.42,0,0,0-8.11-5.89,34.48,34.48,0,0,0-10-3.13,82.56,82.56,0,0,0-13-.9h-14v37.24h4.35a79.49,79.49,0,0,0,12-.75,25.54,25.54,0,0,0,7.9-2.38,12.82,12.82,0,0,0,4.93-4.46,28.31,28.31,0,0,0,3.08-6.95h.63v30.13h-.63a52,52,0,0,0-3.82-6.68,15.33,15.33,0,0,0-4.83-4.51,21.72,21.72,0,0,0-7.48-2.55,70.91,70.91,0,0,0-11.77-.79h-4.35v49.64H629.8a87.25,87.25,0,0,0,13.1-.9,39.81,39.81,0,0,0,10.82-3.19,35.15,35.15,0,0,0,9.17-6.2,56.76,56.76,0,0,0,8.28-9.87l.74.22-3.61,21.11H596.38Z"/><path class="cls-1" d="M692.17,407l.85.11a38.37,38.37,0,0,0,3.07,10.55,28.69,28.69,0,0,0,5.73,8.33,25.15,25.15,0,0,0,8.22,5.46,27.26,27.26,0,0,0,10.56,2,41.88,41.88,0,0,0,9.81-1.11,24.42,24.42,0,0,0,8.06-3.45A16.46,16.46,0,0,0,746,414.41a12.1,12.1,0,0,0-2.5-7.8,21.57,21.57,0,0,0-6.52-5.36,51.24,51.24,0,0,0-9.23-3.87q-5.19-1.63-10.66-3.29t-10.66-3.66a39.62,39.62,0,0,1-9.23-5,24.3,24.3,0,0,1-6.52-7.16A19.92,19.92,0,0,1,688.14,368a19,19,0,0,1,3.13-11.09,24,24,0,0,1,8.16-7.32,39,39,0,0,1,11.41-4.08,65.64,65.64,0,0,1,12.94-1.27,67,67,0,0,1,16,1.8,73.53,73.53,0,0,1,14.84,5.51l-5.3,18.36-1.06-.11a27,27,0,0,0-2.17-9.71,24,24,0,0,0-12.94-12.83,24.17,24.17,0,0,0-9.5-1.86,32.23,32.23,0,0,0-8.91,1.22,24.7,24.7,0,0,0-7.53,3.56A17.2,17.2,0,0,0,702,356a16.38,16.38,0,0,0-1.91,8,10.73,10.73,0,0,0,2.5,7.26,19.66,19.66,0,0,0,6.57,4.88,57.91,57.91,0,0,0,9.34,3.45l10.71,3Q734.7,384.08,740,386a38.45,38.45,0,0,1,9.34,4.83,22.76,22.76,0,0,1,6.57,7.21,20.62,20.62,0,0,1,2.5,10.55,23.06,23.06,0,0,1-3.08,12.31,23.43,23.43,0,0,1-8.27,8,37.56,37.56,0,0,1-12,4.29,77.77,77.77,0,0,1-14.27,1.28,68.88,68.88,0,0,1-17.34-2.13,58,58,0,0,1-16-6.89Z"/><path class="cls-1" d="M771.72,364q1.06-6,1.75-9.86c.46-2.55.84-4.55,1.12-6s.48-2.45.58-3,.16-.88.16-.95h90.48v.31L869.42,364a1,1,0,0,1-.27.11.89.89,0,0,0-.26.1.7.7,0,0,1-.32.11,92.57,92.57,0,0,0-6.47-8.86,27.38,27.38,0,0,0-6.74-5.88,26.52,26.52,0,0,0-8.38-3.24,55.47,55.47,0,0,0-11.4-1H827.2v77q.1,5.63,1.65,8.33c1,1.8,3.27,2.7,6.73,2.7v1.07c-3.46-.15-6.33-.27-8.59-.38s-4.42-.16-6.47-.16-4.23-.05-6.53.06-5.21.26-8.75.48v-1.07a10.83,10.83,0,0,0,4.35-.74,5.22,5.22,0,0,0,2.55-2.23,10.75,10.75,0,0,0,1.17-3.76,39.83,39.83,0,0,0,.31-5.36V345.35h-8.06a55.61,55.61,0,0,0-11.4,1,26.52,26.52,0,0,0-8.38,3.24,28.32,28.32,0,0,0-6.79,5.88,76.92,76.92,0,0,0-6.42,8.86.74.74,0,0,1-.32-.11.76.76,0,0,0-.31-.1A.31.31,0,0,1,771.72,364Z"/><path class="cls-2" d="M430.14,189.93a79.22,79.22,0,0,0,158.42,0Z"/><rect class="cls-1" x="430.1" y="109.43" width="158.49" height="9.82"/><path class="cls-1" d="M617.94,144.83H583.69v45.29a74.34,74.34,0,0,1-148.68,0V153.4H425.2v36.72a84.15,84.15,0,1,0,168.3,0V154.64h24.44a31.9,31.9,0,0,1,0,63.79v9.82a41.71,41.71,0,0,0,0-83.42Z"/><path class="cls-1" d="M467.54,68.59c2.7,8.7,10.72,12.7,11.62,13.13l4.19-8.88c-.05,0-5-2.54-6.44-7.16-.93-3-.24-6.5,2-10.43,3.92-6.74,4.84-12.89,2.72-18.28-3-7.7-10.92-10.31-11.81-10.58L467,35.78s4.22,1.42,5.54,4.77c1,2.46.26,5.74-2.08,9.76C466.74,56.72,465.76,62.87,467.54,68.59Z"/><path class="cls-1" d="M502,68.59c2.7,8.7,10.72,12.7,11.63,13.13l4.18-8.88c-.05,0-5-2.54-6.44-7.16-.93-3-.24-6.5,2.05-10.43,3.92-6.74,4.84-12.89,2.73-18.28-3-7.7-10.92-10.31-11.82-10.58l-2.86,9.39s4.22,1.42,5.54,4.77c1,2.46.26,5.74-2.07,9.76C501.25,56.72,500.26,62.87,502,68.59Z"/><path class="cls-1" d="M536.54,68.59c2.71,8.7,10.72,12.7,11.63,13.13l4.19-8.88c-.05,0-5-2.54-6.45-7.16-.92-3-.24-6.5,2.05-10.43,3.93-6.74,4.84-12.89,2.73-18.28-3-7.7-10.92-10.31-11.81-10.58L536,35.78s4.23,1.42,5.54,4.77c1,2.46.27,5.74-2.07,9.76C535.75,56.72,534.76,62.87,536.54,68.59Z"/><path class="cls-1" d="M372.32,504.5,367.87,509v5.74h-2.31V492.94h2.31v13.18l12.8-13.18h2.64l-9.43,9.88L384,514.75h-2.74Z"/><path class="cls-1" d="M409.35,512.75v2H393.94V492.94h14.95v2H396.24v7.75h11.28v2H396.24v8.1Z"/><path class="cls-1" d="M436.42,512.75v2H421V492.94H436v2H423.31v7.75h11.27v2H423.31v8.1Z"/><path class="cls-1" d="M462.77,494.94a7.5,7.5,0,0,1,0,10.94,9.9,9.9,0,0,1-6.54,2h-5.86v6.89h-2.3V492.94h8.16A9.85,9.85,0,0,1,462.77,494.94Zm-1.65,9.48a4.9,4.9,0,0,0,1.71-4,5,5,0,0,0-1.71-4.07,7.64,7.64,0,0,0-5-1.41h-5.79v10.9h5.79A7.58,7.58,0,0,0,461.12,504.42Z"/><path class="cls-1" d="M491.05,492.94h2.3v21.81h-2.3Z"/><path class="cls-1" d="M510.92,494.94h-7.66v-2h17.63v2h-7.67v19.81h-2.3Z"/><path class="cls-1" d="M575.11,492.94l-7.35,21.81h-2.43L559,496.15l-6.42,18.6h-2.4l-7.35-21.81h2.37l6.29,18.75L558,492.94h2.15l6.41,18.85,6.39-18.85Z"/><path class="cls-1" d="M598.56,508.92H586.42l-2.62,5.83h-2.4l10-21.81h2.27l10,21.81h-2.43Zm-.84-1.87-5.23-11.71-5.23,11.71Z"/><path class="cls-1" d="M628.34,514.75l-5-7a16.52,16.52,0,0,1-1.75.09h-5.85v6.92h-2.31V492.94h8.16a9.85,9.85,0,0,1,6.54,2,6.77,6.77,0,0,1,2.37,5.48,7.08,7.08,0,0,1-1.29,4.31,7.16,7.16,0,0,1-3.69,2.54l5.32,7.48Zm-1.84-10.31a5.62,5.62,0,0,0,0-8.09,7.61,7.61,0,0,0-5-1.41h-5.79v10.93h5.79A7.55,7.55,0,0,0,626.5,504.44Z"/><path class="cls-1" d="M664.84,492.94v21.81h-2.21V497.3L654.06,512H653l-8.57-14.57v17.35H642.2V492.94h1.9l9.47,16.17,9.37-16.17Z"/></svg>