<svg width="184" height="204" viewBox="0 0 184 204" fill="none" xmlns="http://www.w3.org/2000/svg">
<path d="M115.904 142.976H111.307V192.694H115.904V142.976Z" fill="#91B3FA"/>
<path d="M133.734 193.653H93.4668V192.009C93.4668 191.264 94.0708 190.66 94.8161 190.66H132.279C133.082 190.66 133.734 191.311 133.734 192.115V193.653Z" fill="#91B3FA"/>
<path d="M141.35 141.142C141.35 144.032 138.986 146.396 136.096 146.396H92.7994C89.9094 146.396 87.5449 144.032 87.5449 141.142V136.391C87.5449 133.501 89.9094 131.136 92.7994 131.136H136.096C138.986 131.136 141.35 133.501 141.35 136.391V141.142Z" fill="#91B3FA"/>
<path d="M87.9932 183.885C87.9932 183.885 74.865 193.348 77.1449 199.705C77.1449 199.705 91.5085 193.508 93.2439 188.626C94.9793 183.744 92.9504 181.588 92.9504 181.588L87.9932 183.885Z" fill="url(#paint0_linear_641_3055)"/>
<path d="M89.9664 175.955L92.113 182.16C92.4372 183.097 92.113 184.163 91.2755 184.693C90.8558 184.958 90.2826 185.203 89.499 185.38C88.3931 185.631 87.2517 185.12 86.72 184.119L84.1523 179.284L89.9664 175.955Z" fill="url(#paint1_linear_641_3055)"/>
<path d="M110.856 120.098C110.856 120.098 83.8916 124.771 72.3249 135.457C60.7582 146.142 82.9417 180.226 82.9417 180.226C82.9417 180.226 86.576 180.204 90.9808 176.429C90.9808 176.429 77.8275 150.794 89.1631 143.318C101.908 134.914 116.594 133.021 116.594 133.021L111.117 120.922L110.856 120.098Z" fill="url(#paint2_linear_641_3055)"/>
<path d="M79.4294 196.19C82.3171 194.853 90.4919 189.132 91.8695 188.879C93.2477 188.627 95.6376 190.246 95.6376 190.246C95.6376 190.246 96.2189 191.292 95.597 193.116C93.6782 195.437 89.4181 199.863 83.6905 201.512C79.4776 202.725 76.5309 201.594 74.6953 200.271C75.7058 198.733 77.5064 197.08 79.4294 196.19Z" fill="url(#paint3_linear_641_3055)"/>
<path d="M83.689 201.511C89.4161 199.862 93.6767 195.436 95.5955 193.115C95.1754 194.347 94.2065 195.934 92.1355 197.795C87.0006 202.411 77.1935 204.075 75.105 203.754C73.4315 203.497 73.5893 201.952 74.6938 200.27C76.5294 201.593 79.4762 202.724 83.689 201.511Z" fill="url(#paint4_linear_641_3055)"/>
<path d="M98.0836 186.207C98.0515 187.002 96.4252 189.731 95.4748 191.262C95.023 191.989 94.2318 192.433 93.3759 192.436C92.8329 192.437 92.2086 192.39 91.6419 192.227C90.7907 191.983 90.3129 191.076 90.562 190.227L92.4189 183.886L98.0836 186.207Z" fill="url(#paint5_linear_641_3055)"/>
<path d="M136.814 112.004C136.814 112.004 142.802 128.016 136.814 132.886C130.825 137.755 116.54 143.238 113.348 152.937C110.157 162.636 104.742 181.485 97.4941 188.16C97.4941 188.16 92.4021 187.667 90.4961 185.638C90.4961 185.638 94.6239 157.499 97.3461 150.279C99.7035 144.026 103.177 135.001 109.834 129.956C111.739 128.513 111.408 126.225 110.524 124.004L108.915 119.958L136.814 112.004Z" fill="url(#paint6_linear_641_3055)"/>
<path d="M74.3575 99.4536C84.3986 100.059 81.2695 84.0177 81.0885 83.3796L96.3278 94.1438C96.3278 94.1438 95.5211 102.722 82.8508 107.222C79.6451 108.361 76.7154 108.411 74.125 107.854C75.23 104.632 75.0055 101.742 74.3575 99.4536Z" fill="url(#paint7_linear_641_3055)"/>
<path d="M54.9437 94.626C58.6854 92.0233 62.9243 94.626 62.9243 94.626C67.9273 97.8979 71.6283 99.2897 74.3586 99.4541C75.0065 101.743 75.231 104.634 74.1266 107.855C68.5219 106.65 64.5122 102.594 62.7702 100.513C62.143 99.7637 61.0324 99.6333 60.2653 100.239C59.486 100.854 58.7298 101.696 58.8669 102.583C59.1372 104.331 57.1083 104.887 56.9556 104.253C56.8025 103.619 57.6499 99.8597 57.6499 99.8597C57.6499 99.8597 53.5921 103.94 52.0079 105.508C50.4237 107.076 48.4316 105.508 48.4316 105.508C48.4316 105.508 51.2021 97.2287 54.9437 94.626Z" fill="url(#paint8_linear_641_3055)"/>
<path d="M121.175 58.6064C121.175 58.6064 106.567 52.7579 79.3824 75.2017C79.3824 75.2017 77.1115 79.9018 79.5889 84.0854C82.0664 88.2689 105.67 108.654 108.914 119.958C108.914 119.958 122.976 124.527 137.518 113.692C137.518 113.692 136.234 82.2304 121.175 58.6064Z" fill="url(#paint9_linear_641_3055)"/>
<path d="M92.3003 53.3872L99.4915 62.105C100.206 62.9703 100.363 64.1745 99.8691 65.1821C98.871 67.2181 96.5027 70.1824 91.2506 69.7726C89.6881 69.6507 88.3043 68.7078 87.6219 67.297L82.5938 56.9029L92.3003 53.3872Z" fill="url(#paint10_linear_641_3055)"/>
<path d="M132.489 95.9422C134.184 89.036 117.008 73.6388 117.008 73.6388L121.179 58.606C121.179 58.606 158.269 83.2975 148.817 103.153C147.462 106 145.663 107.994 143.576 109.327C140.59 101.288 135.83 97.6016 132.489 95.9422Z" fill="url(#paint11_linear_641_3055)"/>
<path d="M132.499 94.9373C132.681 94.9373 132.847 94.8135 132.892 94.6283C134.626 87.567 117.997 72.562 117.288 71.9264C117.122 71.7775 116.866 71.7907 116.715 71.9576C116.565 72.1244 116.58 72.3815 116.746 72.5309C116.916 72.683 133.723 87.843 132.104 94.4349C132.051 94.6528 132.184 94.8726 132.402 94.9255C132.434 94.9336 132.467 94.9373 132.499 94.9373Z" fill="url(#paint12_linear_641_3055)"/>
<path d="M106.469 95.3481C106.469 95.3481 126.834 103.255 131.805 97.3075C132.142 96.9039 132.362 96.445 132.485 95.9427C135.826 97.6015 140.586 101.288 143.572 109.328C132.862 116.172 114.554 105.521 109.603 102.38C108.789 101.864 107.812 101.682 106.867 101.878C104.958 102.274 101.66 102.856 99.8809 102.582C97.2782 102.182 93.5403 111.361 89.3223 108.53C89.3223 108.53 92.9344 92.5729 106.469 95.3481Z" fill="url(#paint13_linear_641_3055)"/>
<path d="M74.3598 43.3549C74.3598 43.3549 74.2355 52.8478 75.7696 57.1585C77.3032 61.4696 77.5433 64.5841 82.7704 63.3875C87.9975 62.1908 91.0818 58.0418 91.543 52.9125C91.543 52.9125 92.3115 44.9844 90.4182 42.6644C88.5254 40.3448 74.3598 43.3549 74.3598 43.3549Z" fill="url(#paint14_linear_641_3055)"/>
<path d="M88.6156 50.5945L87.9998 50.853C87.9998 50.853 88.3524 44.5838 85.7393 44.6055C83.1262 44.6273 73.5398 46.5338 70.3189 44.2C67.2139 41.9504 67.2139 37.3609 69.2064 35.2403C69.3326 35.106 69.5458 35.1023 69.688 35.219L70.0524 35.5177C70.3019 35.7223 70.6739 35.5196 70.6365 35.1987C70.6011 34.8948 70.9418 34.6821 71.1914 34.8589C72.1678 35.5512 74.3867 36.4119 78.9507 35.4151C85.4264 34.0011 90.4205 34.7653 92.2618 38.878C92.3785 39.1384 92.7207 39.1653 92.888 38.9342C93.2184 38.4777 93.8748 38.0523 95.1589 38.4521C97.3915 39.1469 98.2276 43.0299 95.8532 47.5097C95.7402 47.7224 95.8546 47.9904 96.0914 48.0334C96.9265 48.1851 98.3301 48.7905 96.3655 51.2079C94.3559 53.6811 92.759 54.1736 92.1177 54.2686C91.9452 54.2941 91.7807 54.1962 91.7235 54.0317L90.4059 50.2556C90.3378 50.0604 90.119 49.9631 89.9281 50.0429L88.6156 50.5945Z" fill="url(#paint15_linear_641_3055)"/>
<path d="M88.7903 51.4285C88.7903 51.4285 87.9708 45.7421 90.8732 46.2147C93.775 46.6873 92.092 52.4597 90.3244 53.4276L88.7903 51.4285Z" fill="url(#paint16_linear_641_3055)"/>
<path d="M20.5665 202.586C20.3297 202.586 20.0891 202.54 19.858 202.444C18.9473 202.064 18.5262 201.042 18.918 200.16L56.5757 115.407C56.9674 114.526 58.0228 114.119 58.9344 114.498C59.8452 114.877 60.2663 115.899 59.8745 116.781L22.2168 201.534C21.9247 202.192 21.2621 202.586 20.5665 202.586Z" fill="#BDD0FB"/>
<path d="M62.9898 202.586C62.2941 202.586 61.6315 202.192 61.3394 201.534L23.6817 116.782C23.2899 115.9 23.7106 114.877 24.6218 114.498C25.532 114.118 26.5888 114.526 26.9806 115.408L64.6382 200.16C65.03 201.042 64.6094 202.064 63.6982 202.444C63.4676 202.54 63.2265 202.586 62.9898 202.586Z" fill="#BDD0FB"/>
<path d="M137.133 202.586C136.897 202.586 136.656 202.54 136.424 202.444C135.514 202.064 135.093 201.042 135.484 200.16L173.142 115.407C173.534 114.526 174.589 114.119 175.501 114.498C176.412 114.877 176.833 115.899 176.441 116.781L138.783 201.534C138.491 202.192 137.829 202.586 137.133 202.586Z" fill="#BDD0FB"/>
<path d="M179.556 202.586C178.86 202.586 178.198 202.192 177.906 201.534L140.248 116.782C139.856 115.9 140.277 114.877 141.188 114.498C142.098 114.118 143.155 114.526 143.547 115.408L181.205 200.16C181.596 201.042 181.176 202.064 180.265 202.444C180.034 202.54 179.792 202.586 179.556 202.586Z" fill="#BDD0FB"/>
<path d="M183.97 112.791C184.066 112.235 183.936 111.66 183.614 111.223C183.292 110.787 182.813 110.534 182.307 110.534H10.991C10.3261 110.534 9.70698 110.913 9.34827 111.54C8.99003 112.168 8.94182 112.956 9.22066 113.632L11.0771 118.13C11.5019 119.161 12.4236 119.82 13.4368 119.82H181.131C182.074 119.82 182.884 119.071 183.063 118.035L183.97 112.791Z" fill="#BDD0FB"/>
<path d="M96.0406 110.94C96.008 110.942 95.9754 110.943 95.9423 110.943L53.213 110.896C52.1567 110.895 51.3013 110.038 51.3027 108.981C51.3037 107.925 52.1643 107.052 53.2178 107.071L95.947 107.118C97.0033 107.119 97.8587 107.976 97.8573 109.032C97.8559 110.055 97.051 110.89 96.0406 110.94Z" fill="url(#paint17_linear_641_3055)"/>
<path d="M14.7997 72.145H50.3849C53.0103 72.145 55.3993 73.6597 56.5189 76.0341L72.97 110.918H28.7473C27.0559 110.918 25.536 109.884 24.914 108.311L12.1568 76.0313C11.4195 74.1659 12.7944 72.145 14.7997 72.145Z" fill="url(#paint18_linear_641_3055)"/>
<path d="M39.8686 90.0308C40.6399 92.4264 40.0699 94.7536 38.5963 95.2276C37.1222 95.7021 35.3027 94.1444 34.5314 91.7487C33.7601 89.353 34.33 87.0264 35.8036 86.5519C37.2777 86.0774 39.0973 87.6351 39.8686 90.0308Z" fill="url(#paint19_linear_641_3055)"/>
<path d="M29.3723 58.7446C45.5942 58.7446 58.7446 45.5942 58.7446 29.3723C58.7446 13.1505 45.5942 0 29.3723 0C13.1504 0 0 13.1505 0 29.3723C0 45.5942 13.1504 58.7446 29.3723 58.7446Z" fill="#7D97F4"/>
<path opacity="0.9" d="M29.4215 55.1638C43.5305 55.1638 54.968 43.7263 54.968 29.6173C54.968 15.5083 43.5305 4.0708 29.4215 4.0708C15.3126 4.0708 3.875 15.5083 3.875 29.6173C3.875 43.7263 15.3126 55.1638 29.4215 55.1638Z" fill="white"/>
<path d="M37.6413 36.7199H22.8629C22.4846 36.7199 22.1514 36.471 22.0434 36.1081L17.7922 21.7586L13.319 21.1689C12.8512 21.1072 12.5219 20.6777 12.5836 20.2099C12.6453 19.7421 13.0782 19.4116 13.5426 19.4745L18.5653 20.1367C18.8997 20.1809 19.1767 20.4177 19.2729 20.7412L23.5008 35.0111H36.9331L38.8879 24.6748C38.9752 24.2109 39.4241 23.9082 39.8859 23.9938C40.3498 24.0818 40.6547 24.5287 40.5667 24.9923L38.4806 36.0242C38.4046 36.4278 38.0519 36.7199 37.6413 36.7199Z" fill="#FA7790"/>
<path d="M39.6616 25.4736H19.9132C19.4415 25.4736 19.0586 25.0911 19.0586 24.619C19.0586 24.147 19.4413 23.7646 19.9132 23.7646H39.6616C40.1333 23.7646 40.5161 24.147 40.5161 24.619C40.5159 25.0912 40.1333 25.4736 39.6616 25.4736Z" fill="#FA7790"/>
<path d="M26.6319 35.7598C26.1602 35.7598 25.7773 35.3775 25.7773 34.9055V24.7567C25.7773 24.2847 26.1601 23.9023 26.6319 23.9023C27.1038 23.9023 27.4865 24.2847 27.4865 24.7567V34.9055C27.4863 35.3775 27.1036 35.7598 26.6319 35.7598Z" fill="#FA7790"/>
<path d="M33.4893 35.7598C33.0176 35.7598 32.6348 35.3775 32.6348 34.9055V24.7567C32.6348 24.2847 33.0175 23.9023 33.4893 23.9023C33.9612 23.9023 34.3437 24.2847 34.3437 24.7567V34.9055C34.3437 35.3775 33.961 35.7598 33.4893 35.7598Z" fill="#FA7790"/>
<path d="M38.5656 30.9595H21.5596C21.0878 30.9595 20.7051 30.577 20.7051 30.1051C20.7051 29.6331 21.0878 29.2507 21.5596 29.2507H38.5656C39.0373 29.2507 39.4201 29.6333 39.4201 30.1051C39.4201 30.577 39.0373 30.9595 38.5656 30.9595Z" fill="#FA7790"/>
<path d="M25.2605 41.8099C26.2253 41.8099 27.0074 41.0278 27.0074 40.063C27.0074 39.0983 26.2253 38.3162 25.2605 38.3162C24.2958 38.3162 23.5137 39.0983 23.5137 40.063C23.5137 41.0278 24.2958 41.8099 25.2605 41.8099Z" fill="#FA7790"/>
<path d="M35.909 41.8099C36.8737 41.8099 37.6558 41.0278 37.6558 40.063C37.6558 39.0983 36.8737 38.3162 35.909 38.3162C34.9442 38.3162 34.1621 39.0983 34.1621 40.063C34.1621 41.0278 34.9442 41.8099 35.909 41.8099Z" fill="#FA7790"/>
<defs>
<linearGradient id="paint0_linear_641_3055" x1="76.8036" y1="174.348" x2="84.9194" y2="190.309" gradientUnits="userSpaceOnUse">
<stop stop-color="#09005D"/>
<stop offset="1" stop-color="#1A0F91"/>
</linearGradient>
<linearGradient id="paint1_linear_641_3055" x1="92.2364" y1="180.699" x2="84.1517" y2="180.699" gradientUnits="userSpaceOnUse">
<stop stop-color="#FF928E"/>
<stop offset="1" stop-color="#FEB3B1"/>
</linearGradient>
<linearGradient id="paint2_linear_641_3055" x1="103.425" y1="159.308" x2="69.0679" y2="111.154" gradientUnits="userSpaceOnUse">
<stop stop-color="#09005D"/>
<stop offset="1" stop-color="#1A0F91"/>
</linearGradient>
<linearGradient id="paint3_linear_641_3055" x1="81.5173" y1="190.486" x2="109.652" y2="227.277" gradientUnits="userSpaceOnUse">
<stop stop-color="#09005D"/>
<stop offset="1" stop-color="#1A0F91"/>
</linearGradient>
<linearGradient id="paint4_linear_641_3055" x1="95.5954" y1="198.453" x2="73.8558" y2="198.453" gradientUnits="userSpaceOnUse">
<stop stop-color="#4042E2"/>
<stop offset="1" stop-color="#4F52FF"/>
</linearGradient>
<linearGradient id="paint5_linear_641_3055" x1="98.0837" y1="188.161" x2="90.4961" y2="188.161" gradientUnits="userSpaceOnUse">
<stop stop-color="#FF928E"/>
<stop offset="1" stop-color="#FEB3B1"/>
</linearGradient>
<linearGradient id="paint6_linear_641_3055" x1="115.809" y1="183.303" x2="113.915" y2="118.918" gradientUnits="userSpaceOnUse">
<stop stop-color="#09005D"/>
<stop offset="1" stop-color="#1A0F91"/>
</linearGradient>
<linearGradient id="paint7_linear_641_3055" x1="176.288" y1="310.998" x2="222.604" y2="417.808" gradientUnits="userSpaceOnUse">
<stop stop-color="#D74763"/>
<stop offset="1" stop-color="#FA7790"/>
</linearGradient>
<linearGradient id="paint8_linear_641_3055" x1="74.8997" y1="100.662" x2="48.4311" y2="100.662" gradientUnits="userSpaceOnUse">
<stop stop-color="#FF928E"/>
<stop offset="1" stop-color="#FEB3B1"/>
</linearGradient>
<linearGradient id="paint9_linear_641_3055" x1="200.307" y1="300.581" x2="246.623" y2="407.392" gradientUnits="userSpaceOnUse">
<stop stop-color="#D74763"/>
<stop offset="1" stop-color="#FA7790"/>
</linearGradient>
<linearGradient id="paint10_linear_641_3055" x1="96.1434" y1="37.5176" x2="86.2186" y2="85.4877" gradientUnits="userSpaceOnUse">
<stop stop-color="#FF928E"/>
<stop offset="1" stop-color="#FEB3B1"/>
</linearGradient>
<linearGradient id="paint11_linear_641_3055" x1="223.687" y1="290.445" x2="270.003" y2="397.255" gradientUnits="userSpaceOnUse">
<stop stop-color="#D74763"/>
<stop offset="1" stop-color="#FA7790"/>
</linearGradient>
<linearGradient id="paint12_linear_641_3055" x1="117.822" y1="93.9882" x2="205.675" y2="-40.3764" gradientUnits="userSpaceOnUse">
<stop stop-color="#E1473D"/>
<stop offset="1" stop-color="#E9605A"/>
</linearGradient>
<linearGradient id="paint13_linear_641_3055" x1="149.633" y1="70.1494" x2="104.263" y2="120.482" gradientUnits="userSpaceOnUse">
<stop stop-color="#FF928E"/>
<stop offset="1" stop-color="#FEB3B1"/>
</linearGradient>
<linearGradient id="paint14_linear_641_3055" x1="324.062" y1="374.692" x2="309.961" y2="355.754" gradientUnits="userSpaceOnUse">
<stop stop-color="#FF928E"/>
<stop offset="1" stop-color="#FEB3B1"/>
</linearGradient>
<linearGradient id="paint15_linear_641_3055" x1="85.564" y1="32.7723" x2="77.2543" y2="63.6515" gradientUnits="userSpaceOnUse">
<stop stop-color="#09005D"/>
<stop offset="1" stop-color="#1A0F91"/>
</linearGradient>
<linearGradient id="paint16_linear_641_3055" x1="329.682" y1="370.513" x2="315.58" y2="351.575" gradientUnits="userSpaceOnUse">
<stop stop-color="#FF928E"/>
<stop offset="1" stop-color="#FEB3B1"/>
</linearGradient>
<linearGradient id="paint17_linear_641_3055" x1="103.29" y1="99.5872" x2="69.3701" y2="110.712" gradientUnits="userSpaceOnUse">
<stop stop-color="#09005D"/>
<stop offset="1" stop-color="#1A0F91"/>
</linearGradient>
<linearGradient id="paint18_linear_641_3055" x1="56.6926" y1="77.3469" x2="32.2655" y2="103.165" gradientUnits="userSpaceOnUse">
<stop stop-color="#09005D"/>
<stop offset="1" stop-color="#1A0F91"/>
</linearGradient>
<linearGradient id="paint19_linear_641_3055" x1="41.9241" y1="83.7757" x2="30.8404" y2="100.466" gradientUnits="userSpaceOnUse">
<stop stop-color="#4042E2"/>
<stop offset="1" stop-color="#4F52FF"/>
</linearGradient>
</defs>
</svg>
