<svg width="381" height="381" viewBox="0 0 381 381" fill="none" xmlns="http://www.w3.org/2000/svg">
<path d="M376.928 1.87944C377.28 0.381925 375.174 -0.613477 373.884 0.432599C360.785 11.0546 329.312 42.8627 337.155 98.4497C346.996 168.192 330.172 193.64 309.229 209.163C309.229 209.163 337.99 201.863 356.085 176.041C400.513 112.639 370.673 28.506 376.928 1.87944Z" fill="#91B3FA"/>
<path d="M366.959 23.6627C365.321 31.4268 363.86 39.2145 362.731 47.0373C361.555 54.8536 360.654 62.6971 360.037 70.5537C359.456 78.4115 359.045 86.2775 359.021 94.147C358.957 102.016 359.284 109.879 359.645 117.772C359.954 125.662 360.317 133.609 359.74 141.613C359.172 149.6 357.49 157.657 354.154 165.21C353.32 167.092 352.443 168.969 351.447 170.782C350.489 172.612 349.437 174.406 348.348 176.183C346.15 179.728 343.676 183.153 340.918 186.404C335.383 192.895 328.707 198.653 321.353 203.526C320.579 204.039 319.47 203.913 318.876 203.245C318.293 202.588 318.423 201.653 319.161 201.134L319.166 201.13C320.916 199.901 322.647 198.656 324.308 197.349C325.151 196.707 325.959 196.034 326.782 195.374C327.574 194.688 328.398 194.029 329.165 193.323C332.288 190.543 335.181 187.578 337.805 184.442C343.085 178.201 347.311 171.245 350.513 164.035C352.067 160.413 353.31 156.698 354.217 152.914C355.121 149.129 355.689 145.278 356.004 141.396C356.633 133.627 356.349 125.759 356.105 117.867C355.874 109.973 355.704 102.039 355.912 94.1118C356.004 90.1484 356.178 86.1868 356.434 82.2298C356.549 80.2508 356.708 78.274 356.864 76.2974C357.041 74.322 357.231 72.3478 357.439 70.3753C358.289 62.4861 359.418 54.6233 360.833 46.802C362.291 38.9868 363.989 31.2076 366.031 23.498C366.089 23.2776 366.343 23.1399 366.598 23.1903C366.846 23.2395 367.004 23.449 366.959 23.6627Z" fill="white"/>
<path d="M342.993 174.09C344.599 175.794 347.423 175.304 348.39 173.171C353.721 161.402 365.785 126.762 345.861 86.8546C329.036 53.1549 323.115 33.2827 321.052 24.0752C320.616 22.1282 317.948 21.8698 317.142 23.6953C308.257 43.8356 284.795 112.342 342.993 174.09Z" fill="#BDD0FB"/>
<path d="M345.908 172.849C345.965 172.859 346.024 172.864 346.084 172.863C346.589 172.855 346.992 172.44 346.984 171.935C346.975 171.363 345.862 114.155 324.584 66.241C324.379 65.78 323.839 65.5719 323.377 65.7764C322.916 65.9815 322.708 66.5215 322.913 66.9832C344.035 114.548 345.147 171.395 345.156 171.963C345.163 172.408 345.486 172.774 345.908 172.849Z" fill="white"/>
<path d="M218.318 278.944L226.457 351.941H132.026L144.326 278.944H218.318Z" fill="url(#paint0_linear_641_2903)"/>
<path d="M376.941 99.0937V266.277C376.941 280.03 365.982 291.277 352.233 291.631C291.17 293.206 77.5993 297.024 19.471 296.167C9.48026 296.02 1.38678 288.025 1.09863 278.037C-0.0223083 239.198 -1.84259 145.803 4.89413 102.444C6.31287 93.3129 14.0203 86.4848 23.256 86.1895C74.4195 84.5527 300.818 79.3555 358.92 80.6604C368.94 80.8853 376.941 89.0707 376.941 99.0937Z" fill="url(#paint1_linear_641_2903)"/>
<path d="M366.455 98.2794V257.115C366.455 265.145 360.009 271.688 351.981 271.808L27.8377 275.813C19.8776 275.932 13.3527 269.527 13.3231 261.566L12.7807 104.15C12.7596 98.4578 17.2945 93.7938 22.985 93.6553L354.847 86.9509C361.212 86.7958 366.455 91.913 366.455 98.2794Z" fill="#91B3FA"/>
<path d="M10.8772 282.371C10.8799 282.371 10.8828 282.371 10.8858 282.371L366.458 276.312C366.733 276.308 366.952 276.081 366.947 275.806C366.943 275.531 366.724 275.321 366.441 275.317L10.8688 281.375C10.594 281.38 10.3749 281.607 10.3796 281.881C10.384 282.153 10.6062 282.371 10.8772 282.371Z" fill="#91B3FA"/>
<path d="M111.683 366.877H249.889C253.643 366.877 256.463 364.204 255.737 361.333L253.964 354.319C253.43 352.21 251.11 350.662 248.354 350.576L115.118 346.418C112.239 346.328 109.689 347.857 109.062 350.049L105.865 361.22C105.035 364.122 107.868 366.877 111.683 366.877Z" fill="url(#paint2_linear_641_2903)"/>
<path d="M175.489 352.523C175.76 352.523 175.982 352.304 175.986 352.032C175.99 351.757 175.771 351.531 175.496 351.527L169.786 351.444H169.779C169.507 351.444 169.286 351.662 169.281 351.934C169.277 352.209 169.497 352.435 169.772 352.439L175.481 352.522C175.484 352.523 175.486 352.523 175.489 352.523Z" fill="#91B3FA"/>
<path d="M250.619 363.057C250.645 363.057 250.671 363.055 250.698 363.051C250.969 363.008 251.154 362.753 251.111 362.481L250.296 357.38C249.855 354.616 247.504 352.58 244.705 352.539L184.149 351.654C183.886 351.644 183.648 351.87 183.644 352.144C183.64 352.419 183.859 352.645 184.134 352.649L244.69 353.534C247.004 353.568 248.948 355.252 249.314 357.537L250.128 362.638C250.167 362.883 250.379 363.057 250.619 363.057Z" fill="#91B3FA"/>
<path opacity="0.44" d="M83.3832 147.243H119.413C121.674 147.243 123.508 145.41 123.508 143.148C123.508 140.887 121.674 139.053 119.413 139.053H83.3832C81.1217 139.053 79.2884 140.887 79.2884 143.148C79.2883 145.41 81.1217 147.243 83.3832 147.243Z" fill="white"/>
<path opacity="0.43" d="M70.1232 140.798H31.2353C28.7942 140.798 26.8155 148.071 26.8155 157.043V252.711C26.8155 261.683 28.7942 268.956 31.2353 268.956H70.1232C72.5641 268.956 74.543 261.683 74.543 252.711V157.043C74.5428 148.071 72.5641 140.798 70.1232 140.798Z" fill="white"/>
<path opacity="0.46" d="M119.413 151.793H83.3832C81.1217 151.793 79.2884 153.626 79.2884 155.888V180.001C79.2884 182.263 81.1219 184.096 83.3832 184.096H119.413C121.674 184.096 123.508 182.263 123.508 180.001V155.888C123.508 153.626 121.674 151.793 119.413 151.793Z" fill="white"/>
<path opacity="0.38" d="M119.413 191.326H83.3832C81.1217 191.326 79.2883 195.744 79.2883 201.195V259.312C79.2883 264.763 81.1217 269.181 83.3832 269.181H119.413C121.674 269.181 123.508 264.763 123.508 259.312V201.195C123.508 195.744 121.674 191.326 119.413 191.326Z" fill="white"/>
<path opacity="0.42" d="M27.2635 133.985H350.026C353.762 133.985 356.791 130.956 356.791 127.22V100.3C356.791 96.4974 353.657 93.4418 349.855 93.5378L27.0925 101.7C23.4243 101.792 20.4988 104.793 20.4988 108.462V127.22C20.4988 130.956 23.5273 133.985 27.2635 133.985Z" fill="white"/>
<path opacity="0.58" d="M135.241 244.668H243.992C246.732 244.668 248.953 242.447 248.953 239.707V146.948C248.953 144.208 246.732 141.987 243.992 141.987H135.241C132.501 141.987 130.28 144.208 130.28 146.948V239.707C130.28 242.447 132.501 244.668 135.241 244.668Z" fill="white"/>
<path opacity="0.28" d="M130.588 270.879L354.203 268.998C356.914 268.975 359.1 266.77 359.1 264.059V256.17C359.1 252.398 356.042 249.341 352.271 249.341H130.891C129.435 249.341 128.254 250.521 128.254 251.977V268.564C128.254 269.85 129.303 270.889 130.588 270.879Z" fill="white"/>
<path opacity="0.47" d="M260.527 242.3H354.425C357.007 242.3 359.1 240.207 359.1 237.626V143.728C359.1 141.146 357.007 139.053 354.425 139.053H260.527C257.946 139.053 255.853 141.146 255.853 143.728V237.626C255.853 240.207 257.946 242.3 260.527 242.3Z" fill="white"/>
<path d="M191.542 149.736L85.7825 148.788C83.7085 148.769 82.0207 150.451 82.0324 152.525L82.4951 233.681C82.507 235.768 84.232 237.437 86.3187 237.374C105.441 236.804 190.337 234.289 194.084 234.446C197.788 234.601 195.776 169.408 195.223 153.322C195.155 151.333 193.532 149.754 191.542 149.736Z" fill="url(#paint3_linear_641_2903)"/>
<path opacity="0.69" d="M86.2067 234.316L86.2282 234.315C101.419 233.861 177.911 231.59 192.011 231.391L192.2 231.389L192.233 231.203C193.559 223.723 193.532 193.195 192.165 153.427C192.153 153.076 191.868 152.799 191.515 152.796L85.756 151.848C85.5242 151.848 85.3721 151.953 85.2846 152.042C85.1596 152.167 85.093 152.328 85.094 152.507L85.557 233.663C85.559 234.023 85.8504 234.316 86.2067 234.316ZM191.815 230.937C177.229 231.153 101.339 233.407 86.2148 233.858L86.1995 233.858C86.1009 233.858 86.0143 233.77 86.0138 233.66L85.551 152.505C85.5506 152.448 85.5684 152.404 85.6086 152.364C85.6483 152.324 85.6951 152.305 85.7537 152.305L191.511 153.253C191.618 153.254 191.704 153.337 191.708 153.443C193.063 192.859 193.103 223.177 191.815 230.937Z" fill="white"/>
<path d="M178.785 223.882H109.457C107.299 223.882 105.957 221.537 107.052 219.677L134.498 173.018C135.643 171.072 138.505 171.22 139.442 173.274L152.694 202.313C153.481 204.037 155.721 204.492 157.118 203.211L162.479 198.297C163.725 197.155 165.691 197.374 166.656 198.761L181.076 219.498C182.362 221.349 181.038 223.882 178.785 223.882Z" fill="white"/>
<path d="M106.57 180.817C101.485 178.71 99.0701 172.88 101.177 167.795C103.283 162.71 109.113 160.295 114.198 162.401C119.284 164.508 121.699 170.338 119.592 175.423C117.486 180.508 111.656 182.923 106.57 180.817Z" fill="white"/>
<path d="M19.6486 246.978C22.0823 237.977 29.6014 230.583 37.9803 228.714C39.5198 228.37 40.4113 226.802 40.0499 225.267C40.0473 225.256 40.0449 225.245 40.0425 225.235C38.8283 220 42.1839 215.83 47.2444 214.656C52.3046 213.483 57.1534 215.75 58.3674 220.985C59.1867 224.517 58.1373 228.491 55.814 231.065C54.8565 232.125 54.7796 233.708 55.7074 234.795C60.8133 240.776 62.8905 249.906 60.6825 258.073C57.4303 270.101 46.12 275.474 34.7889 272.411C23.4576 269.347 16.3964 259.006 19.6486 246.978Z" fill="url(#paint4_linear_641_2903)"/>
<path d="M23.1711 258.457L23.3913 258.303C21.3628 255.424 21.1022 251.268 22.7118 247.457C23.99 244.431 26.2773 241.663 29.9102 238.748C31.2637 237.661 32.699 236.63 34.0871 235.633C35.7582 234.433 37.486 233.192 39.0876 231.842C40.5282 230.628 42.0439 229.121 42.3617 227.151C42.5203 226.168 42.3721 225.122 42.2287 224.11C42.0042 222.526 41.7924 221.03 42.7207 219.885L42.5115 219.715C41.5093 220.952 41.7396 222.576 41.9623 224.148C42.1029 225.139 42.2482 226.166 42.0963 227.108C41.7921 228.991 40.3172 230.454 38.9142 231.636C37.3207 232.979 35.5971 234.217 33.9303 235.414C32.5394 236.414 31.101 237.446 29.7419 238.537C26.0729 241.482 23.7602 244.283 22.4639 247.352C20.8185 251.248 21.0898 255.503 23.1711 258.457Z" fill="#91B3FA"/>
<path d="M28.5625 260.194L28.8153 260.103C27.4352 256.286 27.8392 251.595 29.9241 247.232C31.991 242.909 35.3696 239.384 38.082 236.795L37.8965 236.601C35.1673 239.204 31.7671 242.753 29.6814 247.116C27.5656 251.543 27.1576 256.31 28.5625 260.194Z" fill="#91B3FA"/>
<path d="M82.8963 210.817L82.9898 207.708L79.7404 201.256C79.1461 200.076 79.1414 198.685 79.7279 197.501L83.4088 190.069C83.4088 190.069 85.5345 206.2 86.0938 207.541C86.6531 208.882 84.577 211.291 84.577 211.291L82.8963 210.817Z" fill="url(#paint5_linear_641_2903)"/>
<path d="M82.9907 207.708C82.9907 207.708 73.1076 234.65 56.2677 243.071C56.2677 243.071 61.8726 252.216 64.7977 252.771C64.7977 252.771 82.7871 229.746 84.6211 210.883L82.9907 207.708Z" fill="url(#paint6_linear_641_2903)"/>
<path d="M15.2669 369.774L14.7698 373.86C14.2524 375.801 11.7525 380.694 8.54417 380.376C6.57008 380.18 6.33249 374.412 6.60746 373.547C7.10876 371.97 8.02605 369.602 9.34832 368.209H13.8808C14.7189 368.209 15.3681 368.942 15.2669 369.774Z" fill="url(#paint7_linear_641_2903)"/>
<path d="M50.768 321.909L51.533 326.41C51.533 326.41 48.971 352.36 48.5154 362.74C48.4439 364.367 48.8649 365.975 49.719 367.362L54.1738 374.596L42.8523 367.916L42.6269 366.534L44.4802 363.986L42.0526 334.915C41.91 333.208 42.2624 331.495 43.0676 329.982L45.4094 325.583L50.768 321.909Z" fill="url(#paint8_linear_641_2903)"/>
<path d="M54.9196 375.644H51.3067C50.6305 375.644 49.9926 375.333 49.5802 374.797C48.4538 373.334 46.1202 370.479 45.0044 370.404C43.5023 370.304 43.6945 375.644 43.6945 375.644H42.8525L41.7859 369.008C41.5176 367.338 42.3478 365.684 43.8471 364.902C43.8471 364.902 44.1906 367.441 46.0524 368.565C47.9143 369.688 53.629 373.71 53.629 373.71C53.629 373.71 54.3289 373.611 55.0974 373.749C56.2373 373.956 56.0781 375.644 54.9196 375.644Z" fill="url(#paint9_linear_641_2903)"/>
<path d="M35.2598 324.046C35.2598 324.046 20.2513 352.516 17.8656 359.016C15.4797 365.516 14.6441 370.939 14.612 371.452C14.562 372.255 13.564 373.024 10.8131 373.024C9.39343 373.024 8.69813 372.455 8.35781 371.904C8.06736 371.434 8.05227 370.846 8.29708 370.351C9.16519 368.594 11.9203 362.979 12.9407 360.432C14.1591 357.392 16.7795 343.612 18.2167 338.821C19.6539 334.03 21.2785 328.834 27.537 324.046C27.537 324.046 31.8334 319.839 35.2598 324.046Z" fill="url(#paint10_linear_641_2903)"/>
<path d="M44.7399 277.397C46.938 268.083 44.7264 261.066 42.404 256.74C40.5516 253.29 41.8539 249.022 45.3284 247.215C50.7584 244.391 56.2675 243.07 56.2675 243.07C56.2675 243.07 67.0266 250.936 65.7503 257.093C65.0021 260.701 58.1877 278.707 58.1877 278.707C58.1877 278.707 51.8862 281.689 44.7399 277.397Z" fill="url(#paint11_linear_641_2903)"/>
<path d="M36.1564 285.519C37.7319 280.773 44.7401 277.397 44.7401 277.397C51.8864 281.69 58.1877 278.707 58.1877 278.707C58.1877 278.707 59.6009 284.109 58.6254 289.129C57.6502 294.148 51.5308 326.409 51.5308 326.409C41.8888 328.363 27.0596 324.443 27.0596 324.443C33.2012 313.54 34.5808 290.266 36.1564 285.519Z" fill="url(#paint12_linear_641_2903)"/>
<path d="M49.2331 232.23L46.0855 246.369C45.7842 247.614 46.9194 247.411 48.1785 247.173C50.2403 246.784 52.8979 245.984 53.7864 244.379C53.8767 244.216 53.922 244.031 53.9475 243.846L55.2998 234.042C55.4071 233.265 54.9867 232.51 54.2688 232.191L51.6593 231.034C50.6545 230.589 49.4916 231.162 49.2331 232.23Z" fill="url(#paint13_linear_641_2903)"/>
<path d="M88.5759 222.892C88.5759 222.892 80.2917 251.671 46.885 248.966C44.7478 248.793 42.8704 250.377 42.7042 252.514L42.6145 253.67C42.3737 256.766 44.9009 259.377 48.0031 259.22C59.1141 258.658 82.9757 254.294 91.1543 227.894L88.5759 222.892Z" fill="url(#paint14_linear_641_2903)"/>
<path d="M91.1543 227.894C91.1543 227.894 92.7461 223.209 93.146 220.281C93.546 217.353 92.0739 210.781 90.8089 208.933C89.5439 207.085 89.3322 211.615 88.7627 213.744C88.1932 215.872 89.1578 218.91 89.1578 218.91L88.576 222.892L91.1543 227.894Z" fill="url(#paint15_linear_641_2903)"/>
<path d="M55.6892 220.565C55.6892 220.565 63.6481 232.16 58.6986 235.39C53.7493 238.621 48.0835 230.381 48.0835 230.381C48.0835 230.381 46.3049 224.084 48.3285 221.997C50.3519 219.91 55.6892 220.565 55.6892 220.565Z" fill="url(#paint16_linear_641_2903)"/>
<path d="M52.3513 217.753C52.3513 217.753 55.8139 218.642 56.2716 220.225C56.7293 221.808 51.2818 223.165 49.7619 223.208L48.4183 229.536C48.4183 229.536 44.9138 223.493 46.4119 220.07C47.9099 216.647 52.3513 217.753 52.3513 217.753Z" fill="url(#paint17_linear_641_2903)"/>
<path d="M49.6836 229.569C49.6836 229.569 46.5713 225.824 45.2603 228.203C43.9493 230.581 48.0449 232.463 49.4968 231.31L49.6836 229.569Z" fill="url(#paint18_linear_641_2903)"/>
<path d="M309.023 223.137C327.635 223.137 342.724 208.049 342.724 189.437C342.724 170.824 327.635 155.736 309.023 155.736C290.411 155.736 275.322 170.824 275.322 189.437C275.322 208.049 290.411 223.137 309.023 223.137Z" fill="white"/>
<path d="M281.244 187.794L288.316 184.106V185.677C288.316 185.797 288.286 185.905 288.226 186.004C288.167 186.102 288.069 186.186 287.932 186.258L284.691 187.919C284.553 187.99 284.409 188.051 284.258 188.102C284.106 188.152 283.943 188.198 283.771 188.24C283.943 188.282 284.106 188.328 284.258 188.378C284.409 188.429 284.553 188.49 284.691 188.562L287.932 190.231C288.069 190.303 288.167 190.387 288.226 190.486C288.286 190.584 288.316 190.692 288.316 190.811V192.383L281.244 188.686V187.794Z" fill="#91B3FA"/>
<path d="M291.539 194.258V180.99H293.744V186.088C294.102 185.749 294.495 185.475 294.923 185.267C295.352 185.059 295.855 184.954 296.432 184.954C296.932 184.954 297.375 185.039 297.762 185.209C298.149 185.378 298.472 185.616 298.731 185.923C298.99 186.23 299.186 186.596 299.32 187.021C299.454 187.447 299.521 187.916 299.521 188.427V194.258H297.316V188.427C297.316 187.868 297.186 187.435 296.927 187.128C296.668 186.822 296.28 186.668 295.762 186.668C295.381 186.668 295.024 186.755 294.691 186.927C294.357 187.1 294.042 187.335 293.744 187.633V194.258H291.539V194.258Z" fill="#91B3FA"/>
<path d="M304.697 194.401C303.905 194.401 303.295 194.176 302.866 193.727C302.438 193.277 302.224 192.657 302.224 191.865V186.749H301.295C301.176 186.749 301.073 186.71 300.987 186.633C300.901 186.556 300.857 186.44 300.857 186.285V185.41L302.331 185.169L302.795 182.669C302.819 182.55 302.874 182.457 302.96 182.392C303.046 182.326 303.155 182.293 303.286 182.293H304.429V185.178H306.84V186.749H304.429V191.713C304.429 191.999 304.5 192.222 304.643 192.383C304.786 192.544 304.977 192.624 305.215 192.624C305.352 192.624 305.466 192.608 305.558 192.575C305.651 192.542 305.731 192.508 305.799 192.472C305.868 192.436 305.929 192.402 305.983 192.37C306.036 192.337 306.09 192.32 306.143 192.32C306.209 192.32 306.262 192.337 306.304 192.37C306.346 192.402 306.39 192.452 306.438 192.517L307.099 193.588C306.777 193.856 306.408 194.059 305.991 194.195C305.575 194.332 305.143 194.401 304.697 194.401Z" fill="#91B3FA"/>
<path d="M308.604 194.258V185.097H309.952C310.237 185.097 310.425 185.231 310.514 185.499L310.657 186.178C310.818 185.999 310.986 185.835 311.162 185.686C311.337 185.538 311.525 185.41 311.724 185.303C311.924 185.195 312.138 185.111 312.367 185.048C312.596 184.986 312.848 184.954 313.122 184.954C313.699 184.954 314.174 185.111 314.546 185.423C314.918 185.736 315.196 186.151 315.38 186.669C315.523 186.365 315.702 186.105 315.916 185.887C316.131 185.67 316.366 185.493 316.621 185.356C316.877 185.219 317.15 185.118 317.439 185.053C317.727 184.987 318.017 184.954 318.309 184.954C318.815 184.954 319.264 185.032 319.657 185.187C320.05 185.342 320.381 185.568 320.648 185.865C320.916 186.163 321.12 186.526 321.26 186.954C321.4 187.383 321.47 187.874 321.47 188.428V194.258H319.264V188.428C319.264 187.844 319.136 187.405 318.881 187.111C318.625 186.816 318.25 186.669 317.756 186.669C317.529 186.669 317.319 186.708 317.126 186.785C316.933 186.862 316.763 186.974 316.617 187.12C316.471 187.266 316.357 187.448 316.274 187.669C316.19 187.889 316.149 188.142 316.149 188.428V194.258H313.934V188.428C313.934 187.815 313.811 187.368 313.564 187.088C313.317 186.809 312.952 186.669 312.47 186.669C312.154 186.669 311.858 186.748 311.581 186.905C311.305 187.063 311.047 187.279 310.809 187.553V194.258H308.604V194.258Z" fill="#91B3FA"/>
<path d="M325.987 180.99V194.258H323.781V180.99H325.987Z" fill="#91B3FA"/>
<path d="M329.34 192.383V190.811C329.34 190.692 329.37 190.584 329.429 190.486C329.488 190.387 329.587 190.303 329.724 190.231L332.965 188.562C333.227 188.431 333.533 188.323 333.884 188.24C333.712 188.198 333.55 188.152 333.398 188.102C333.246 188.051 333.102 187.99 332.965 187.919L329.724 186.258C329.587 186.186 329.488 186.102 329.429 186.004C329.369 185.905 329.34 185.797 329.34 185.677V184.106L336.411 187.794V188.686L329.34 192.383Z" fill="#91B3FA"/>
<path d="M218.218 159.72C231.99 159.72 243.154 148.556 243.154 134.785C243.154 121.013 231.99 109.85 218.218 109.85C204.447 109.85 193.283 121.013 193.283 134.785C193.283 148.556 204.447 159.72 218.218 159.72Z" fill="white"/>
<path d="M205.029 134.826L212.236 131.068V132.669C212.236 132.791 212.205 132.901 212.145 133.001C212.084 133.102 211.984 133.188 211.844 133.261L208.542 134.953C208.402 135.026 208.255 135.088 208.1 135.14C207.946 135.192 207.78 135.238 207.604 135.281C207.78 135.323 207.946 135.37 208.1 135.422C208.255 135.473 208.402 135.536 208.542 135.608L211.844 137.31C211.984 137.383 212.084 137.469 212.145 137.569C212.205 137.669 212.236 137.78 212.236 137.901V139.503L205.029 135.736V134.826Z" fill="#91B3FA"/>
<path d="M216.304 141.441C216.249 141.58 216.179 141.702 216.095 141.805C216.01 141.908 215.913 141.995 215.803 142.064C215.694 142.134 215.579 142.187 215.458 142.223C215.336 142.26 215.218 142.278 215.103 142.278H214.156L219.47 128.684C219.573 128.429 219.722 128.234 219.916 128.097C220.11 127.961 220.344 127.892 220.617 127.892H221.572L216.304 141.441Z" fill="#91B3FA"/>
<path d="M223.445 139.503V137.901C223.445 137.78 223.476 137.669 223.536 137.569C223.597 137.469 223.697 137.383 223.836 137.31L227.139 135.608C227.406 135.475 227.719 135.366 228.077 135.281C227.901 135.238 227.735 135.191 227.581 135.14C227.426 135.088 227.279 135.026 227.139 134.953L223.836 133.261C223.697 133.188 223.597 133.102 223.536 133.001C223.476 132.901 223.445 132.791 223.445 132.669V131.068L230.652 134.826V135.736L223.445 139.503Z" fill="#91B3FA"/>
<g opacity="0.64">
<path d="M20.162 161.127C20.2808 161.127 20.3995 161.081 20.4888 160.989C20.6655 160.808 20.662 160.519 20.4817 160.343C20.212 160.079 19.946 159.812 19.6849 159.542C19.509 159.361 19.2197 159.355 19.0385 159.531C18.8573 159.707 18.8524 159.996 19.0278 160.178C19.2953 160.454 19.5666 160.727 19.8425 160.997C19.9317 161.083 20.047 161.127 20.162 161.127Z" fill="url(#paint19_linear_641_2903)"/>
<path d="M48.6705 173.163C48.9183 173.163 49.1214 172.965 49.1276 172.717C49.1335 172.464 48.9339 172.255 48.6816 172.249C47.9415 172.231 47.1896 172.193 46.4468 172.134C46.1959 172.117 45.975 172.303 45.9553 172.554C45.9356 172.806 46.1236 173.026 46.3753 173.046C47.1348 173.105 47.9034 173.145 48.6592 173.163C48.6633 173.163 48.6669 173.163 48.6705 173.163ZM50.9342 173.157C50.9391 173.157 50.9436 173.157 50.948 173.157C51.7075 173.135 52.4757 173.091 53.2319 173.028C53.4836 173.007 53.6707 172.786 53.6492 172.534C53.6287 172.283 53.41 172.096 53.1559 172.117C52.4158 172.179 51.664 172.221 50.9211 172.243C50.6685 172.251 50.4703 172.461 50.4775 172.714C50.4851 172.961 50.6883 173.157 50.9342 173.157ZM44.1616 172.81C44.3875 172.81 44.5838 172.642 44.6143 172.413C44.6477 172.162 44.4713 171.933 44.2214 171.899C43.4861 171.802 42.7429 171.683 42.0116 171.545C41.7643 171.499 41.5245 171.662 41.4781 171.91C41.4312 172.158 41.5946 172.397 41.8428 172.444C42.5902 172.584 43.3495 172.706 44.1009 172.806C44.1214 172.808 44.1415 172.81 44.1616 172.81ZM55.4431 172.781C55.4636 172.781 55.4846 172.78 55.506 172.777C56.2599 172.673 57.0194 172.548 57.7626 172.405C58.0104 172.357 58.1729 172.117 58.1247 171.869C58.0774 171.622 57.838 171.46 57.5894 171.507C56.8622 171.647 56.1193 171.77 55.381 171.871C55.131 171.906 54.956 172.136 54.9908 172.386C55.022 172.615 55.2181 172.781 55.4431 172.781ZM39.7158 171.973C39.9216 171.973 40.1081 171.834 40.1595 171.625C40.2193 171.379 40.0688 171.132 39.8238 171.072C39.1046 170.896 38.3783 170.698 37.6653 170.482C37.423 170.409 37.1685 170.546 37.0953 170.787C37.022 171.029 37.1587 171.284 37.4001 171.357C38.1291 171.578 38.8716 171.781 39.6068 171.96C39.6435 171.969 39.6796 171.973 39.7158 171.973ZM59.8858 171.926C59.9224 171.926 59.9594 171.922 59.9965 171.913C60.7327 171.73 61.4741 171.525 62.2 171.303C62.4416 171.229 62.5777 170.974 62.5035 170.732C62.4299 170.491 62.1731 170.354 61.9331 170.429C61.2224 170.646 60.4965 170.847 59.776 171.026C59.5309 171.086 59.3817 171.335 59.4425 171.58C59.4942 171.788 59.6809 171.926 59.8858 171.926ZM35.3852 170.664C35.5722 170.664 35.7476 170.548 35.8151 170.362C35.9009 170.125 35.778 169.863 35.541 169.777C34.8454 169.525 34.1441 169.25 33.4571 168.96C33.2245 168.861 32.9562 168.97 32.858 169.202C32.7598 169.435 32.8683 169.703 33.1009 169.802C33.8027 170.098 34.5192 170.379 35.2295 170.637C35.2811 170.655 35.3333 170.664 35.3852 170.664ZM64.2115 170.605C64.2638 170.605 64.3163 170.595 64.3681 170.577C65.0819 170.316 65.7972 170.033 66.4944 169.736C66.7266 169.637 66.8345 169.368 66.7354 169.136C66.6358 168.903 66.3661 168.797 66.1353 168.895C65.4532 169.186 64.7533 169.463 64.0546 169.718C63.8175 169.805 63.6952 170.067 63.7818 170.304C63.85 170.489 64.025 170.605 64.2115 170.605ZM31.2178 168.901C31.3875 168.901 31.55 168.807 31.6295 168.644C31.7398 168.417 31.6455 168.144 31.4184 168.033C30.7491 167.707 30.0813 167.36 29.4327 167.001C29.2122 166.879 28.9341 166.958 28.8113 167.179C28.6891 167.4 28.7689 167.678 28.9898 167.801C29.6523 168.167 30.3344 168.522 31.0184 168.855C31.0825 168.886 31.1508 168.901 31.2178 168.901ZM68.3726 168.831C68.4399 168.831 68.5087 168.816 68.5735 168.784C69.2542 168.45 69.9356 168.093 70.5984 167.722C70.8185 167.599 70.8975 167.32 70.7743 167.1C70.6511 166.88 70.374 166.801 70.152 166.924C69.5034 167.287 68.8369 167.636 68.1708 167.963C67.9441 168.074 67.8507 168.348 67.9619 168.575C68.0413 168.737 68.2034 168.831 68.3726 168.831ZM27.2602 166.71C27.4125 166.71 27.5616 166.634 27.6481 166.495C27.7821 166.281 27.7173 165.999 27.503 165.865C26.8723 165.47 26.245 165.054 25.6389 164.628C25.4322 164.483 25.1473 164.532 25.0018 164.739C24.8568 164.946 24.9067 165.231 25.113 165.376C25.7326 165.811 26.3737 166.236 27.0183 166.64C27.0939 166.687 27.1772 166.71 27.2602 166.71ZM72.3198 166.625C72.4033 166.625 72.4877 166.602 72.5635 166.554C73.2046 166.149 73.8438 165.722 74.463 165.283C74.6693 165.137 74.7175 164.851 74.5716 164.645C74.4261 164.44 74.1408 164.391 73.9345 164.537C73.3284 164.966 72.7029 165.385 72.0753 165.781C71.8618 165.916 71.798 166.198 71.9329 166.411C72.0198 166.549 72.168 166.625 72.3198 166.625ZM23.5604 164.109C23.6961 164.109 23.8301 164.049 23.9202 163.935C24.076 163.736 24.042 163.449 23.8434 163.293C23.2577 162.832 22.6783 162.351 22.122 161.863C21.9332 161.696 21.6443 161.715 21.477 161.905C21.3104 162.095 21.3297 162.384 21.5193 162.55C22.0876 163.049 22.6796 163.54 23.2783 164.011C23.3618 164.077 23.4618 164.109 23.5604 164.109ZM76.0081 164.01C76.1077 164.01 76.2077 163.978 76.2916 163.911C76.8872 163.439 77.4768 162.946 78.0433 162.444C78.2326 162.277 78.2505 161.988 78.083 161.799C77.9151 161.61 77.6254 161.593 77.438 161.76C76.8831 162.25 76.3063 162.733 75.7238 163.195C75.526 163.352 75.4925 163.639 75.6496 163.837C75.7398 163.951 75.8732 164.01 76.0081 164.01ZM79.3933 161.017C79.5093 161.017 79.6251 160.973 79.7143 160.885C80.2527 160.355 80.7857 159.801 81.2979 159.238C81.4679 159.052 81.4545 158.763 81.268 158.593C81.0801 158.423 80.7921 158.436 80.622 158.623C80.1211 159.173 79.5997 159.715 79.0724 160.234C78.893 160.411 78.8908 160.7 79.0675 160.88C79.1571 160.971 79.275 161.017 79.3933 161.017ZM82.436 157.678C82.5686 157.678 82.6998 157.62 82.7905 157.51C83.2704 156.922 83.7413 156.314 84.1896 155.701C84.3383 155.497 84.2941 155.211 84.0901 155.062C83.8866 154.913 83.6003 154.958 83.4513 155.161C83.0129 155.761 82.5526 156.356 82.0825 156.931C81.9228 157.127 81.9517 157.415 82.1472 157.575C82.232 157.644 82.3347 157.678 82.436 157.678ZM85.1052 154.027C85.2547 154.027 85.4006 153.954 85.4887 153.82C85.9048 153.181 86.3075 152.526 86.6856 151.871C86.8119 151.653 86.7369 151.373 86.5182 151.247C86.3003 151.12 86.0204 151.196 85.8936 151.414C85.524 152.054 85.1303 152.696 84.7227 153.32C84.5848 153.532 84.6446 153.815 84.8561 153.953C84.9328 154.003 85.0194 154.027 85.1052 154.027ZM87.3698 150.112C87.5364 150.112 87.6966 150.021 87.7774 149.863C87.9399 149.544 88.0988 149.223 88.2542 148.898C88.4296 148.533 88.5989 148.167 88.7622 147.799C88.8645 147.568 88.7608 147.298 88.5302 147.195C88.2989 147.092 88.0293 147.197 87.9266 147.428C87.7668 147.787 87.6012 148.146 87.4302 148.503C87.2775 148.821 87.1222 149.136 86.9632 149.448C86.8486 149.673 86.9378 149.948 87.1628 150.063C87.2292 150.097 87.3001 150.112 87.3698 150.112ZM89.21 145.98C89.3939 145.98 89.5671 145.868 89.6368 145.686C89.9083 144.979 90.1645 144.253 90.398 143.53C90.4757 143.289 90.344 143.032 90.1038 142.954C89.8622 142.877 89.6056 143.008 89.5283 143.248C89.2993 143.956 89.0489 144.667 88.7833 145.359C88.6927 145.595 88.8104 145.859 89.0463 145.95C89.1001 145.97 89.1555 145.98 89.21 145.98ZM90.601 141.675C90.8033 141.675 90.9881 141.54 91.0425 141.335C91.2359 140.605 91.4126 139.856 91.5684 139.109C91.6202 138.862 91.4618 138.62 91.2144 138.568C90.9697 138.516 90.7252 138.675 90.6738 138.922C90.5211 139.653 90.3479 140.386 90.1587 141.101C90.0939 141.345 90.2395 141.595 90.4836 141.66C90.5229 141.67 90.5622 141.675 90.601 141.675ZM91.5219 137.246C91.7442 137.246 91.9389 137.084 91.9733 136.858C92.0875 136.109 92.1826 135.345 92.2568 134.588C92.2814 134.337 92.0978 134.114 91.8465 134.089C91.5921 134.063 91.372 134.249 91.347 134.5C91.2747 135.24 91.1814 135.987 91.0697 136.721C91.0318 136.97 91.2031 137.203 91.4527 137.241C91.476 137.245 91.4991 137.246 91.5219 137.246ZM91.9612 132.744C92.2045 132.744 92.4066 132.552 92.4174 132.307C92.4437 131.699 92.457 131.08 92.457 130.468L92.4549 130.021C92.4527 129.768 92.2264 129.558 91.9938 129.568C91.7411 129.57 91.5384 129.777 91.5407 130.029L91.5429 130.468C91.5429 131.068 91.53 131.673 91.504 132.267C91.4929 132.52 91.6889 132.733 91.9411 132.744C91.9479 132.744 91.9545 132.744 91.9612 132.744Z" fill="url(#paint20_linear_641_2903)"/>
<path d="M91.9096 128.195C91.9194 128.195 91.9297 128.195 91.9395 128.194C92.1912 128.178 92.3824 127.96 92.3662 127.708C92.3412 127.324 92.3113 126.94 92.276 126.557C92.2528 126.306 92.0341 126.121 91.7788 126.144C91.5275 126.167 91.3427 126.39 91.3654 126.641C91.3998 127.016 91.4296 127.391 91.4538 127.767C91.4695 128.009 91.6708 128.195 91.9096 128.195Z" fill="url(#paint21_linear_641_2903)"/>
</g>
<g opacity="0.64">
<path d="M77.4959 99.0173C77.6236 99.0173 77.7504 98.9641 77.841 98.8601C78.0066 98.6697 77.9865 98.3809 77.7959 98.2152C77.5061 97.9632 77.2124 97.7141 76.9146 97.4689C76.7195 97.3086 76.4316 97.337 76.2708 97.5317C76.1106 97.7265 76.1387 98.0146 76.3333 98.1752C76.6248 98.415 76.9123 98.6582 77.1957 98.9049C77.2826 98.9804 77.3893 99.0173 77.4959 99.0173Z" fill="url(#paint22_linear_641_2903)"/>
<path d="M7.5097 133.199C7.51826 133.199 7.52669 133.199 7.53511 133.199C7.78739 133.185 7.98018 132.969 7.96632 132.717C7.92435 131.947 7.90287 131.172 7.90287 130.413C7.90287 130.16 7.69842 129.956 7.44572 129.956C7.19304 129.956 6.98858 130.16 6.98858 130.413C6.98858 131.188 7.01044 131.98 7.05379 132.767C7.06683 133.011 7.26856 133.199 7.5097 133.199ZM7.51093 128.541C7.75153 128.541 7.95327 128.353 7.96672 128.109C8.00911 127.344 8.07339 126.572 8.15829 125.813C8.18601 125.562 8.00517 125.336 7.75425 125.308C7.50781 125.278 7.2774 125.461 7.24928 125.712C7.16315 126.487 7.09752 127.277 7.05418 128.059C7.03992 128.311 7.23326 128.526 7.48499 128.541C7.49409 128.541 7.50251 128.541 7.51093 128.541ZM8.02609 123.911C8.24536 123.911 8.43911 123.753 8.47661 123.53C8.60295 122.777 8.75251 122.017 8.92165 121.269C8.97694 121.022 8.8226 120.778 8.57657 120.722C8.33054 120.667 8.08547 120.821 8.02977 121.067C7.85696 121.832 7.70384 122.609 7.57491 123.378C7.53334 123.627 7.70126 123.863 7.94987 123.905C7.97569 123.909 8.00123 123.911 8.02609 123.911ZM9.05167 119.368C9.25082 119.368 9.43383 119.237 9.49143 119.036C9.70174 118.297 9.93472 117.557 10.1839 116.837C10.2665 116.598 10.1397 116.338 9.90089 116.256C9.66382 116.174 9.40269 116.3 9.31969 116.538C9.06523 117.275 8.82722 118.03 8.61216 118.785C8.54301 119.028 8.68362 119.28 8.92639 119.35C8.96809 119.362 9.0105 119.368 9.05167 119.368ZM10.5721 114.964C10.752 114.964 10.923 114.857 10.9953 114.68C11.2837 113.974 11.5962 113.264 11.9243 112.569C12.0319 112.341 11.9346 112.069 11.7064 111.961C11.4765 111.853 11.2055 111.951 11.0975 112.179C10.7622 112.888 10.4431 113.613 10.1488 114.334C10.0533 114.568 10.1654 114.835 10.3993 114.93C10.456 114.953 10.5145 114.964 10.5721 114.964ZM12.564 110.752C12.7265 110.752 12.8841 110.666 12.9667 110.513C13.3291 109.842 13.7168 109.17 14.1181 108.516C14.2502 108.301 14.1829 108.02 13.9677 107.888C13.7538 107.755 13.4713 107.822 13.3387 108.038C12.9288 108.706 12.5333 109.392 12.1623 110.078C12.0422 110.3 12.1252 110.577 12.3471 110.697C12.4162 110.735 12.4908 110.752 12.564 110.752ZM15.0014 106.784C15.1465 106.784 15.2888 106.715 15.3777 106.586C15.8116 105.959 16.2706 105.334 16.741 104.729C16.8959 104.53 16.8601 104.243 16.6611 104.088C16.4611 103.932 16.1745 103.969 16.0196 104.168C15.5384 104.786 15.0697 105.425 14.6259 106.066C14.4822 106.274 14.5339 106.559 14.7415 106.702C14.8211 106.757 14.9117 106.784 15.0014 106.784ZM17.8594 103.11C17.9871 103.11 18.1138 103.057 18.204 102.953C18.7049 102.377 19.2295 101.808 19.7638 101.259C19.9397 101.078 19.936 100.789 19.7548 100.613C19.574 100.437 19.2851 100.441 19.1084 100.622C18.5629 101.182 18.0263 101.765 17.5147 102.353C17.3487 102.543 17.3688 102.832 17.5594 102.998C17.6459 103.073 17.7527 103.11 17.8594 103.11ZM21.1053 99.7752C21.216 99.7752 21.3267 99.7353 21.4146 99.6547C21.9749 99.1398 22.5596 98.6313 23.1525 98.1439C23.3476 97.9836 23.3757 97.6954 23.2154 97.5003C23.0556 97.3062 22.7672 97.2769 22.5721 97.4376C21.9659 97.9358 21.3682 98.4551 20.7958 98.9816C20.6101 99.1526 20.5976 99.4416 20.7687 99.6275C20.8589 99.7254 20.9821 99.7752 21.1053 99.7752ZM74.7847 96.8485C74.9253 96.8485 75.0641 96.784 75.1534 96.6618C75.3029 96.4585 75.2592 96.1724 75.0555 96.0228C74.4269 95.561 73.7757 95.1096 73.1199 94.6818C72.9082 94.5443 72.6253 94.6033 72.4868 94.8148C72.3489 95.0262 72.4087 95.3094 72.6198 95.4473C73.2617 95.866 73.8988 96.3075 74.5144 96.7598C74.5958 96.8197 74.6909 96.8485 74.7847 96.8485ZM24.703 96.8201C24.7967 96.8201 24.8914 96.7913 24.9727 96.7317C25.5878 96.2806 26.2258 95.8398 26.8677 95.4215C27.0793 95.2836 27.1391 95.0005 27.0011 94.789C26.864 94.5772 26.5811 94.5175 26.3686 94.6554C25.7123 95.0828 25.061 95.5336 24.4325 95.9943C24.2285 96.1436 24.1847 96.4297 24.3339 96.6333C24.4235 96.7555 24.5623 96.8201 24.703 96.8201ZM70.8837 94.303C71.0417 94.303 71.1954 94.2211 71.2801 94.0742C71.4065 93.8555 71.3311 93.5761 71.1128 93.45C70.4342 93.0587 69.7374 92.6817 69.0414 92.3297C68.816 92.2152 68.5419 92.3058 68.4272 92.5311C68.3134 92.7563 68.4036 93.0315 68.629 93.1453C69.3097 93.4899 69.9919 93.8589 70.6556 94.2419C70.728 94.2833 70.8062 94.303 70.8837 94.303ZM28.6042 94.2784C28.6815 94.2784 28.76 94.2587 28.8319 94.2176C29.4939 93.8361 30.1764 93.4681 30.8595 93.1231C31.0849 93.0095 31.1756 92.7346 31.0618 92.5093C30.9479 92.2841 30.673 92.1931 30.448 92.307C29.7498 92.6593 29.0525 93.0354 28.3757 93.4251C28.1569 93.5512 28.0814 93.8306 28.2077 94.0494C28.2921 94.1964 28.4462 94.2784 28.6042 94.2784ZM66.7273 92.1984C66.9031 92.1984 67.0706 92.0963 67.146 91.9252C67.2477 91.6941 67.1428 91.4243 66.9116 91.3225C66.1961 91.0077 65.4626 90.7084 64.7313 90.4331C64.4948 90.3445 64.2308 90.4639 64.1425 90.6998C64.0532 90.9361 64.173 91.1997 64.4091 91.2888C65.1252 91.5582 65.8429 91.8513 66.5439 92.1595C66.6035 92.1859 66.6661 92.1984 66.7273 92.1984ZM32.7621 92.1806C32.8233 92.1806 32.8853 92.1681 32.9451 92.142C33.6429 91.8365 34.3617 91.5452 35.0807 91.2762C35.3169 91.1877 35.4369 90.9245 35.3486 90.6881C35.2598 90.4517 34.9991 90.3312 34.7603 90.42C34.0259 90.6946 33.2916 90.9924 32.5782 91.3046C32.347 91.4059 32.2415 91.6753 32.3429 91.9066C32.4179 92.0781 32.5858 92.1806 32.7621 92.1806ZM62.368 90.5575C62.5621 90.5575 62.7426 90.4325 62.8041 90.2374C62.88 89.9966 62.7461 89.74 62.5055 89.6643C61.7603 89.4295 60.9979 89.2126 60.2399 89.0192C59.9956 88.9574 59.7462 89.1046 59.6841 89.3494C59.6216 89.594 59.7694 89.8429 60.0139 89.9054C60.7558 90.0945 61.5018 90.3067 62.2304 90.5362C62.2764 90.5507 62.3225 90.5575 62.368 90.5575ZM37.125 90.5501C37.1701 90.5501 37.216 90.5431 37.2615 90.5291C37.9891 90.3012 38.7351 90.0903 39.4793 89.9016C39.724 89.8395 39.8722 89.5909 39.8101 89.3462C39.748 89.1009 39.4994 88.9536 39.2543 89.0154C38.4945 89.2081 37.7321 89.4237 36.9883 89.6563C36.7473 89.7317 36.6133 89.9881 36.6887 90.2293C36.75 90.4248 36.9303 90.5501 37.125 90.5501ZM57.8542 89.4067C58.0685 89.4067 58.2596 89.2558 58.3024 89.0377C58.3511 88.7902 58.1899 88.5497 57.9421 88.5011C57.1743 88.35 56.3926 88.2188 55.619 88.1109C55.3681 88.0738 55.1382 88.2504 55.1035 88.5004C55.0687 88.7504 55.2427 88.9815 55.4932 89.0163C56.2499 89.1218 57.0147 89.2502 57.7655 89.3979C57.7953 89.404 57.8253 89.4067 57.8542 89.4067ZM41.6395 89.4056C41.6686 89.4056 41.6981 89.4029 41.7279 89.3971C42.4802 89.2499 43.2449 89.1218 44.0016 89.0165C44.2516 88.9819 44.4261 88.7509 44.3914 88.501C44.3566 88.2507 44.1254 88.0744 43.8758 88.1112C43.1027 88.2185 42.321 88.3493 41.5522 88.4997C41.3044 88.5481 41.1428 88.7883 41.1915 89.0361C41.2341 89.2543 41.4253 89.4056 41.6395 89.4056ZM46.2546 88.7637C46.2671 88.7637 46.28 88.7633 46.2929 88.7621C47.0541 88.6985 47.8286 88.6556 48.5947 88.6342C48.8474 88.6273 49.046 88.417 49.0394 88.1646C49.0323 87.9122 48.8058 87.7106 48.5697 87.7204C47.7862 87.742 46.9948 87.786 46.2171 87.8509C45.9654 87.8718 45.7787 88.0929 45.7998 88.3445C45.8194 88.5832 46.0193 88.7637 46.2546 88.7637ZM53.2405 88.7628C53.4758 88.7628 53.6758 88.5822 53.6953 88.3435C53.7164 88.0918 53.5293 87.871 53.278 87.85C52.4977 87.785 51.7062 87.7413 50.9262 87.7201C50.6878 87.7103 50.4638 87.9118 50.4566 88.1644C50.4499 88.4169 50.649 88.6269 50.9012 88.6338C51.6642 88.6548 52.4387 88.6977 53.202 88.761C53.2151 88.7623 53.228 88.7628 53.2405 88.7628Z" fill="url(#paint23_linear_641_2903)"/>
<path d="M7.84912 136.683C7.87004 136.683 7.8915 136.682 7.91297 136.679C8.16294 136.644 8.3371 136.413 8.30219 136.163C8.25002 135.79 8.20357 135.416 8.16159 135.042C8.13306 134.791 7.91026 134.61 7.65622 134.638C7.40529 134.667 7.22461 134.893 7.25273 135.143C7.29553 135.526 7.34376 135.908 7.39701 136.289C7.42867 136.518 7.62455 136.683 7.84912 136.683Z" fill="url(#paint24_linear_641_2903)"/>
</g>
<path d="M13.3819 140.251C13.2912 140.017 13.3586 139.751 13.55 139.589L19.0124 134.964C18.5444 131.654 18.6006 128.246 19.2326 124.865L13.9839 120.005C13.7997 119.835 13.7441 119.566 13.8452 119.337L17.3055 111.479C17.4067 111.25 17.6424 111.11 17.8923 111.13L25.0208 111.722C27.0888 108.973 29.5648 106.63 32.3227 104.741L32.0472 97.5888C32.0375 97.3382 32.188 97.109 32.4218 97.0181L40.4246 93.9091C40.6586 93.8182 40.9243 93.8857 41.0864 94.0773L45.7117 99.5397C49.0213 99.0717 52.4295 99.1281 55.8109 99.7601L60.6705 94.5112C60.841 94.3271 61.1094 94.2714 61.3391 94.3725L69.1965 97.833C69.4261 97.934 69.5662 98.1698 69.5455 98.4199L68.954 105.548C71.703 107.616 74.0455 110.092 75.9344 112.85L83.087 112.575C83.3375 112.565 83.5668 112.716 83.6576 112.949L86.7666 120.952C86.8576 121.186 86.79 121.452 86.5984 121.614L81.136 126.239C81.6042 129.549 81.5478 132.957 80.9158 136.338L86.1648 141.198C86.3488 141.368 86.4045 141.637 86.3035 141.867L82.843 149.724C82.7419 149.954 82.5062 150.094 82.2562 150.073L75.1277 149.481C73.0599 152.23 70.5835 154.573 67.8258 156.462L68.1013 163.614C68.1111 163.865 67.9605 164.094 67.7267 164.185L59.7239 167.294C59.4901 167.385 59.2244 167.317 59.0622 167.126L54.4369 161.664C51.1272 162.132 47.719 162.075 44.3376 161.443L39.478 166.692C39.3078 166.876 39.0392 166.932 38.8094 166.831L30.9523 163.37C30.7227 163.269 30.5825 163.034 30.6032 162.784L31.1947 155.655C28.4458 153.587 26.1034 151.111 24.2142 148.353L17.0619 148.629C16.8113 148.638 16.5821 148.488 16.4911 148.254L13.3819 140.251Z" fill="url(#paint25_linear_641_2903)"/>
<path d="M50.0658 138.679C52.4733 138.679 54.8567 137.611 56.4482 135.57C59.1875 132.056 58.5567 126.968 55.043 124.229C53.3408 122.902 51.2216 122.318 49.0815 122.583C46.9391 122.848 45.029 123.932 43.7017 125.634C42.375 127.336 41.7901 129.453 42.0553 131.595C42.3209 133.737 43.4044 135.648 45.1066 136.975C46.5798 138.123 48.3288 138.679 50.0658 138.679ZM50.0895 123.434C51.6765 123.434 53.209 123.958 54.4804 124.95C57.5973 127.379 58.1562 131.891 55.7267 135.008C53.297 138.124 48.785 138.682 45.669 136.254C44.1593 135.077 43.1981 133.383 42.9628 131.483C42.7275 129.583 43.2458 127.706 44.4231 126.196C45.5999 124.686 47.294 123.725 49.1935 123.49C49.4931 123.453 49.7926 123.434 50.0895 123.434Z" fill="#91B3FA"/>
<path d="M50.22 151.723C58.3631 151.723 66.141 147.002 69.6284 139.084C70.8471 136.316 71.4238 133.425 71.4238 130.579C71.4229 122.437 66.7013 114.659 58.7845 111.172C53.6079 108.893 47.854 108.766 42.5827 110.814C37.311 112.862 33.1521 116.84 30.8727 122.016C30.2643 123.397 29.8032 124.842 29.5013 126.31C29.4951 126.341 29.4919 126.371 29.4919 126.402C29.4915 126.615 29.6405 126.805 29.8571 126.85C30.1031 126.901 30.3463 126.741 30.3969 126.494C30.6857 125.089 31.1272 123.707 31.7093 122.384V122.384C31.8392 122.09 31.9753 121.799 32.1179 121.512C32.1187 121.511 32.1187 121.51 32.1196 121.509C32.1245 121.499 32.1299 121.488 32.1352 121.478C32.1362 121.475 32.1375 121.473 32.1384 121.471C32.1388 121.471 32.1388 121.47 32.1393 121.469C32.1393 121.469 32.1397 121.468 32.1397 121.468C32.1411 121.465 32.1424 121.463 32.1438 121.461C34.3968 116.959 38.1882 113.501 42.914 111.666C47.9594 109.706 53.4638 109.828 58.4158 112.009C65.991 115.345 70.5087 122.787 70.5097 130.578C70.5097 133.301 69.9578 136.067 68.7918 138.715C64.2888 148.939 52.3074 153.593 42.0849 149.091C38.7239 147.611 35.832 145.252 33.7217 142.271C33.5758 142.065 33.2914 142.015 33.0843 142.161C32.9584 142.251 32.8915 142.392 32.8915 142.535C32.8915 142.627 32.9187 142.719 32.9755 142.799C35.1812 145.916 38.204 148.381 41.7163 149.928C44.4835 151.146 47.3741 151.723 50.22 151.723Z" fill="#91B3FA"/>
<g opacity="0.64">
<path d="M81.4021 108.225C81.5218 108.225 81.6413 108.178 81.7311 108.085C81.9067 107.903 81.9012 107.614 81.7196 107.439C81.4486 107.178 81.1826 106.912 80.9218 106.643C80.7469 106.461 80.4567 106.457 80.2755 106.633C80.0943 106.808 80.0898 107.098 80.2657 107.279C80.5336 107.556 80.8068 107.828 81.0849 108.097C81.1736 108.182 81.2879 108.225 81.4021 108.225Z" fill="url(#paint26_linear_641_2903)"/>
<path d="M104.841 117.698C105.461 117.698 106.089 117.681 106.706 117.647C106.958 117.633 107.151 117.418 107.137 117.166C107.123 116.913 106.91 116.721 106.656 116.734C105.902 116.775 105.14 116.792 104.375 116.78H104.369C104.12 116.78 103.915 116.981 103.912 117.231C103.908 117.484 104.11 117.691 104.363 117.695C104.522 117.697 104.682 117.698 104.841 117.698ZM102.06 117.583C102.295 117.583 102.495 117.402 102.515 117.164C102.536 116.912 102.349 116.691 102.097 116.67C101.342 116.608 100.58 116.518 99.832 116.403C99.5811 116.364 99.349 116.536 99.311 116.786C99.2725 117.035 99.444 117.268 99.6935 117.307C100.462 117.425 101.245 117.517 102.021 117.581C102.034 117.583 102.047 117.583 102.06 117.583ZM108.984 117.443C109.002 117.443 109.021 117.441 109.04 117.439C109.813 117.343 110.592 117.22 111.355 117.072C111.602 117.024 111.764 116.784 111.716 116.536C111.668 116.289 111.43 116.127 111.181 116.175C110.438 116.319 109.681 116.439 108.928 116.532C108.678 116.563 108.499 116.791 108.531 117.042C108.559 117.273 108.756 117.443 108.984 117.443ZM97.4907 116.883C97.6996 116.883 97.8884 116.739 97.9363 116.527C97.9916 116.28 97.8367 116.036 97.5902 115.98C96.8505 115.814 96.1082 115.62 95.3836 115.404C95.1394 115.332 94.8867 115.47 94.8147 115.712C94.7425 115.954 94.8804 116.208 95.1219 116.28C95.8665 116.502 96.6295 116.701 97.3901 116.872C97.4237 116.88 97.4576 116.883 97.4907 116.883ZM113.52 116.564C113.559 116.564 113.599 116.559 113.638 116.548C114.388 116.349 115.142 116.121 115.88 115.87C116.12 115.789 116.248 115.529 116.166 115.29C116.085 115.052 115.826 114.923 115.586 115.005C114.868 115.249 114.133 115.471 113.403 115.665C113.159 115.729 113.014 115.979 113.078 116.223C113.133 116.428 113.318 116.564 113.52 116.564ZM93.0605 115.564C93.2458 115.564 93.4198 115.45 93.4885 115.267C93.577 115.03 93.4569 114.767 93.2208 114.679C92.5132 114.414 91.8038 114.121 91.1123 113.807C90.8819 113.702 90.6114 113.805 90.5069 114.035C90.4029 114.265 90.5046 114.536 90.7346 114.64C91.4449 114.962 92.1739 115.263 92.9001 115.535C92.9529 115.555 93.0074 115.564 93.0605 115.564ZM117.896 115.077C117.955 115.077 118.015 115.066 118.072 115.042C118.788 114.743 119.505 114.414 120.202 114.066C120.428 113.953 120.519 113.679 120.406 113.453C120.293 113.227 120.019 113.135 119.793 113.248C119.114 113.587 118.417 113.907 117.719 114.198C117.486 114.295 117.377 114.563 117.474 114.796C117.547 114.971 117.717 115.077 117.896 115.077ZM88.8498 113.655C89.0127 113.655 89.1703 113.568 89.2529 113.415C89.3726 113.192 89.289 112.915 89.0662 112.796C88.3997 112.438 87.7363 112.052 87.0952 111.649C86.8818 111.514 86.5998 111.579 86.4649 111.792C86.3305 112.006 86.3948 112.288 86.6086 112.423C87.2675 112.837 87.9488 113.233 88.6339 113.601C88.703 113.638 88.777 113.655 88.8498 113.655ZM122.029 113.01C122.108 113.01 122.188 112.99 122.26 112.947C122.932 112.552 123.597 112.129 124.238 111.69C124.446 111.548 124.5 111.263 124.357 111.055C124.215 110.847 123.93 110.793 123.722 110.936C123.098 111.363 122.45 111.774 121.797 112.159C121.579 112.287 121.507 112.567 121.635 112.785C121.72 112.93 121.873 113.01 122.029 113.01ZM84.9373 111.196C85.0785 111.196 85.2177 111.131 85.3074 111.008C85.456 110.804 85.4109 110.518 85.207 110.37C84.595 109.924 83.9906 109.451 83.4106 108.965C83.2165 108.802 82.9281 108.828 82.7669 109.021C82.6045 109.214 82.6298 109.503 82.8232 109.665C83.4188 110.165 84.0396 110.651 84.6686 111.109C84.7499 111.168 84.8441 111.196 84.9373 111.196ZM125.842 110.4C125.941 110.4 126.041 110.368 126.125 110.302C126.737 109.818 127.339 109.308 127.912 108.786C128.099 108.616 128.113 108.327 127.943 108.14C127.773 107.954 127.483 107.94 127.297 108.11C126.739 108.617 126.154 109.113 125.558 109.584C125.36 109.741 125.326 110.029 125.483 110.227C125.573 110.34 125.707 110.4 125.842 110.4ZM129.261 107.293C129.381 107.293 129.501 107.245 129.591 107.152C130.129 106.591 130.654 106.003 131.153 105.405C131.314 105.212 131.288 104.923 131.094 104.762C130.899 104.6 130.612 104.627 130.45 104.82C129.965 105.402 129.454 105.973 128.931 106.519C128.756 106.701 128.762 106.991 128.944 107.165C129.033 107.25 129.147 107.293 129.261 107.293ZM132.22 103.745C132.362 103.745 132.501 103.679 132.591 103.556C133.045 102.928 133.485 102.274 133.898 101.612C134.032 101.398 133.967 101.116 133.753 100.982C133.539 100.848 133.257 100.914 133.123 101.128C132.721 101.772 132.292 102.409 131.85 103.02C131.702 103.225 131.748 103.51 131.953 103.658C132.033 103.717 132.127 103.745 132.22 103.745ZM134.666 99.8252C134.83 99.8252 134.988 99.7375 135.07 99.5833C135.304 99.1442 135.533 98.6919 135.75 98.2391C135.871 97.9867 135.988 97.7338 136.103 97.4802C136.207 97.2501 136.104 96.9793 135.874 96.8756C135.643 96.7714 135.373 96.8746 135.27 97.1043C135.158 97.3516 135.043 97.5983 134.926 97.8443C134.714 98.2852 134.492 98.7256 134.263 99.153C134.145 99.3758 134.229 99.6528 134.452 99.7716C134.52 99.808 134.594 99.8252 134.666 99.8252ZM136.563 95.6101C136.748 95.6101 136.923 95.4961 136.991 95.3116C137.262 94.581 137.511 93.8328 137.73 93.0874C137.802 92.8452 137.663 92.591 137.421 92.5195C137.177 92.4488 136.924 92.5873 136.853 92.8289C136.639 93.5545 136.397 94.2829 136.134 94.9937C136.046 95.2305 136.167 95.4935 136.404 95.5811C136.456 95.6007 136.51 95.6101 136.563 95.6101ZM137.87 91.1759C138.08 91.1759 138.268 91.0308 138.316 90.8177C138.483 90.0619 138.627 89.2865 138.744 88.5133C138.781 88.2635 138.609 88.0308 138.359 87.9933C138.11 87.9544 137.877 88.1279 137.839 88.3772C137.726 89.1301 137.586 89.8845 137.423 90.62C137.369 90.8666 137.524 91.1106 137.771 91.1653C137.804 91.1725 137.837 91.1759 137.87 91.1759ZM138.555 86.6055C138.791 86.6055 138.991 86.424 139.011 86.1848C139.072 85.4118 139.108 84.6241 139.117 83.844C139.12 83.5916 138.918 83.3844 138.665 83.3816C138.417 83.385 138.206 83.5809 138.203 83.8333C138.194 84.5929 138.159 85.3596 138.099 86.112C138.079 86.3636 138.267 86.5838 138.518 86.6039C138.531 86.605 138.543 86.6055 138.555 86.6055Z" fill="url(#paint27_linear_641_2903)"/>
<path d="M138.605 81.9696C138.614 81.9696 138.623 81.9693 138.632 81.9686C138.885 81.954 139.077 81.7375 139.062 81.4857C139.039 81.1001 139.01 80.7157 138.975 80.3319C138.952 80.0805 138.732 79.897 138.478 79.9185C138.226 79.9414 138.042 80.1639 138.064 80.4153C138.099 80.7891 138.127 81.164 138.149 81.5391C138.164 81.7821 138.365 81.9696 138.605 81.9696Z" fill="url(#paint28_linear_641_2903)"/>
</g>
<g opacity="0.64">
<path d="M127.064 58.4156C127.192 58.4156 127.319 58.3625 127.409 58.2584C127.575 58.0679 127.555 57.7791 127.364 57.6135C127.074 57.3608 126.778 57.1125 126.478 56.8685C126.282 56.7091 125.993 56.74 125.835 56.9352C125.676 57.1312 125.706 57.4191 125.902 57.5783C126.194 57.8157 126.482 58.0573 126.764 58.3032C126.851 58.3786 126.958 58.4156 127.064 58.4156Z" fill="url(#paint29_linear_641_2903)"/>
<path d="M71.0893 85.1099C71.0951 85.1099 71.1004 85.1099 71.1063 85.1097C71.3584 85.1006 71.5558 84.8886 71.5464 84.6365C71.5322 84.2316 71.5246 83.826 71.5246 83.4202C71.5246 83.0775 71.53 82.7346 71.5406 82.3916C71.5482 82.1393 71.35 81.9285 71.0977 81.9206C70.837 81.9164 70.6343 82.111 70.6263 82.3635C70.6156 82.7159 70.6103 83.0682 70.6103 83.4202C70.6103 83.8371 70.6179 84.2534 70.633 84.6691C70.6421 84.9159 70.8447 85.1099 71.0893 85.1099ZM71.2317 80.5643C71.4638 80.5643 71.6629 80.388 71.6861 80.1522C71.7593 79.4129 71.8593 78.6643 71.9833 77.9275C72.0253 77.6783 71.8574 77.4426 71.6084 77.4006C71.3571 77.3591 71.1235 77.527 71.0817 77.7756C70.9544 78.533 70.8518 79.302 70.7763 80.0619C70.7513 80.3132 70.9348 80.5368 71.1862 80.5618C71.2014 80.5636 71.2166 80.5643 71.2317 80.5643ZM71.9866 76.0792C72.1932 76.0792 72.3809 75.9381 72.4308 75.7283C72.6041 75.0041 72.8041 74.2758 73.0259 73.5638C73.1009 73.3228 72.9661 73.0665 72.725 72.9915C72.4848 72.9154 72.2282 73.0511 72.1526 73.292C71.9249 74.0237 71.7191 74.7718 71.5414 75.5158C71.483 75.7613 71.6343 76.008 71.8798 76.0667C71.9157 76.0751 71.9514 76.0792 71.9866 76.0792ZM73.3388 71.7366C73.5218 71.7366 73.695 71.6255 73.7651 71.4442C74.0324 70.7525 74.3289 70.0577 74.645 69.3787C74.7517 69.1499 74.6526 68.8778 74.4236 68.7713C74.1951 68.6634 73.9227 68.7641 73.8164 68.9925C73.4915 69.6898 73.1874 70.4039 72.9125 71.1142C72.8214 71.3497 72.9384 71.6145 73.1741 71.7055C73.2282 71.7265 73.2839 71.7366 73.3388 71.7366ZM75.258 67.6126C75.4195 67.6126 75.5759 67.5271 75.6589 67.3758C76.0209 66.7176 76.4061 66.0681 76.8048 65.4457C76.9405 65.233 76.8784 64.9504 76.666 64.8143C76.4531 64.6782 76.1709 64.7402 76.0343 64.9529C75.6253 65.5923 75.2293 66.2594 74.8579 66.9351C74.736 67.1565 74.8169 67.4344 75.0383 67.5561C75.108 67.5945 75.1834 67.6126 75.258 67.6126ZM77.7088 63.7822C77.849 63.7822 77.9869 63.7182 78.0767 63.5969C78.5213 62.9956 78.9904 62.4041 79.4708 61.8387C79.6347 61.6463 79.611 61.3579 79.4185 61.1943C79.2265 61.0314 78.9373 61.0541 78.7743 61.2467C78.2806 61.8278 77.7985 62.4356 77.3417 63.0532C77.1913 63.2563 77.2341 63.5424 77.4372 63.6927C77.5191 63.7529 77.6146 63.7822 77.7088 63.7822ZM80.6525 60.3175C80.7716 60.3175 80.8904 60.2713 80.9802 60.1793C81.4998 59.6456 82.0445 59.1231 82.5989 58.626C82.7869 58.4575 82.8025 58.1684 82.6336 57.9804C82.4649 57.7925 82.1761 57.7773 81.9882 57.9451C81.4186 58.4558 80.8593 58.9928 80.3248 59.5412C80.1489 59.7222 80.1524 60.0116 80.3338 60.1876C80.4226 60.2744 80.5373 60.3175 80.6525 60.3175ZM84.0385 57.2825C84.1367 57.2825 84.2358 57.2509 84.3197 57.1857C84.905 56.7278 85.5152 56.2837 86.1331 55.8648C86.3425 55.7232 86.3969 55.4388 86.2554 55.2299C86.1134 55.021 85.8291 54.9665 85.6205 55.108C84.9853 55.5384 84.358 55.9949 83.7563 56.4652C83.5577 56.6208 83.5224 56.9081 83.6778 57.107C83.768 57.2222 83.9024 57.2825 84.0385 57.2825ZM124.376 56.3067C124.52 56.3067 124.662 56.2393 124.75 56.113C124.896 55.9067 124.846 55.6214 124.64 55.4759C124.017 55.0367 123.368 54.6112 122.712 54.2113C122.498 54.08 122.216 54.1481 122.084 54.3637C121.953 54.5793 122.021 54.8605 122.237 54.992C122.875 55.3812 123.507 55.7956 124.113 56.2233C124.193 56.2797 124.285 56.3067 124.376 56.3067ZM87.8022 54.7313C87.8803 54.7313 87.9598 54.7112 88.0321 54.6691C88.6753 54.2937 89.3397 53.9349 90.0075 53.6033C90.2335 53.4911 90.3258 53.2165 90.2133 52.9904C90.1008 52.7644 89.8276 52.6719 89.6004 52.7845C88.9147 53.1254 88.232 53.4938 87.5714 53.8794C87.3531 54.0068 87.2798 54.2867 87.4071 54.5046C87.492 54.6502 87.6451 54.7313 87.8022 54.7313ZM120.493 53.9413C120.658 53.9413 120.817 53.8518 120.898 53.6952C121.015 53.4713 120.928 53.1952 120.704 53.0787C120.36 52.8999 120.013 52.726 119.661 52.5573C119.317 52.3923 118.972 52.2338 118.625 52.0816C118.394 51.9796 118.124 52.0854 118.023 52.3162C117.921 52.5475 118.026 52.8171 118.257 52.9186C118.595 53.0668 118.931 53.2213 119.266 53.3816C119.608 53.5461 119.947 53.7155 120.282 53.8898C120.349 53.9248 120.421 53.9413 120.493 53.9413ZM91.874 52.7076C91.933 52.7076 91.9924 52.6962 92.0496 52.6723C92.737 52.3862 93.4437 52.1194 94.1495 51.8797C94.3887 51.7985 94.5164 51.5389 94.4356 51.2999C94.3547 51.0614 94.094 50.9334 93.8556 51.0142C93.1301 51.2604 92.4043 51.5343 91.6985 51.8283C91.465 51.9254 91.3548 52.193 91.4521 52.426C91.5249 52.6017 91.695 52.7076 91.874 52.7076ZM116.328 52.1116C116.515 52.1116 116.691 51.9958 116.758 51.8099C116.844 51.5724 116.721 51.3104 116.484 51.2244C115.764 50.9637 115.026 50.7242 114.29 50.5128C114.047 50.4416 113.794 50.5833 113.725 50.8258C113.655 51.0684 113.795 51.3215 114.038 51.3913C114.753 51.5974 115.472 51.8304 116.173 52.0842C116.224 52.1028 116.277 52.1116 116.328 52.1116ZM96.1798 51.245C96.219 51.245 96.2583 51.2401 96.2981 51.2297C97.0177 51.038 97.7534 50.868 98.4847 50.7248C98.7325 50.6762 98.894 50.436 98.8454 50.1882C98.7967 49.9404 98.5619 49.7786 98.3088 49.8275C97.5579 49.9748 96.8021 50.1492 96.0624 50.3462C95.8187 50.4112 95.6736 50.6617 95.7388 50.9055C95.7931 51.1101 95.9779 51.245 96.1798 51.245ZM111.957 50.855C112.168 50.855 112.357 50.7085 112.403 50.494C112.456 50.2475 112.299 50.0041 112.053 49.951C111.304 49.7899 110.54 49.6522 109.783 49.5418C109.536 49.506 109.302 49.6786 109.265 49.9285C109.228 50.1783 109.402 50.4103 109.652 50.4468C110.389 50.5539 111.131 50.6878 111.86 50.8447C111.893 50.8517 111.925 50.855 111.957 50.855ZM100.642 50.3714C100.661 50.3714 100.681 50.3703 100.7 50.3678C101.441 50.2738 102.192 50.204 102.934 50.1602C103.187 50.1456 103.379 49.9291 103.364 49.6773C103.349 49.4253 103.133 49.2305 102.881 49.2478C102.118 49.2927 101.346 49.3644 100.585 49.4607C100.334 49.4927 100.157 49.7214 100.189 49.9718C100.218 50.2026 100.415 50.3714 100.642 50.3714ZM107.456 50.2009C107.693 50.2009 107.893 50.0185 107.912 49.7785C107.931 49.5268 107.742 49.3071 107.491 49.2879C106.728 49.2295 105.953 49.1964 105.187 49.1897H105.183C104.932 49.1897 104.728 49.3917 104.725 49.6428C104.723 49.8952 104.926 50.1017 105.178 50.1039C105.924 50.1104 106.678 50.1427 107.421 50.1994C107.433 50.2003 107.445 50.2009 107.456 50.2009Z" fill="url(#paint30_linear_641_2903)"/>
<path d="M71.3881 88.5255C71.4091 88.5255 71.43 88.5242 71.4515 88.5213C71.7015 88.4865 71.8761 88.2557 71.8413 88.0057C71.7899 87.6339 71.7439 87.2611 71.7046 86.887C71.6788 86.6363 71.4622 86.4551 71.2024 86.4801C70.9514 86.5064 70.7694 86.7314 70.7958 86.9825C70.836 87.3664 70.8828 87.7494 70.936 88.1311C70.9676 88.3598 71.1636 88.5255 71.3881 88.5255Z" fill="url(#paint31_linear_641_2903)"/>
</g>
<path d="M75.8163 91.2855C75.7438 91.0985 75.7977 90.886 75.9507 90.7564L80.3173 87.059C79.9431 84.4133 79.9881 81.6887 80.4933 78.9856L76.2975 75.1009C76.1502 74.9646 76.1058 74.75 76.1866 74.5664L78.9529 68.2854C79.0339 68.1018 79.2222 67.9897 79.422 68.0063L85.1205 68.4792C86.7737 66.2817 88.7531 64.4092 90.9576 62.899L90.7374 57.1815C90.7298 56.9811 90.85 56.7978 91.037 56.7253L97.4343 54.24C97.6214 54.1673 97.8339 54.2213 97.9634 54.3743L101.661 58.7409C104.307 58.3668 107.031 58.4119 109.734 58.917L113.619 54.721C113.755 54.5739 113.97 54.5293 114.153 54.6102L120.434 57.3764C120.618 57.4573 120.73 57.6457 120.713 57.8455L120.24 63.5441C122.438 65.1971 124.31 67.1765 125.821 69.381L131.538 69.1608C131.738 69.1531 131.922 69.2734 131.994 69.4602L134.48 75.8576C134.553 76.0445 134.498 76.257 134.345 76.3866L129.979 80.084C130.353 82.7298 130.308 85.4543 129.803 88.1574L133.999 92.0422C134.146 92.1784 134.19 92.3929 134.109 92.5765L131.343 98.8577C131.262 99.0412 131.074 99.1533 130.874 99.1366L125.176 98.6637C123.523 100.861 121.543 102.734 119.338 104.244L119.559 109.961C119.567 110.162 119.446 110.345 119.259 110.418L112.862 112.903C112.675 112.976 112.463 112.922 112.333 112.769L108.635 108.402C105.99 108.776 103.265 108.731 100.562 108.226L96.6772 112.422C96.5411 112.569 96.3264 112.614 96.1428 112.533L89.8618 109.767C89.6783 109.686 89.5662 109.498 89.5828 109.298L90.0556 103.599C87.8581 101.946 85.9857 99.9664 84.4755 97.762L78.7579 97.9821C78.5575 97.9899 78.3744 97.8696 78.3016 97.6826L75.8163 91.2855Z" fill="url(#paint32_linear_641_2903)"/>
<path d="M105.133 90.1238C105.405 90.1238 105.679 90.1071 105.952 90.0731C107.689 89.8579 109.238 88.9794 110.314 87.5991C111.39 86.2189 111.864 84.5026 111.648 82.766C111.433 81.0293 110.555 79.4806 109.175 78.4046C107.794 77.3288 106.08 76.8544 104.341 77.0699C102.605 77.285 101.055 78.1636 99.9796 79.5439C97.7592 82.3929 98.2699 86.5174 101.119 88.7382C102.281 89.6445 103.683 90.1238 105.133 90.1238ZM105.158 77.9335C106.407 77.9335 107.612 78.3459 108.612 79.1256C109.8 80.0512 110.556 81.384 110.741 82.8784C110.926 84.3726 110.518 85.8496 109.592 87.0371C108.667 88.2247 107.334 88.9807 105.84 89.1658C104.344 89.3515 102.868 88.9428 101.681 88.0174C100.494 87.0918 99.7378 85.759 99.5525 84.2646C99.3677 82.7704 99.7753 81.2934 100.701 80.1059C101.627 78.9183 102.96 78.1623 104.454 77.9772C104.689 77.948 104.925 77.9335 105.158 77.9335Z" fill="#91B3FA"/>
<path d="M105.265 100.548C111.809 100.548 118.061 96.753 120.863 90.3892C121.843 88.1647 122.307 85.8411 122.307 83.5534C122.306 77.0092 118.511 70.7583 112.148 67.9562C107.988 66.1239 103.363 66.0216 99.1265 67.6676C94.8891 69.3138 91.5468 72.5112 89.7147 76.6713C89.262 77.6995 88.9107 78.7704 88.6688 79.8588C88.6496 79.9466 88.6303 80.0347 88.6125 80.1226C88.6063 80.1535 88.6032 80.1844 88.6032 80.2148C88.6028 80.4273 88.7518 80.6179 88.9683 80.6623C89.2148 80.7138 89.4577 80.5536 89.5081 80.3065C89.7371 79.1907 90.0885 78.0916 90.5513 77.0396C92.1878 73.3243 95.0971 70.4201 98.7903 68.7959C99.01 68.6993 99.2322 68.6073 99.4572 68.5198C103.466 66.9623 107.842 67.0591 111.779 68.7927C117.801 71.4445 121.392 77.3597 121.392 83.5522C121.392 85.717 120.954 87.916 120.027 90.021C116.447 98.1476 106.923 101.846 98.7983 98.2682C96.1265 97.0914 93.828 95.2169 92.1507 92.8469C92.0048 92.6411 91.719 92.5918 91.5137 92.7378C91.3874 92.8271 91.3204 92.9684 91.3204 93.1117C91.3204 93.203 91.3475 93.295 91.4043 93.3751C93.1771 95.8801 95.6064 97.8616 98.4296 99.1049C100.654 100.084 102.977 100.548 105.265 100.548Z" fill="#91B3FA"/>
<defs>
<linearGradient id="paint0_linear_641_2903" x1="179.242" y1="271.597" x2="179.242" y2="436.164" gradientUnits="userSpaceOnUse">
<stop stop-color="#09005D"/>
<stop offset="1" stop-color="#1A0F91"/>
</linearGradient>
<linearGradient id="paint1_linear_641_2903" x1="190.647" y1="7.35567" x2="187.904" y2="289.862" gradientUnits="userSpaceOnUse">
<stop stop-color="#09005D"/>
<stop offset="1" stop-color="#1A0F91"/>
</linearGradient>
<linearGradient id="paint2_linear_641_2903" x1="169.337" y1="224.859" x2="181.223" y2="367.483" gradientUnits="userSpaceOnUse">
<stop stop-color="#09005D"/>
<stop offset="1" stop-color="#1A0F91"/>
</linearGradient>
<linearGradient id="paint3_linear_641_2903" x1="201.517" y1="237.559" x2="81.7485" y2="153.447" gradientUnits="userSpaceOnUse">
<stop stop-color="#FA7790"/>
<stop offset="1" stop-color="#D74763"/>
</linearGradient>
<linearGradient id="paint4_linear_641_2903" x1="54.8943" y1="280.414" x2="23.097" y2="198.786" gradientUnits="userSpaceOnUse">
<stop stop-color="#09005D"/>
<stop offset="1" stop-color="#1A0F91"/>
</linearGradient>
<linearGradient id="paint5_linear_641_2903" x1="84.6866" y1="199.131" x2="55.9868" y2="263.933" gradientUnits="userSpaceOnUse">
<stop stop-color="#FEBBBA"/>
<stop offset="1" stop-color="#FF928E"/>
</linearGradient>
<linearGradient id="paint6_linear_641_2903" x1="84.1776" y1="198.905" x2="55.4777" y2="263.707" gradientUnits="userSpaceOnUse">
<stop stop-color="#FEBBBA"/>
<stop offset="1" stop-color="#FF928E"/>
</linearGradient>
<linearGradient id="paint7_linear_641_2903" x1="12.6009" y1="329.972" x2="10.6272" y2="378.657" gradientUnits="userSpaceOnUse">
<stop stop-color="#4F52FF"/>
<stop offset="1" stop-color="#4042E2"/>
</linearGradient>
<linearGradient id="paint8_linear_641_2903" x1="52.2012" y1="406.328" x2="39.6263" y2="259.359" gradientUnits="userSpaceOnUse">
<stop stop-color="#FEBBBA"/>
<stop offset="1" stop-color="#FF928E"/>
</linearGradient>
<linearGradient id="paint9_linear_641_2903" x1="46.295" y1="326.103" x2="49.2556" y2="379.723" gradientUnits="userSpaceOnUse">
<stop stop-color="#4F52FF"/>
<stop offset="1" stop-color="#4042E2"/>
</linearGradient>
<linearGradient id="paint10_linear_641_2903" x1="26.9048" y1="408.514" x2="14.3266" y2="261.506" gradientUnits="userSpaceOnUse">
<stop stop-color="#FEBBBA"/>
<stop offset="1" stop-color="#FF928E"/>
</linearGradient>
<linearGradient id="paint11_linear_641_2903" x1="31.6004" y1="232.333" x2="69.572" y2="285.396" gradientUnits="userSpaceOnUse">
<stop stop-color="#FF928E"/>
<stop offset="1" stop-color="#FE7062"/>
</linearGradient>
<linearGradient id="paint12_linear_641_2903" x1="10.6058" y1="258.4" x2="78.2521" y2="349.62" gradientUnits="userSpaceOnUse">
<stop stop-color="#4F52FF"/>
<stop offset="1" stop-color="#4042E2"/>
</linearGradient>
<linearGradient id="paint13_linear_641_2903" x1="53.5774" y1="261.461" x2="51.2152" y2="244.18" gradientUnits="userSpaceOnUse">
<stop stop-color="#FEBBBA"/>
<stop offset="1" stop-color="#FF928E"/>
</linearGradient>
<linearGradient id="paint14_linear_641_2903" x1="66.0644" y1="221.054" x2="68.2853" y2="275.72" gradientUnits="userSpaceOnUse">
<stop stop-color="#FEBBBA"/>
<stop offset="1" stop-color="#FF928E"/>
</linearGradient>
<linearGradient id="paint15_linear_641_2903" x1="90.8822" y1="220.583" x2="92.9511" y2="271.51" gradientUnits="userSpaceOnUse">
<stop stop-color="#FEBBBA"/>
<stop offset="1" stop-color="#FF928E"/>
</linearGradient>
<linearGradient id="paint16_linear_641_2903" x1="56.5328" y1="222.883" x2="46.0136" y2="244.571" gradientUnits="userSpaceOnUse">
<stop stop-color="#FEBBBA"/>
<stop offset="1" stop-color="#FF928E"/>
</linearGradient>
<linearGradient id="paint17_linear_641_2903" x1="71.6808" y1="274.808" x2="39.6003" y2="192.452" gradientUnits="userSpaceOnUse">
<stop stop-color="#09005D"/>
<stop offset="1" stop-color="#1A0F91"/>
</linearGradient>
<linearGradient id="paint18_linear_641_2903" x1="51.8192" y1="220.597" x2="41.3001" y2="242.285" gradientUnits="userSpaceOnUse">
<stop stop-color="#FEBBBA"/>
<stop offset="1" stop-color="#FF928E"/>
</linearGradient>
<linearGradient id="paint19_linear_641_2903" x1="20.6192" y1="160.265" x2="18.8993" y2="160.265" gradientUnits="userSpaceOnUse">
<stop stop-color="#4F52FF"/>
<stop offset="1" stop-color="#4042E2"/>
</linearGradient>
<linearGradient id="paint20_linear_641_2903" x1="92.4572" y1="151.365" x2="21.3636" y2="151.365" gradientUnits="userSpaceOnUse">
<stop stop-color="#4F52FF"/>
<stop offset="1" stop-color="#4042E2"/>
</linearGradient>
<linearGradient id="paint21_linear_641_2903" x1="92.3673" y1="127.169" x2="91.3636" y2="127.169" gradientUnits="userSpaceOnUse">
<stop stop-color="#4F52FF"/>
<stop offset="1" stop-color="#4042E2"/>
</linearGradient>
<linearGradient id="paint22_linear_641_2903" x1="77.9532" y1="98.1912" x2="76.167" y2="98.1912" gradientUnits="userSpaceOnUse">
<stop stop-color="#4F52FF"/>
<stop offset="1" stop-color="#4042E2"/>
</linearGradient>
<linearGradient id="paint23_linear_641_2903" x1="75.2422" y1="110.46" x2="6.98871" y2="110.46" gradientUnits="userSpaceOnUse">
<stop stop-color="#4F52FF"/>
<stop offset="1" stop-color="#4042E2"/>
</linearGradient>
<linearGradient id="paint24_linear_641_2903" x1="8.30666" y1="135.659" x2="7.24983" y2="135.659" gradientUnits="userSpaceOnUse">
<stop stop-color="#4F52FF"/>
<stop offset="1" stop-color="#4042E2"/>
</linearGradient>
<linearGradient id="paint25_linear_641_2903" x1="86.8067" y1="130.601" x2="13.3419" y2="130.601" gradientUnits="userSpaceOnUse">
<stop stop-color="#4F52FF"/>
<stop offset="1" stop-color="#4042E2"/>
</linearGradient>
<linearGradient id="paint26_linear_641_2903" x1="81.8594" y1="107.364" x2="80.1366" y2="107.364" gradientUnits="userSpaceOnUse">
<stop stop-color="#4F52FF"/>
<stop offset="1" stop-color="#4042E2"/>
</linearGradient>
<linearGradient id="paint27_linear_641_2903" x1="139.117" y1="100.54" x2="82.6599" y2="100.54" gradientUnits="userSpaceOnUse">
<stop stop-color="#4F52FF"/>
<stop offset="1" stop-color="#4042E2"/>
</linearGradient>
<linearGradient id="paint28_linear_641_2903" x1="139.063" y1="80.9432" x2="138.063" y2="80.9432" gradientUnits="userSpaceOnUse">
<stop stop-color="#4F52FF"/>
<stop offset="1" stop-color="#4042E2"/>
</linearGradient>
<linearGradient id="paint29_linear_641_2903" x1="127.522" y1="57.5909" x2="125.733" y2="57.5909" gradientUnits="userSpaceOnUse">
<stop stop-color="#4F52FF"/>
<stop offset="1" stop-color="#4042E2"/>
</linearGradient>
<linearGradient id="paint30_linear_641_2903" x1="124.834" y1="67.1498" x2="70.6103" y2="67.1498" gradientUnits="userSpaceOnUse">
<stop stop-color="#4F52FF"/>
<stop offset="1" stop-color="#4042E2"/>
</linearGradient>
<linearGradient id="paint31_linear_641_2903" x1="71.8457" y1="87.5015" x2="70.7932" y2="87.5015" gradientUnits="userSpaceOnUse">
<stop stop-color="#4F52FF"/>
<stop offset="1" stop-color="#4042E2"/>
</linearGradient>
<linearGradient id="paint32_linear_641_2903" x1="134.512" y1="83.5716" x2="75.7844" y2="83.5716" gradientUnits="userSpaceOnUse">
<stop stop-color="#4F52FF"/>
<stop offset="1" stop-color="#4042E2"/>
</linearGradient>
</defs>
</svg>
