<svg id="Capa_1" data-name="Capa 1" xmlns="http://www.w3.org/2000/svg" viewBox="0 0 1055.81 567.18"><defs><style>.cls-1{fill:#feefcb;}.cls-2{fill:#eea032;}.cls-3{fill:#5ccfbc;}.cls-4{fill:#f5f5d8;}.cls-5{fill:#032d37;}.cls-6{fill:#ed7430;}.cls-7{fill:#f7f4dc;}.cls-8{fill:#e38017;}.cls-9{fill:#fa8d57;}.cls-10{fill:#ef7736;}.cls-11{fill:#df752c;}.cls-12{fill:#e2f2ef;}.cls-13{fill:#0b938c;}.cls-14{fill:#5dcbaf;}.cls-15{font-size:31.15px;fill:#2a2c2d;font-family:Montserrat-Regular, Montserrat;letter-spacing:0.2em;}.cls-16{letter-spacing:0.16em;}</style></defs><rect class="cls-1" x="296.28" y="349.47" width="389.56" height="149.61"/><path class="cls-1" d="M591.26,381H409.15L390.5,229.76C380,224.92,371.8,215.1,371.8,201V183.66c-.17-3.72.16-13.06,6.8-21a27.74,27.74,0,0,1,3.06-3.11c0-.29,0-.58,0-.87a42.94,42.94,0,0,1,34.31-42c1.79-8.51,6.66-17.58,17.14-24.55,10.31-6.84,20-10.32,29-10.38V61.33c-.07-3.48.36-16,9.48-25.48,4.25-4.43,11.87-9.71,24.09-9.71,11.91,0,19.44,5.23,23.66,9.62,9.59,10,10,23.48,9.91,27.07V80.68A62.59,62.59,0,0,1,536,79.3c17.49-2.6,31.66,8.45,38.9,29.44a40.71,40.71,0,0,1,33.68,40.05,42.2,42.2,0,0,1-.29,4.92,28.36,28.36,0,0,1,13,8.18c7.26,8.1,7.6,17.92,7.41,21.8V201c0,14.1-8.21,23.92-18.7,28.76ZM439.39,346.83H561L579.25,199h15.16V186.41h-80.1l31.22-17.61-8.21-3.71-.67-.28-23.72-8.95,30.47-33a32.57,32.57,0,0,0-4-9.42c-5.63,1.16-7.88,3.54-8.6,4.55l-.54,2.66-1.15.5-32.87,50.83v3.45l9.78,11h-9.78v25.34l-9-25.34H447l5.08-26.09-24.33-9.67a8.64,8.64,0,0,0-11.1,11.63l10.29,22.42L406,186.2,406,199h15.12ZM561.44,148.65c0,.12,0,.24,0,.36l.31,10.64,9.27-5.23a6.4,6.4,0,0,0,3.31-5.63,6.38,6.38,0,0,0-8.18-6.2l-4.34,1.19Zm-103.8-17,16.94,19.23-11.51-32.28a12.33,12.33,0,0,0-1.26-2.64c-1.2.18-4.33,1-9.79,4.62-3.55,2.36-2.92,4.72-2.76,5.17l.59,2c.13.57.31,1.08.48,1.6l4.85,15Z"/><path class="cls-2" d="M547.35,155c-.05.62-.09,1.23-.09,1.86,0,.24,0,.47,0,.71-.55-.25-1.1-.47-1.67-.69Zm23.46-21.7a23.48,23.48,0,0,0-6.26.87c-1.19-7.13-6.59-32.35-23.15-29.89-19.26,2.86-23.69,15.62-23.69,15.62l-9.37,14.49V166.7l3.85,1a28.19,28.19,0,1,0,51.29,11.53,23.56,23.56,0,1,0,7.33-45.94Z"/><path class="cls-3" d="M481.3,61.35V170.22h32.94V62.86S515,43.5,497.77,43.5,481.3,61.35,481.3,61.35Z"/><path class="cls-4" d="M488.14,160.51a4.28,4.28,0,0,1-4.28-4.27V57a4.28,4.28,0,1,1,8.55,0v99.26A4.27,4.27,0,0,1,488.14,160.51Z"/><path class="cls-5" d="M518.51,173H477V59.93c0-1.19,0-10.21,5.92-16.43,3.66-3.82,8.65-5.76,14.83-5.76,5.94,0,10.79,1.92,14.42,5.69,6.67,6.94,6.33,17.66,6.32,18.12Zm-32.94-8.55H510V61.38c0-.23.19-7.77-4-12.05-2-2-4.67-3-8.23-3-3.82,0-6.65,1-8.66,3.12-3.71,3.86-3.55,10.22-3.54,10.28V164.47Z"/><path class="cls-2" d="M488.88,137.55a23.58,23.58,0,0,0-4.06.37,25.83,25.83,0,0,0-.8-9s-3.65-37.74-38.53-14.58a21.86,21.86,0,0,0-9.37,25.25c.27,1.14.6,2.15.93,3.17a25.77,25.77,0,1,0,10.55,39.93l22.28-1.19.84-4.46a23.94,23.94,0,1,0,18.16-39.53Z"/><path class="cls-6" d="M408.35,172.92a35.6,35.6,0,0,1,4.49-14.62,34.94,34.94,0,0,1,10.43-12,18.85,18.85,0,0,1,9-3.41,12.77,12.77,0,0,1,10.15,3.71,16,16,0,0,1,4.07,7.82,21.13,21.13,0,0,1,.22,7.92c-1-.93-1.83-1.88-2.66-2.78s-1.65-1.78-2.51-2.53a15.19,15.19,0,0,0-4.64-3.37,4.29,4.29,0,0,0-3.21-.05,15.44,15.44,0,0,0-4,2.11,119.66,119.66,0,0,0-9.83,8.09A110.61,110.61,0,0,1,408.35,172.92Z"/><path class="cls-6" d="M500.21,183a22.35,22.35,0,0,1-10.07,1,27.05,27.05,0,0,1-9.84-3.1,21.91,21.91,0,0,1-7.78-7,17.82,17.82,0,0,1-3.12-9.76c2.36,2.55,4.15,5,6.51,6.83a39.37,39.37,0,0,0,7.15,5C488.19,178.75,493.86,180.67,500.21,183Z"/><path class="cls-6" d="M469.53,115.31a43,43,0,0,1-7.68,6.66,67.32,67.32,0,0,1-8.59,5,64.06,64.06,0,0,1-9.24,3.75,41,41,0,0,1-10,2,55,55,0,0,1,8.09-6,95.46,95.46,0,0,1,8.6-4.8,94.5,94.5,0,0,1,9.05-3.9A54.35,54.35,0,0,1,469.53,115.31Z"/><path class="cls-6" d="M545.62,160.32c-6.74,4.29-12.77,8.41-18.1,13.43a78.2,78.2,0,0,0-7.59,7.94c-2.47,2.8-4.55,5.92-7.11,9.09a28.94,28.94,0,0,1,3.4-11.55,34.21,34.21,0,0,1,7.44-9.68,36,36,0,0,1,10.2-6.65A27.64,27.64,0,0,1,545.62,160.32Z"/><path class="cls-6" d="M529.19,108.08a14.13,14.13,0,0,1-1.08,5.43,19.09,19.09,0,0,1-2.56,4.46,18.36,18.36,0,0,1-3.68,3.63,12.78,12.78,0,0,1-5.07,2.31,18.4,18.4,0,0,1,1.63-5.19A23.26,23.26,0,0,1,521,114.5a23,23,0,0,1,3.45-3.61A17,17,0,0,1,529.19,108.08Z"/><path class="cls-7" d="M404.87,176.86a27.71,27.71,0,0,1-.14-13.3,29.89,29.89,0,0,1,5.84-12.45,22.66,22.66,0,0,1,12.12-7.76c1.2-.22,2.4-.39,3.57-.53,1.2.05,2.38.16,3.53.3a11.69,11.69,0,0,1,3.33.87,24.46,24.46,0,0,1,3.08,1.38c-4.37,1.45-8.14,2.24-11.18,4.29a31,31,0,0,0-7.83,6.85A68.73,68.73,0,0,0,411,165.9Z"/><rect class="cls-8" x="468.92" y="112.15" width="11.4" height="29.28" transform="translate(-4.31 236.17) rotate(-27.82)"/><path class="cls-8" d="M549.16,106.61a19.47,19.47,0,0,1,7.36,4.39,22.48,22.48,0,0,1,6.85,12.94,19.42,19.42,0,0,1-.55,8.56,19.4,19.4,0,0,1-7.38-4.38,22,22,0,0,1-4.49-5.91,22.71,22.71,0,0,1-2.33-7A19.7,19.7,0,0,1,549.16,106.61Z"/><path class="cls-8" d="M497.77,141.63a19.47,19.47,0,0,1,7.36,4.39A22.4,22.4,0,0,1,512,159a19.43,19.43,0,0,1-.55,8.56,19.4,19.4,0,0,1-7.38-4.38,22.19,22.19,0,0,1-4.49-5.91,22.68,22.68,0,0,1-2.33-7A19.65,19.65,0,0,1,497.77,141.63Z"/><rect class="cls-8" x="501.18" y="134.73" width="43.08" height="8.55" transform="translate(377.27 659.97) rotate(-89.29)"/><path class="cls-8" d="M535.82,159a23.85,23.85,0,0,1,9.56,1.45,30.69,30.69,0,0,1,7.64,4.06,30,30,0,0,1,6.19,6,23.54,23.54,0,0,1,4.27,8.67,23.68,23.68,0,0,1-9.56-1.44,30,30,0,0,1-7.63-4.07,30.54,30.54,0,0,1-6.19-6.05A24.14,24.14,0,0,1,535.82,159Z"/><path class="cls-8" d="M410.27,185.88a27,27,0,0,1,9.32-4.47,36.46,36.46,0,0,1,9.33-1.23,35.17,35.17,0,0,1,9.33,1.22,26.64,26.64,0,0,1,9.32,4.48,26.82,26.82,0,0,1-9.32,4.48,36,36,0,0,1-18.66,0A26.93,26.93,0,0,1,410.27,185.88Z"/><path class="cls-8" d="M586.84,178a19.57,19.57,0,0,1-8.56.45,22.56,22.56,0,0,1-7-2.39,22.05,22.05,0,0,1-5.86-4.55,19.38,19.38,0,0,1-4.32-7.42,19.38,19.38,0,0,1,8.58-.46,22.21,22.21,0,0,1,7,2.4,22.73,22.73,0,0,1,5.86,4.56A19.62,19.62,0,0,1,586.84,178Z"/><path class="cls-7" d="M468.67,173.54a27.58,27.58,0,0,1-.14-13.3,30,30,0,0,1,5.83-12.45A22.64,22.64,0,0,1,486.48,140c1.21-.22,2.4-.39,3.58-.53,1.19.05,2.38.16,3.52.3a11.61,11.61,0,0,1,3.33.87,24,24,0,0,1,3.09,1.38c-4.37,1.45-8.14,2.24-11.18,4.29a31,31,0,0,0-7.83,6.85,69.71,69.71,0,0,0-6.19,9.39Z"/><path class="cls-7" d="M511.27,190.78a27.83,27.83,0,0,1-.14-13.3A30,30,0,0,1,517,165a22.54,22.54,0,0,1,12.12-7.76c1.2-.22,2.4-.4,3.57-.53,1.2,0,2.38.16,3.53.29a11.69,11.69,0,0,1,3.33.87,26.9,26.9,0,0,1,3.08,1.38c-4.37,1.46-8.13,2.25-11.17,4.29a30.71,30.71,0,0,0-7.83,6.85,68,68,0,0,0-6.19,9.4Z"/><path class="cls-7" d="M436.2,134.94a23.58,23.58,0,0,1,4.08-12.11,28.84,28.84,0,0,1,9.5-9,29.79,29.79,0,0,1,6.12-2.69,26.47,26.47,0,0,1,6.58-1,22.66,22.66,0,0,1,12.44,3.16c-4.19,1.37-7.87,2.09-11.28,3.47a50.16,50.16,0,0,0-9.55,4.43,73.39,73.39,0,0,0-8.81,6.07C442.37,129.6,439.48,132.12,436.2,134.94Z"/><path class="cls-7" d="M525.83,112.43a13.47,13.47,0,0,1,6-5.65,21.7,21.7,0,0,1,7.43-2.21,23.18,23.18,0,0,1,7.61.37,18.3,18.3,0,0,1,7.34,3.4,25.38,25.38,0,0,1-7.14,3.32,37.86,37.86,0,0,1-6.83,1.4,47.11,47.11,0,0,1-6.84.24A63.79,63.79,0,0,1,525.83,112.43Z"/><path class="cls-7" d="M561.26,173.08a13.4,13.4,0,0,1-5.9-5.8,21.5,21.5,0,0,1-2.51-7.33,22.93,22.93,0,0,1,0-7.62,18.13,18.13,0,0,1,3.09-7.47,25.06,25.06,0,0,1,3.62,7,38.6,38.6,0,0,1,1.68,6.76,48.16,48.16,0,0,1,.52,6.83A65.26,65.26,0,0,1,561.26,173.08Z"/><polygon class="cls-9" points="594.37 213.46 576.14 361.3 503.81 361.3 496.6 361.3 424.27 361.3 406.04 213.46 594.37 213.46"/><path class="cls-5" d="M579.92,365.57H420.49L401.21,209.18h198ZM428.05,357H572.36l17.18-139.29H410.88Z"/><path class="cls-10" d="M571.53,222.54S558.46,349.6,539.68,363.35c23.13.67,37.55,0,37.55,0l13.08-143.57Z"/><rect class="cls-11" x="416.31" y="219" width="172.7" height="14.25" transform="translate(-7.19 16.71) rotate(-1.89)"/><path class="cls-4" d="M433.81,366.7a5.69,5.69,0,0,1-5.65-5L410.7,220.48a5.7,5.7,0,0,1,11.31-1.4l17.46,141.23a5.69,5.69,0,0,1-5,6.35A5.48,5.48,0,0,1,433.81,366.7Z"/><path class="cls-7" d="M523.92,121.55a16.52,16.52,0,0,1,3.37-6.31,20.42,20.42,0,0,1,4.89-4.22,19.33,19.33,0,0,1,6.07-2.49,15.56,15.56,0,0,1,3.54-.37,7.76,7.76,0,0,1,3.83.91,47.56,47.56,0,0,1-4.17,5.37,24.39,24.39,0,0,1-4.78,3.85,23.36,23.36,0,0,1-5.7,2.55A18.5,18.5,0,0,1,523.92,121.55Z"/><path class="cls-7" d="M552.34,148.83a16.58,16.58,0,0,1,6.31,3.37,20.42,20.42,0,0,1,4.22,4.89,19.33,19.33,0,0,1,2.49,6.07,15.59,15.59,0,0,1,.37,3.55,7.85,7.85,0,0,1-.9,3.82,46.85,46.85,0,0,1-5.38-4.17,24.39,24.39,0,0,1-3.85-4.78,23.34,23.34,0,0,1-2.54-5.7A18.49,18.49,0,0,1,552.34,148.83Z"/><path class="cls-5" d="M561.59,136.73c-.64-5.19-3.81-19.85-10.78-25.15a8.76,8.76,0,0,0-7-1.81c-15.57,2.31-19.33,11.9-19.49,12.31l-.23.61-.42.57L518.41,130l-6.74-5.26,4.92-6.3c1.38-3.11,7.59-14.41,26-17.15A17.23,17.23,0,0,1,556,104.79c11.26,8.59,14,30,14.07,30.92Z"/><path class="cls-5" d="M537.67,213.16a31.43,31.43,0,1,1,31.43-31.43A31.47,31.47,0,0,1,537.67,213.16Zm0-54.31a22.88,22.88,0,1,0,22.88,22.88A22.9,22.9,0,0,0,537.67,158.85Z"/><path class="cls-5" d="M571.61,183.36a27.16,27.16,0,0,1-8.06-1.22L566.1,174a18.49,18.49,0,1,0-13-17.65h-8.54a27,27,0,1,1,27,27Z"/><path class="cls-5" d="M437.17,144a4.26,4.26,0,0,1-4-2.8c-2.25-6.22-2.92-20.36,10.71-29.41,11.85-7.88,21.91-9.94,29.9-6.14,11.27,5.37,13.57,20.4,13.89,23a29.44,29.44,0,0,1,.87,9.38,4.27,4.27,0,1,1-8.52-.63,21.34,21.34,0,0,0-.7-6.9l-.12-.67c-.36-3.55-2.7-13.44-9.12-16.48s-15.18,1.37-21.47,5.55c-11.16,7.41-7.81,18.19-7.39,19.4a4.28,4.28,0,0,1-2.61,5.44A4.23,4.23,0,0,1,437.17,144Z"/><path class="cls-5" d="M462.78,165.23a32.9,32.9,0,0,1-9.72-1.47l2.55-8.16a23.72,23.72,0,0,0,8.72,1l1,8.48A22.79,22.79,0,0,1,462.78,165.23Z"/><path class="cls-5" d="M488.14,188.27a27.41,27.41,0,1,1,27.4-27.41A27.45,27.45,0,0,1,488.14,188.27Zm0-46.27A18.86,18.86,0,1,0,507,160.86,18.88,18.88,0,0,0,488.14,142Z"/><path class="cls-5" d="M428.8,195.05A29.21,29.21,0,1,1,458,165.89,29.2,29.2,0,0,1,428.8,195.05Zm0-49.78a20.61,20.61,0,1,0,7.63,1.46A20.42,20.42,0,0,0,428.8,145.27Z"/><path class="cls-5" d="M440.25,163.58a20.35,20.35,0,0,0-3.11-2.89,17.12,17.12,0,0,0-3.1-1.84c-.47-.32-1-.35-1.42-.63-.46-.06-.9-.38-1.35-.41a3.24,3.24,0,0,0-1.42-.18,3.32,3.32,0,0,0-1.54.33c-2.08.85-4.05,2.89-5.73,5.12-.81,1.16-1.59,2.38-2.35,3.62s-1.34,2.61-2.06,3.92l-.54-.18c.3-1.46.62-2.93,1-4.41s.93-2.9,1.48-4.35c1.3-2.81,3-5.73,6.08-7.75a9.6,9.6,0,0,1,2.58-1.23,8.57,8.57,0,0,1,3-.52,9.37,9.37,0,0,1,3,.47,11.06,11.06,0,0,1,2.49,1.43,10.84,10.84,0,0,1,3.23,4.27,7.6,7.6,0,0,1,.41,5.16Z"/><path class="cls-5" d="M487,165.75a5.06,5.06,0,0,0,2-4.13c-.09-1.39-.16-2.9-1.29-3.13s-3,.62-4.42,1.61a35.52,35.52,0,0,0-4.21,3.7l-.22-.18a35.43,35.43,0,0,1,3.51-4.6c1.47-1.25,3-2.87,5.69-2.78a3.86,3.86,0,0,1,1.91.67,4.69,4.69,0,0,1,1.31,1.51,5.39,5.39,0,0,1,.55,3.55,5.73,5.73,0,0,1-1.69,3,3.8,3.8,0,0,1-3.1,1Z"/><path class="cls-5" d="M545,120.89a5,5,0,0,0,2-4.13c-.09-1.38-.16-2.9-1.29-3.12s-3,.61-4.41,1.6a35.72,35.72,0,0,0-4.22,3.7l-.22-.17a36.21,36.21,0,0,1,3.51-4.61c1.47-1.25,3-2.87,5.69-2.77a3.68,3.68,0,0,1,1.91.67,4.66,4.66,0,0,1,1.31,1.5,5.39,5.39,0,0,1,.55,3.55,5.76,5.76,0,0,1-1.69,3,3.75,3.75,0,0,1-3.09,1Z"/><path class="cls-5" d="M556.52,154.81a5.06,5.06,0,0,0,2-4.13c-.09-1.38-.16-2.9-1.3-3.12s-3,.61-4.41,1.61a35.43,35.43,0,0,0-4.21,3.69l-.22-.17a36.21,36.21,0,0,1,3.51-4.61c1.46-1.25,3-2.87,5.69-2.77a3.68,3.68,0,0,1,1.91.67,4.66,4.66,0,0,1,1.31,1.5,5.38,5.38,0,0,1,.54,3.55,5.74,5.74,0,0,1-1.68,3,3.77,3.77,0,0,1-3.1,1Z"/><path class="cls-4" d="M432.4,197.72a8.34,8.34,0,0,1-1.11-.11,6.49,6.49,0,0,1-1.08-.35,6,6,0,0,1-1-.51,5.32,5.32,0,0,1-.86-.71,5.68,5.68,0,0,1-1.68-4,6.53,6.53,0,0,1,.43-2.19,3.67,3.67,0,0,1,.54-1,4,4,0,0,1,.71-.88,7.62,7.62,0,0,1,.86-.72,6,6,0,0,1,1-.51,7.48,7.48,0,0,1,1.08-.34,5.77,5.77,0,0,1,5.13,1.57,3.76,3.76,0,0,1,.71.88,3.67,3.67,0,0,1,.54,1,4.48,4.48,0,0,1,.32,1.08,5,5,0,0,1,.11,1.11,5.74,5.74,0,0,1-5.7,5.7Z"/><path class="cls-5" d="M579.92,365.57H420.49L401.21,209.18h198ZM428.05,357H572.36l17.18-139.29H410.88Z"/><path class="cls-3" d="M498.53,216.47H405s-16.1-1-16.1-15.08V183.53s-1.51-13.83,13.83-13.83H597.68c15.34,0,13.83,13.83,13.83,13.83v17.86c0,14.08-16.09,15.08-16.09,15.08H498.53"/><path class="cls-5" d="M501.88,220.75H405c-7.22-.45-20.37-5.05-20.37-19.36V183.72c-.12-1.54-.32-7.92,4.13-12.87,3.22-3.6,7.92-5.42,14-5.42H597.68c6.05,0,10.75,1.82,14,5.42,4.44,5,4.24,11.33,4.12,12.87v17.67c0,14.31-13.14,18.91-20.1,19.35Zm-96.72-8.55H595.25c1.7-.14,12-1.4,12-10.81l0-18.32s.33-4-2-6.55c-1.53-1.69-4.08-2.54-7.57-2.54H402.73c-3.49,0-6,.85-7.57,2.54-2.34,2.56-2,6.55-2,6.59l0,.42v17.86C393.18,210.8,403.46,212.06,405.16,212.2Z"/><path class="cls-4" d="M417.73,197.71H407.26a5.7,5.7,0,1,1,0-11.4h10.47a5.7,5.7,0,0,1,0,11.4Z"/><path class="cls-4" d="M433.11,197.71H431.7a5.7,5.7,0,1,1,0-11.4h1.41a5.7,5.7,0,0,1,0,11.4Z"/><path class="cls-12" d="M485.87,54.08s15.17,6,23.8,1C508,50.65,497,37.87,485.87,54.08Z"/><path class="cls-5" d="M500.89,59.93a49,49,0,0,1-16.08-3.2l-3.32-1.32,2-2.94c5.79-8.41,11.67-9.61,15.57-9.13,7.21.88,12.11,7.75,13.24,10.75l.86,2.25-2.09,1.21A20.27,20.27,0,0,1,500.89,59.93Zm-10.26-7.27c4.23,1.18,10.3,2.24,14.91,1.05-1.57-2-4.17-4.35-7.14-4.71C495.8,48.68,493.2,49.92,490.63,52.66Z"/><path class="cls-13" d="M588.63,176.3s8.71,28.81-31,31.38-75.6,4.77-75.6,4.77H597.51s9.81.74,9.81-10.73V183.09s.5-9.22-8.43-9.22H588Z"/><path class="cls-1" d="M306.38,433.23c-.39,0-.77,0-1.16,0H287.57c-10.17,0-19.07-3.92-25.06-11.05a31.17,31.17,0,0,1-7.09-22.1V370.37A28.58,28.58,0,0,1,237,361.15a29.33,29.33,0,0,1-7.38-20.44V320.57c0-9.51,3.77-17.84,10.63-23.43a29,29,0,0,1,20.5-6.35h71.13c13.84,0,21.51,7.14,24.86,11.39a29.73,29.73,0,0,1,6.09,21.27v17.4c0,17.63-13.55,28.57-27,30.47v31.94a29.23,29.23,0,0,1-29.48,30Z"/><path class="cls-1" d="M614.71,433.26c-.58,0-1.15,0-1.72-.06H595.66c-10.17,0-19.07-3.92-25.06-11a31.24,31.24,0,0,1-7.08-22.11V370.37a28.6,28.6,0,0,1-18.43-9.22,29.27,29.27,0,0,1-7.37-20.44V320.57c0-9.51,3.77-17.84,10.62-23.43a29,29,0,0,1,20.51-6.35H640c13.83,0,21.51,7.14,24.85,11.39a29.74,29.74,0,0,1,6.1,21.27v17.4c0,17.63-13.56,28.57-27,30.47v31.94c0,9.22-3.61,17.4-10.17,23A29.51,29.51,0,0,1,614.71,433.26Z"/><path class="cls-1" d="M440.58,433.25H409.63l-12.92-12.74L384,433.25H353l-1.79-.27c-14.18-2.13-20.91-10.66-23.66-15.56-6.55-11.65-3.15-23.08-1.58-27.07s28-72.32,30.23-78a31.62,31.62,0,0,1,31.39-20.06H406a31.63,31.63,0,0,1,31.39,20.06c2.27,5.67,28.7,74,30.24,78s5,15.42-1.58,27.06c-2.75,4.9-9.48,13.43-23.67,15.56ZM385,372.07h23.58c-4.43-11.43-8.72-22.51-11.79-30.42C393.73,349.56,389.43,360.64,385,372.07Z"/><path class="cls-1" d="M503.56,434.32A76.76,76.76,0,0,1,470,426.89c-7.44-3.62-16.14-11.65-20.67-16.12l-.68-.7a33.33,33.33,0,0,1-8.76-23.36,32.17,32.17,0,0,1,8.9-20.82c-5.52-10.38-8.29-23.14-3.32-36.75l1.17-2.76c10.89-24.64,28.5-37.27,52.36-37.54h1a79.59,79.59,0,0,1,49.15,16.8c4.36,3.2,12.82,10.86,14.11,22.93a28.51,28.51,0,0,1-5.52,20.06c5.11,8.34,8.53,19,8,32.26-.3,12.92-9.05,40.74-35.07,49.2A88.18,88.18,0,0,1,503.56,434.32Zm-5.76-48.89A38.93,38.93,0,0,0,515,384.25a14.84,14.84,0,0,0,2.34-5.34c.06-1.63,0-5.18-3.05-7.08l-2.9-.84-12.44,13.23Zm19.5-5.67v0Zm0-.54c0,.14,0,.28,0,.41Zm-25.4-35.36a15,15,0,0,0,.91,1.24l8.27-7.8c-.5,0-1,0-1.54,0C496.54,337.32,494.92,337.62,491.92,343.86Z"/><path class="cls-1" d="M702.62,433.4c-1.74,0-3.8-.06-6.14-.2-15.51-.95-27.39-13.44-28.89-30.36l-.1-2.15V381C656,363,642.71,342.44,640.07,339l-2.7-3.37-1.32-4.05c-3.09-9.25-2-18.62,3-26.38,7.64-11.82,20.61-14,24.4-14.39l2.46-.12h17.77a34.27,34.27,0,0,1,24.64,10.44A34.23,34.23,0,0,1,733,290.72l20.22.12c3.8.39,16.77,2.57,24.41,14.39,5,7.76,6.07,17.13,3,26.39l-1.37,4.1-2.7,3.37c-2.59,3.35-15.9,23.87-27.38,41.94L749,402.84c-1.51,16.92-13.39,29.41-28.89,30.36a88.35,88.35,0,0,1-11,.05h-1.7C706.31,433.32,704.68,433.4,702.62,433.4Z"/><path class="cls-1" d="M252.9,561.7a32.39,32.39,0,0,1-22.14-8.45A30.68,30.68,0,0,1,221.23,530c.07-4,.06-23.34,0-40.76-13.27-2.44-25.6-13.56-25.6-30.46v-18.4a30.51,30.51,0,0,1,31-29.75H288.8a31.06,31.06,0,0,1,21.72,7.48c6.71,5.88,10.39,14.4,10.38,24V460a28.18,28.18,0,0,1-7.31,19.74,27.68,27.68,0,0,1-15.76,8.6V524.9a34.2,34.2,0,0,1-25,33l-.51.14c-7,1.82-14.25,3.19-14.55,3.25l-2.58.35C254.62,561.66,253.84,561.7,252.9,561.7Z"/><path class="cls-1" d="M353.87,549.26h-.71c-8.07,0-27.05-1.58-41.8-15a66.15,66.15,0,0,1-21.24-48.84V441.64c.34-15.21,12.2-30.93,31.46-30.93h11.85a31.85,31.85,0,0,1,20.07,5.7,31.88,31.88,0,0,1,20.08-5.7h11.85c19.26,0,31.12,15.72,31.46,30.92v43.76a66.12,66.12,0,0,1-21.24,48.84C380.92,547.68,361.94,549.26,353.87,549.26Z"/><path class="cls-1" d="M435.25,541.68q-1.32,0-2.64-.12H419.45c-16.41,0-28.83-13.35-28.9-31V441.65a31.47,31.47,0,0,1,9-22.62,29.62,29.62,0,0,1,21.09-8.64h9.2c13.62,0,23.2,5.55,28.92,12.09,5.71-6.54,15.29-12.09,28.91-12.09h8.22a29,29,0,0,1,20.15,6.43c4.09,3.36,11,11.06,11,24.83v68.77c-.07,17.79-12.5,31.14-28.9,31.14H485a28,28,0,0,1-19.36-5.4l-5.37,5.37-6.95-6.42-1.07.86A27.89,27.89,0,0,1,435.25,541.68Z"/><path class="cls-1" d="M564.63,542c-13,0-27.48-.23-30.58-.28a32.66,32.66,0,0,1-22.24-8.74,31.79,31.79,0,0,1-9.65-23.33c0-8.23-.07-66.41-.07-66.41v-.6l0-.59c.72-15,12.2-30.92,32.06-30.92h44.05l2.33.47c19.7,3.9,41,19.73,41.23,45.26v.57a54.48,54.48,0,0,1-1.92,15.05,45,45,0,0,1,4.92,25.19c-.87,16-14.12,39.23-38.29,43.65l-1.43.26-1.44.09C579.57,541.87,572.35,542,564.63,542Zm-14-48.52c9.26.09,18.95.12,25.18,0l-.75-.77c-1.11-1.13-2-2.14-2.77-3L555.41,469.6l14.1-10.07h-19C550.56,469.8,550.58,483,550.59,493.43Z"/><path class="cls-1" d="M689.05,550.3H627l-1.64-.23c-14.71-2-29.59-14.91-29.59-35.63V442.73a33.14,33.14,0,0,1,9-22.85,32.11,32.11,0,0,1,23.45-9.64h56.6a28.76,28.76,0,0,1,30.66,29.57v12.42a29.51,29.51,0,0,1-5.85,19.94,28.64,28.64,0,0,1,.28,4.06v9.48c0,.17,0,.33,0,.49a32.43,32.43,0,0,1,8.23,22.2c0,7.63,0,10.93,0,12.13a29.13,29.13,0,0,1-7.3,20.37A28.84,28.84,0,0,1,689.05,550.3Z"/><path class="cls-1" d="M789.1,564.23l-18.65-.05c-3.23-.21-12-1.55-20.33-9.62a30.61,30.61,0,0,1-14.65,3.56h-14.2a31.83,31.83,0,0,1-21.74-8.59c-6.5-6.16-10.08-15-10.08-24.78V444.29c0-16.85,12.82-34.27,34.28-34.27h38.62a52.05,52.05,0,0,1,35.93,14.26c7.93,7.6,17.39,21.81,17.39,46.33A64.35,64.35,0,0,1,807,502.46c1.51,3.67,3.37,7.86,5,11.28,4.3,8.15,9.92,23.33,1.84,36.86A28.4,28.4,0,0,1,789.1,564.23Zm-44.23-81a27.9,27.9,0,0,1,13.23,3.38l4.13-4.58c4.64-5.15,5-10.05,5-11.44,0-7.1-1.55-10.47-2.46-11.35l-1.11-.82-1-24.2v24.22H737.89v25.72A26.67,26.67,0,0,1,744.87,483.25Z"/><path class="cls-9" d="M339.23,345.16V326.05s1.63-6.72-6.73-6.72H260s-5.57-1.13-5.57,5.56v20.78s-.5,5,5,5H280l.25,1.05v53.68s-1.39,7.92,7.92,7.92h18.35s5.72.6,5.72-5.72V354.69a3,3,0,0,1,3-3h17.44S339.23,351.2,339.23,345.16Z"/><path class="cls-9" d="M647.32,345.16V326.05s1.64-6.72-6.72-6.72H568.12s-5.56-1.13-5.56,5.56v20.78s-.5,5,5,5h20.57l.25,1.05v53.68s-1.38,7.92,7.92,7.92h18.36s5.72.88,5.72-5.72V354.69a3,3,0,0,1,3-3h17.44S647.32,351.2,647.32,345.16Z"/><path class="cls-9" d="M419.4,412.47a3,3,0,0,0,2.12.87h17.87c9.8-1.47,6.28-9.84,6.28-9.84s-27.91-72.17-30.17-77.82a7.55,7.55,0,0,0-7.92-4.84H387.25a7.56,7.56,0,0,0-7.92,4.84c-2.26,5.65-30.17,77.82-30.17,77.82s-3.52,8.37,6.29,9.84h17.87a3,3,0,0,0,2.11-.87l6.76-6.76a3,3,0,0,0,.87-2.11h0a3,3,0,0,1,3-3h22.73a3,3,0,0,1,3,3h0a3,3,0,0,0,.88,2.11Z"/><path class="cls-9" d="M542.14,384.51c.74-17.16-9.3-25.72-14.68-29.06a3,3,0,0,1-.55-4.59c3.12-3.23,8.17-8.44,11.33-11.61,4.84-4.84-3.27-10.05-3.27-10.05s-13.32-12.07-35.07-11.82-28.29,18.35-31,24.39c-4.51,12.34,5.93,23.76,10.77,28.21a3,3,0,0,1,.12,4.25c-2.79,2.9-7.78,8-12,11.92-6.28,5.78-.75,11.69-.75,11.69s9.3,9.18,14.21,11.57c19,9.17,38.84,3.26,42.49,2C537.86,406.89,542.14,388.79,542.14,384.51Z"/><path class="cls-9" d="M725.52,405V383.26a19.16,19.16,0,0,1,2.12-8.27,2.12,2.12,0,0,1,.12-.2c1.32-2.09,25.88-40.81,30.45-46.51,2.68-8-6.87-9-6.87-9H733.57a10.27,10.27,0,0,0-9.22,5.83l-13,17.28a3,3,0,0,1-4.78,0l-1.21-1.6-11.82-15.68a10.29,10.29,0,0,0-9.22-5.83H666.52s-9.56,1-6.88,9c4.57,5.7,29.14,44.42,30.46,46.51l.12.2a19.2,19.2,0,0,1,2.11,8.27V405s.71,8,6.25,8.33a54.74,54.74,0,0,0,8.54,0h3.61a54.91,54.91,0,0,0,8.55,0C724.81,413,725.52,405,725.52,405Z"/><path class="cls-14" d="M297.3,446.43c0-8.19-7.23-7.23-7.23-7.23H227.26a6.26,6.26,0,0,0-6.75,6v17.89c0,6.58,6.75,6.75,6.75,6.75h15.83a3,3,0,0,1,3,3c0,11.83.1,55.29,0,61.91-.12,7.67,7.8,7,7.8,7s6.66-1.26,12.94-2.89a10,10,0,0,0,7.42-9.56V471.89a3,3,0,0,1,3-3h15.9a3.81,3.81,0,0,0,4.18-4.18S297.29,455.92,297.3,446.43Z"/><path class="cls-14" d="M386.05,439.25H373.37s-8-1.2-8,8v41.87s-.63,11.36-11.25,11.72c-10.62-.36-11.25-11.72-11.25-11.72V447.24c0-9.19-8-8-8-8H322.21c-7.08,0-7.24,7.24-7.24,7.24v43.22a41.83,41.83,0,0,0,13.34,30.95c9.15,8.34,22.66,8.73,25.82,8.7s16.68-.36,25.83-8.7a41.83,41.83,0,0,0,13.34-30.95V446.49S393.14,439.25,386.05,439.25Z"/><path class="cls-14" d="M497.76,438.93h-9.43c-9.43,0-11.44,4.9-11.44,4.9L461.76,463a3,3,0,0,1-4.69,0l-15.13-19.16s-2-4.9-11.44-4.9h-9.43s-5.68-.05-5.68,7v68.77s0,6.91,4.68,6.91H434.9s4.72,1.26,4.72-4.71V500.08a3,3,0,0,1,5-2.2l13.45,12.43a3,3,0,0,0,4.15-.09l11.87-11.87a3,3,0,0,1,5.11,2.12v16.47c0,6,4.71,4.71,4.71,4.71h14.84c4.65,0,4.67-6.91,4.67-6.91V446C503.44,437.8,497.76,438.93,497.76,438.93Z"/><path class="cls-14" d="M598.18,461.34c-.15-16.11-18.54-21-21.36-21.64a3.16,3.16,0,0,0-.68-.08H534.78c-7.48,0-7.85,7.86-7.85,7.86s.07,58.21.07,66.44,7.85,7.85,7.85,7.85,36.88.63,47.65,0a4.18,4.18,0,0,0,.51-.06c12.27-2.42,18.22-15.82,18.22-21.44,1.11-10-4.17-16-7.66-19.61a3,3,0,0,1,.08-4.2C598.4,471.45,598.18,464.63,598.18,461.34Z"/><path class="cls-14" d="M694.51,512.69c0-8.87-8.17-8.17-8.17-8.17H655.89a3,3,0,0,1-3-3V496.3a3,3,0,0,1,3-3h28c2.78,0,2.41-2.41,2.41-2.41V480.55a3.48,3.48,0,0,0-3.69-3.69H655.78a3,3,0,0,1-3-3v-7.6a2.45,2.45,0,0,1,2.5-2.49h30.59c7.07,0,5.94-5.95,5.94-5.95v-13.7c0-6.24-5.36-5.36-5.36-5.36H628.79c-8.52,0-8.2,8.21-8.2,8.21v71.78c0,9.28,6.86,11.25,8.38,11.58a2.69,2.69,0,0,0,.57,0h60.13c5.34,0,4.84-4.84,4.84-4.84S694.5,523.12,694.51,512.69Z"/><path class="cls-14" d="M791.06,529.07s-8-16.23-9.95-25.07a2.93,2.93,0,0,1,.69-2.51,41.48,41.48,0,0,0,10.27-26.56c0-37.61-28.83-36.38-28.83-36.38H724.35c-10.06,0-10.06,10.06-10.06,10.06v80.46c0,9.56,7.63,9.15,7.63,9.15h14.17c6.26,0,6.26-6.26,6.26-6.26V518.07c0-9.36,5.44-5.45,5.44-5.45l3.74,3.74a3.15,3.15,0,0,1,.25.28,114.28,114.28,0,0,1,11.29,18.13c3.78,8,8.18,9.31,9.29,9.52a2.59,2.59,0,0,0,.48,0h16.88C799.28,544.33,791.06,529.07,791.06,529.07Z"/><path class="cls-5" d="M307.25,417.59H288.48c-5.35,0-8.28-2.14-9.79-3.94a11.53,11.53,0,0,1-2.4-8.53V354.92H259.74a9.08,9.08,0,0,1-7-2.83,9.23,9.23,0,0,1-2.23-6.57V324.89c0-4.37,1.8-6.76,3.3-8a9.17,9.17,0,0,1,6.86-1.85H332.8c5.13,0,7.82,2.06,9.17,3.78a10,10,0,0,1,1.83,7.6v18.73c0,7.33-6.27,10.48-10.48,10.8l-.33,0H316.83v51.6a9.31,9.31,0,0,1-9.58,10ZM259.1,346.34c.08,0,.29,0,.64,0h23.94l1.16,5.33-.07,54.42a3.13,3.13,0,0,0,.48,2,4.57,4.57,0,0,0,3.23.87l18.8,0a2,2,0,0,0,.77-.2,2.25,2.25,0,0,0,.23-1.27V347.43h24.49c1.13-.15,2.48-.67,2.48-2.27l.12-20.11a1.69,1.69,0,0,0-.12-.94c-.12-.14-.79-.51-2.45-.51l-73.33-.08a1.93,1.93,0,0,0-.35.05c.07,0-.09.42-.09,1.32l0,21.2a2,2,0,0,0,.06.25Z"/><path class="cls-5" d="M615.61,417.62c-.37,0-.68,0-.92,0H596.58c-5.36,0-8.28-2.14-9.79-3.94a11.6,11.6,0,0,1-2.41-8.53V354.92H567.84a9.08,9.08,0,0,1-7-2.83,9.23,9.23,0,0,1-2.23-6.57V324.89c0-4.37,1.79-6.76,3.3-8a9.17,9.17,0,0,1,6.86-1.85h72.15c5.13,0,7.82,2.06,9.18,3.78a10,10,0,0,1,1.82,7.6v18.73c0,7.33-6.27,10.48-10.48,10.8l-.33,0H624.93v51.6c0,4.24-1.75,6.62-3.21,7.88A9.38,9.38,0,0,1,615.61,417.62Zm-48.42-71.28c.09,0,.3,0,.65,0h23.94l1.15,5.33-.06,54.42a3.07,3.07,0,0,0,.48,2c.48.55,1.66.87,3.23.87l19,.05a2.22,2.22,0,0,0,.58-.12,3,3,0,0,0,.22-1.38V347.43h24.48c1.13-.15,2.48-.67,2.48-2.27l.13-20.12a1.67,1.67,0,0,0-.13-.93c-.11-.14-.78-.51-2.45-.51l-73.33-.08a1.85,1.85,0,0,0-.34.05,12.3,12.3,0,0,0-.09,1.32l0,21.2a1.48,1.48,0,0,0,0,.25Z"/><path class="cls-5" d="M440,417.62H421.27a6,6,0,0,1-4.21-1.75l-7.22-7.22a7.08,7.08,0,0,1-1.95-3.77H387.54a7,7,0,0,1-2,3.77l-7.22,7.22a6,6,0,0,1-4.22,1.75l-19-.05c-5.5-.83-8.06-3.5-9.24-5.6-2.56-4.56-.59-9.57-.35-10.13,1.09-2.83,27.89-72.13,30.14-77.75a11.81,11.81,0,0,1,12.14-7.53h19.83a11.81,11.81,0,0,1,12.14,7.53C422,329.71,448.82,399,450,402c.18.44,2.16,5.45-.41,10-1.18,2.1-3.74,4.77-9.23,5.6Zm-16.9-7.8h0Zm-.75-.75h17c1.43-.25,2.43-.71,2.75-1.28a3.85,3.85,0,0,0-.08-2.69c-.31-.78-27.95-72.27-30.18-77.84a3.22,3.22,0,0,0-3.43-2.18l-.52,0-20.94,0a3.19,3.19,0,0,0-3.34,2.19c-2.23,5.57-29.88,77.06-30.16,77.78a3.92,3.92,0,0,0-.11,2.75c.33.57,1.32,1,2.75,1.28h17l6-6a7.39,7.39,0,0,1,7.35-6.7H409a7.4,7.4,0,0,1,7.35,6.7Z"/><path class="cls-5" d="M389,372.28l7.81-17.95a1.56,1.56,0,0,1,2.85,0l7.92,17.95a1.56,1.56,0,0,1-1.42,2.19H390.42A1.56,1.56,0,0,1,389,372.28Z"/><path class="cls-5" d="M504.56,418.76a57.08,57.08,0,0,1-25-5.51c-5.39-2.62-14.34-11.38-15.35-12.37a13.35,13.35,0,0,1-3.51-9.1,12.42,12.42,0,0,1,4.37-8.78c3.73-3.42,8.08-7.84,10.93-10.79-5.79-5.59-16-18-10.92-31.91l.68-1.54c3.07-6.95,11.23-25.39,34.35-25.65a58.49,58.49,0,0,1,37.72,12.68c1.46,1,5.92,4.41,6.43,9.23a8.68,8.68,0,0,1-2.74,7.26c-2.77,2.77-7,7.18-10.16,10.39,7.38,5.08,16,15.49,15.3,32,0,6-5.27,25.64-21.45,30.79A66.54,66.54,0,0,1,504.56,418.76Zm-31.45-75.4c-4.47,12.62,11.53,25.06,11.7,25.19l3.75,2.88-3.23,3.44c-.33.35-8.1,8.6-14.43,14.42-2,1.85-2.17,3.76-.48,5.68,3.24,3.19,9.81,9.08,12.91,10.59,18,8.71,37.11,2.55,39.23,1.82,11.55-3.69,15.6-19.22,15.6-22.87.87-20.28-15.1-26.75-15.26-26.81l-6-2.33,4.44-4.62c.09-.1,9.32-9.7,14.13-14.52a1.61,1.61,0,0,0,.31-.38,8,8,0,0,0-2.88-3.07l-.53-.41a51.52,51.52,0,0,0-32.17-10.72c-17.62.21-23.69,14-26.62,20.56Z"/><path class="cls-5" d="M522.68,357.55c-6.16-3.57-18.19-3.94-22.31-3.79l-.33-8.54c.7,0,17.35-.61,26.92,4.93Z"/><path class="cls-5" d="M506,387.19c-.69-.13-17-3.43-25-11l5.88-6.21c5.17,4.9,16.78,8.05,20.82,8.86Z"/><path class="cls-5" d="M714.92,417.77c-2.14,0-3.54-.1-4.1-.15h-3.2a64,64,0,0,1-9,0c-7.26-.45-9.85-7.89-10.24-12.23l0-.37V383.26a15.13,15.13,0,0,0-1.62-6.28c-7-11.09-26.4-41.37-30.13-46l-.47-.6-.24-.72c-1.46-4.35-.36-7.44.81-9.25,2.95-4.57,9-5.31,9.68-5.38l.43,0h17.77a14.43,14.43,0,0,1,12.9,7.89l11.74,15.57L721,322.87A14.42,14.42,0,0,1,733.86,315l18.2,0c.68.07,6.73.81,9.68,5.38,1.18,1.81,2.27,4.9.82,9.25l-.24.72-.48.6c-3.73,4.66-23.08,34.93-30.23,46.21h0a15.06,15.06,0,0,0-1.52,6.1l0,22.12c-.38,4.34-3,11.78-10.24,12.23C717.91,417.72,716.27,417.77,714.92,417.77Zm-3.43-8.68a54,54,0,0,0,7.82,0c1.24-.07,2.05-2.94,2.23-4.3V383.26a23.21,23.21,0,0,1,2.73-10.49c1.14-1.79,24.46-38.59,30.35-46.45a2,2,0,0,0,0-1.3c-.47-.73-2.13-1.32-3.22-1.49H733.86a6,6,0,0,0-5.29,3.25l-.51.89-18.84,25-19.34-25.86a6,6,0,0,0-5.3-3.25H667.09c-1.07.16-2.74.75-3.21,1.49a1.84,1.84,0,0,0,0,1.3c5.88,7.86,29.21,44.65,30.23,46.27a23.14,23.14,0,0,1,2.84,10.67v21.51c.17,1.34,1,4.23,2.23,4.3a51.24,51.24,0,0,0,7.82,0l.47,0Z"/><path class="cls-5" d="M253.75,546.07a12.52,12.52,0,0,1-8.42-3.05,10.71,10.71,0,0,1-3.24-8.34c.11-6.32,0-47.11,0-60.53H227.55c-4.49-.11-11-3.13-11-11V445.24c.09-4.2,3.09-10.31,11-10.31h62.62a11.35,11.35,0,0,1,8.12,2.53c1.63,1.43,3.59,4.15,3.58,9,0,8.85,0,17.09,0,18.17a8.44,8.44,0,0,1-2.09,6,8.24,8.24,0,0,1-6.36,2.58H278.8v56.16A14.27,14.27,0,0,1,268.27,543c-6.44,1.68-13,2.93-13.32,3l-.45.06C254.39,546.06,254.13,546.07,253.75,546.07Zm-7.38-80.47h4.26v4.27c0,2.34.12,57.33,0,65a2.61,2.61,0,0,0,.54,2,4.22,4.22,0,0,0,2.48.74c1.35-.26,7-1.38,12.37-2.77a5.57,5.57,0,0,0,4.22-5.35V464.63h23.07c0-1,0-9.3,0-18.21a3.59,3.59,0,0,0-.65-2.51,2.73,2.73,0,0,0-1.81-.46l-.49,0H227.55c-.82,0-2.34,0-2.48,1.94v17.71c0,.64,0,2.33,2.64,2.48Z"/><path class="cls-5" d="M354.11,533.64c-4.25,0-18.41-.73-28.39-9.83A46.13,46.13,0,0,1,311,489.71V446.49c.1-4.69,3.25-11.52,11.52-11.52H335a11.86,11.86,0,0,1,8.63,2.58c1.77,1.52,3.87,4.44,3.87,9.69v41.87c.08,1,.86,7.48,7.48,7.48v8.55c-12,0-15.73-10.34-16-15.8v-42.1c0-.91-.11-2.53-.9-3.21a3.63,3.63,0,0,0-2.18-.56l-.63,0H322.51c-1.87,0-2.87,1.05-3,3.13v43.06a37.55,37.55,0,0,0,12,27.79c8.92,8.15,23.27,7.57,23.42,7.57l.42,8.54C355.23,533.62,354.8,533.64,354.11,533.64Z"/><path class="cls-5" d="M354.75,533.64c-.69,0-1.12,0-1.22,0l.43-8.54c.13,0,14.48.58,23.41-7.57a37.54,37.54,0,0,0,11.95-27.79V446.49c-.1-1.92-1.1-3-3-3l-13.31,0a3.51,3.51,0,0,0-2.21.58c-.76.68-.88,2.29-.88,3.19v41.87c-.3,5.69-4,16-16,16v-8.55c6.61,0,7.39-6.45,7.48-7.74V447.24c0-5.25,2.11-8.17,3.88-9.69A11.83,11.83,0,0,1,373.9,435h12.45c8.27,0,11.42,6.84,11.52,11.43v43.31a46.09,46.09,0,0,1-14.74,34.1C373.16,532.91,359,533.64,354.75,533.64Z"/><path class="cls-5" d="M483.22,526a7.77,7.77,0,0,1-4.79-1.57c-1.45-1.12-3.19-3.33-3.19-7.53V503.56l-14.62,14.62L444.19,503v13.93c0,4.2-1.74,6.41-3.2,7.53a8.05,8.05,0,0,1-6.2,1.46H420.36c-6.12,0-8.93-5.79-8.95-11.17V446c0-4.42,1.71-7,3.14-8.45a9.73,9.73,0,0,1,6.86-2.86h9.39c10.13,0,13.92,4.88,15,6.83l13.88,17.58,13.88-17.58c1.11-1.95,4.9-6.83,15-6.83h9.13a8.84,8.84,0,0,1,6.58,1.9c2.44,2,3.67,5.17,3.67,9.41v68.77c0,5.4-2.83,11.19-8.95,11.19H484.64A9.11,9.11,0,0,1,483.22,526Zm.69-8Zm-48.4,0Zm48.43-.78.29.16h14.63a6.72,6.72,0,0,0,.6-2.66V446c0-2.23-.54-2.79-.54-2.8l-.42.09-.44-.05h-9.43c-6.1,0-7.53,2.37-7.59,2.47l-.23.84-.27,0-20.83,26.38L438.34,445.8l-.06-.34h0s-1.54-2.25-7.48-2.25h-9.43c-.35,0-1.41.1-1.41,2.76v68.77a6.81,6.81,0,0,0,.6,2.64h15.06c0-.12,0-.27,0-.44V483.47l24.74,22.86,23.41-23.41v34c0,.12,0,.23,0,.33Z"/><path class="cls-5" d="M565.88,526.33c-13.82,0-29.8-.27-30.81-.29a12.58,12.58,0,0,1-8.58-3.23,11.78,11.78,0,0,1-3.47-8.89c0-8.23-.07-66.43-.07-66.43v-.21c.23-4.8,3.65-11.93,12.13-11.93l42.51.08c8.64,1.71,25,9.32,25.16,25.87v.45c0,3.5,0,10.92-5,16.85,3.72,4,9.14,11,8,21.94-.15,7.84-7.5,22.78-22,25.43l-.51.06C579.71,526.25,573.09,526.33,565.88,526.33ZM535,517.49c.58,0,37,.63,47.51,0,10.3-2.06,14.74-13.76,14.74-17.24l0-.47c1-8.55-3.87-13.49-7.06-16.76-.7-.72-1.31-1.35-1.77-1.89l-3-3.54,3.76-2.69c4.61-3.29,5-8.52,5-13.16v-.43c-.11-12.67-15.35-16.83-17.91-17.44H535.08c-2.82,0-3.46,2.3-3.58,3.74,0,3.36.07,58.3.07,66.28a3.68,3.68,0,0,0,.79,2.68A4.63,4.63,0,0,0,535,517.49Z"/><path class="cls-5" d="M741.83,480.27v-12.5h15.89s6.67-1,6.67,6.25c0,3.79,0,8.91-6.2,8.91H741.83Z"/><path class="cls-5" d="M553.88,497.77V490.1h16s6.73-.63,6.73,3.83c0,2.33,0,5.47-6.25,5.47h-16.5Z"/><path class="cls-5" d="M553.88,466.09v-7.67h13.43s5.65-.63,5.65,3.83c0,2.33,0,5.47-5.24,5.47H553.88Z"/><path class="cls-5" d="M690,534.67l-61,0c-4.28-.59-12.37-4.67-12.37-15.87V447a13.17,13.17,0,0,1,3.4-9,12.11,12.11,0,0,1,9.08-3.53h57.42a9.17,9.17,0,0,1,6.76,2c1.42,1.21,3.12,3.52,3.12,7.63v13.42a9.68,9.68,0,0,1-2,7.12c-1.28,1.55-3.75,3.38-8.25,3.38H657.36v4.53h25.5a8.2,8.2,0,0,1,5.65,2.16,7.78,7.78,0,0,1,2.32,5.81v10.13a6.33,6.33,0,0,1-6.69,6.9H657.47v2.66h29a12.77,12.77,0,0,1,8.89,3.06c1.68,1.55,3.69,4.44,3.68,9.39,0,9,0,12.06,0,12.7a9.08,9.08,0,0,1-2.18,6.47A8.91,8.91,0,0,1,690,534.67Zm-60-8.55h60a2,2,0,0,0,.72-.09l-.16-.45s0-2.44,0-12.9a4.15,4.15,0,0,0-.92-3.09,4.26,4.26,0,0,0-2.61-.82l-.37,0H648.92V489h33.36v-7.89H648.81V466.27a6.63,6.63,0,0,1,6.77-6.76h30.59a3.13,3.13,0,0,0,1.67-.3,2.11,2.11,0,0,0,.08-.58l-.07-.8v-13.7a2.7,2.7,0,0,0-.18-1.18c0,.07-.19.05-.34.06l-.34.05h-57.9a4,4,0,0,0-2.9.88,4.62,4.62,0,0,0-1,2.94v71.89C625.16,524.68,629,525.9,629.93,526.12Zm52.4-34.56Z"/><path class="cls-5" d="M790,548.6h-17.1c-1.56-.09-8.25-1.06-13.42-12a108.93,108.93,0,0,0-10.76-17.27l-1.82-1.82V532c0,4.23-2.81,10.52-10.53,10.52H722.21a11.6,11.6,0,0,1-8.05-3.12c-2.55-2.42-3.85-5.89-3.85-10.3V448.61c0-5.76,3.82-14.33,14.33-14.33h38.89A32.22,32.22,0,0,1,785.4,443c7.46,7.15,11.24,17.89,11.24,31.93a45.27,45.27,0,0,1-10.89,28.85c1.74,6.92,7.27,19,9.45,23.41,1.38,2.55,5.85,11.81,2.45,17.5C796.78,546.15,794.63,548.6,790,548.6Zm-16.63-8.53.06,0h-.06Zm-.06,0h17c.21-1.56-1.06-5.74-2.78-8.95-.44-.9-9.25-18.92-10.68-27.83l-.32-2,1.37-1.52c9.14-10.14,10.13-20.71,10.13-24.79,0-11.56-2.86-20.19-8.52-25.67a23.8,23.8,0,0,0-15.88-6.43H724.64c-5.11,0-5.74,4.07-5.78,5.83v80.41c0,1.33.2,3.11,1.14,4a3.26,3.26,0,0,0,2.08.83h14.31c.71,0,1.9,0,2-2.05V518.07c0-1.88,0-7.59,4.33-9.81a7.77,7.77,0,0,1,7.89.89l.52.45,4.23,4.28a117.93,117.93,0,0,1,11.89,19.06C769.93,538.65,772.71,539.85,773.33,540.05Z"/><text class="cls-15" transform="translate(350.97 -116.31)">KEEP IT <tspan class="cls-16" x="179.62" y="0">W</tspan><tspan x="219.33" y="0">ARM</tspan></text></svg>